<?xml version="1.0" standalone="no"?>
<!DOCTYPE svg PUBLIC "-//W3C//DTD SVG 1.1//EN" "http://www.w3.org/Graphics/SVG/1.1/DTD/svg11.dtd" >
<svg xmlns="http://www.w3.org/2000/svg" xmlns:xlink="http://www.w3.org/1999/xlink" version="1.1">
<metadata>
Created by FontForge 20170731 at Thu Sep 10 11:59:16 2015
 By Aleksey,,,
Copyright 2015 Samsung Electronics Co., Ltd. All Rights Reserved.
</metadata>
<defs>
<font id="SamsungOneUILatin-700" horiz-adv-x="0" >
  <font-face 
    font-family="SamsungOneUILatin 700"
    font-weight="700"
    font-stretch="normal"
    units-per-em="1024"
    panose-1="0 0 8 0 0 0 0 0 0 0"
    ascent="794"
    descent="-230"
    x-height="543"
    cap-height="724"
    bbox="-534 -338 1419 1047"
    underline-thickness="38"
    underline-position="-178"
    unicode-range="U+0008-FFFD"
  />
<missing-glyph horiz-adv-x="693" 
d="M609 0h-526v724h526v-724zM509 633h-282l282 -465v465zM184 91h281l-281 465v-465z" />
    <glyph glyph-name="fi" unicode="fi" horiz-adv-x="645" 
d="M95 441h-86v102h86v49q0 92 55 142t155 50q32 0 57 -5v-103q-27 4 -57 4q-92 0 -92 -88v-49h130v-102h-130v-441h-118v441zM452.5 640q-19.5 19 -19.5 51q0 34 19 52.5t54 18.5q34 0 53.5 -19t19.5 -51q0 -34 -19 -52.5t-54 -18.5q-34 0 -53.5 19zM447 543h118v-543h-118
v543z" />
    <glyph glyph-name="fl" unicode="fl" horiz-adv-x="686" 
d="M95 441h-86v102h86v49q0 92 55 142t155 50q32 0 57 -5v-103q-27 4 -57 4q-92 0 -92 -88v-49h130v-102h-130v-441h-118v441zM443 130v640h118v-617q0 -29 12 -42t38 -13q17 0 36 4l8 -100q-36 -9 -75 -9q-137 0 -137 137z" />
    <glyph glyph-name=".notdef" horiz-adv-x="693" 
d="M609 0h-526v724h526v-724zM509 633h-282l282 -465v465zM184 91h281l-281 465v-465z" />
    <glyph glyph-name="uni0000" 
 />
    <glyph glyph-name="uni0000" 
 />
    <glyph glyph-name="nonmarkingreturn" unicode="&#xd;" horiz-adv-x="225" 
 />
    <glyph glyph-name="uni0008" horiz-adv-x="260" 
 />
    <glyph glyph-name="uni0009" unicode="&#x9;" horiz-adv-x="512" 
 />
    <glyph glyph-name="uni001D" horiz-adv-x="212" 
 />
    <glyph glyph-name="space" unicode=" " horiz-adv-x="212" 
 />
    <glyph glyph-name="exclam" unicode="!" horiz-adv-x="358" 
d="M112 724h132l-18 -513h-94zM123 6.5q-20 19.5 -20 53.5q0 35 20 54t56 19t56 -19.5t20 -52.5q0 -35 -20 -54.5t-56 -19.5t-56 19.5z" />
    <glyph glyph-name="quotedbl" unicode="&#x22;" horiz-adv-x="396" 
d="M224 724h113l-19 -260h-74zM59 724h113l-19 -260h-74z" />
    <glyph glyph-name="numbersign" unicode="#" horiz-adv-x="691" 
d="M521 452l-30 -180h129v-85h-143l-31 -187h-96l31 187h-128l-31 -187h-95l31 187h-132v85h146l29 180h-132v85h146l31 187h96l-31 -187h128l31 187h95l-30 -187h129v-85h-143zM425 452h-128l-30 -180h129z" />
    <glyph glyph-name="dollar" unicode="$" horiz-adv-x="554" 
d="M456.5 76q-49.5 -54 -139.5 -67v-94h-82v92q-54 3 -105 18t-92 41l38 91q81 -44 161 -50v209l-23 7q-87 24 -127 69t-40 121q0 88 49 140.5t139 62.5v93h82v-93q87 -8 170 -42l-37 -92q-81 28 -135 33v-199l24 -7q87 -24 127 -69.5t40 -122.5q0 -87 -49.5 -141z
M177 474.5q18 -21.5 60 -36.5v177q-40 -6 -59 -26t-19 -58q0 -35 18 -56.5zM374.5 139.5q19.5 21.5 19.5 59.5q0 37 -18 59t-61 36v-183q40 7 59.5 28.5z" />
    <glyph glyph-name="percent" unicode="%" horiz-adv-x="944" 
d="M51 514q0 223 162 223q163 0 163 -223q0 -222 -163 -222q-162 0 -162 222zM599 724h100l-354 -724h-99zM261 408q15 33 15 106t-15 106.5t-48 33.5t-48 -33.5t-15 -106.5t15 -106t48 -33t48 33zM569 210q0 222 162 222q163 0 163 -222q0 -223 -163 -223q-162 0 -162 223z
M779 103.5q15 33.5 15 106.5t-15 106t-48 33t-48 -33t-15 -106t15 -106.5t48 -33.5t48 33.5z" />
    <glyph glyph-name="ampersand" unicode="&#x26;" horiz-adv-x="661" 
d="M552 -16l-80 89q-40 -44 -91 -65t-116 -21q-101 0 -157 47t-56 133q0 52 22.5 92t72.5 78l53 41l-31 34q-37 42 -52 76.5t-15 75.5q0 84 52 128.5t148 44.5q94 0 145.5 -42t51.5 -119q0 -49 -26 -89.5t-89 -89.5l-32 -24l109 -123l56 125h113l-84 -185q-10 -19 -11 -23
l99 -111zM288 445l34 26q40 31 53.5 50t13.5 44q0 71 -86 71q-85 0 -85 -71q0 -25 12.5 -48t48.5 -63zM404 149l-140 156l-35 -27q-30 -23 -42 -44.5t-12 -50.5q0 -89 104 -89q77 0 125 55z" />
    <glyph glyph-name="quotesingle" unicode="'" horiz-adv-x="232" 
d="M59 724h113l-19 -260h-74z" />
    <glyph glyph-name="parenleft" unicode="(" horiz-adv-x="332" 
d="M90.5 97q-41.5 118 -41.5 244t41.5 245t122.5 224l81 -61q-131 -173 -131 -407t131 -407l-81 -61q-81 105 -122.5 223z" />
    <glyph glyph-name="parenright" unicode=")" horiz-adv-x="332" 
d="M38 -65q131 173 131 407t-131 407l82 61q81 -105 122 -223.5t41 -245.5q0 -126 -41 -244t-122 -223z" />
    <glyph glyph-name="asterisk" unicode="*" horiz-adv-x="539" 
d="M334 487l99 -123l-78 -62l-86 133l-85 -133l-78 62l99 123l-152 40l32 96l144 -57l-10 158h100l-10 -158l144 57l32 -96z" />
    <glyph glyph-name="plus" unicode="+" horiz-adv-x="576" 
d="M531 316h-189v-207h-108v207h-189v105h189v206h108v-206h189v-105z" />
    <glyph glyph-name="comma" unicode="," horiz-adv-x="244" 
d="M2 -132q39 42 55 82t16 96q0 32 -5 74h116q6 -34 6 -72q0 -70 -33 -125t-105 -108z" />
    <glyph glyph-name="hyphen" unicode="-" horiz-adv-x="410" 
d="M44 346h322v-93h-322v93z" />
    <glyph glyph-name="period" unicode="." horiz-adv-x="260" 
d="M74 6.5q-20 19.5 -20 53.5q0 35 20 54t56 19t55.5 -19.5t19.5 -52.5q0 -35 -19.5 -54.5t-55.5 -19.5t-56 19.5z" />
    <glyph glyph-name="slash" unicode="/" horiz-adv-x="451" 
d="M341 746h98l-324 -832h-98z" />
    <glyph glyph-name="zero" unicode="0" horiz-adv-x="565" 
d="M95.5 77.5q-61.5 90.5 -61.5 284.5t61 284.5t187 90.5q127 0 188 -90.5t61 -284.5t-61 -284.5t-187 -90.5t-187.5 90.5zM379.5 157.5q30.5 64.5 30.5 204.5t-30.5 204.5t-97.5 64.5q-66 0 -96 -64.5t-30 -204.5q0 -141 30 -205t97 -64q66 0 96.5 64.5z" />
    <glyph glyph-name="one" unicode="1" horiz-adv-x="565" 
d="M401 724v-724h-119v603l-168 -56l-34 97l218 80h103z" />
    <glyph glyph-name="two" unicode="2" horiz-adv-x="565" 
d="M497 104v-104h-450v104l243 281q46 54 64 86t18 62q0 44 -29.5 69.5t-82.5 25.5q-40 0 -83.5 -14t-81.5 -40l-54 90q44 33 106.5 53t123.5 20q66 0 116 -24.5t77.5 -69t27.5 -102.5q0 -52 -26 -103t-88 -121l-190 -213h309z" />
    <glyph glyph-name="three" unicode="3" horiz-adv-x="565" 
d="M451.5 377.5q51.5 -59.5 51.5 -150.5q0 -71 -31.5 -125.5t-89.5 -84.5t-134 -30q-60 0 -120.5 18t-100.5 47l44 97q44 -25 90.5 -38.5t86.5 -13.5q63 0 98 34t35 96q0 58 -33.5 91t-92.5 33q-30 0 -64 -8l-46 60l205 217h-306v104h436v-104l-167 -172q87 -11 138.5 -70.5
z" />
    <glyph glyph-name="four" unicode="4" horiz-adv-x="565" 
d="M541 245v-102h-87v-143h-116v143h-315v102l264 479h167v-479h87zM338 245v372l-192 -372h192z" />
    <glyph glyph-name="five" unicode="5" horiz-adv-x="565" 
d="M395 437q52 -29 80.5 -81.5t28.5 -121.5q0 -74 -32 -130t-90.5 -86.5t-135.5 -30.5q-58 0 -114.5 16.5t-93.5 44.5l45 96q40 -23 83 -35.5t80 -12.5q64 0 100 36t36 99q0 60 -33 94t-91 34q-60 0 -115 -29l-72 40l19 354h381v-104h-275l-14 -168q44 14 92 14
q69 0 121 -29z" />
    <glyph glyph-name="six" unicode="6" horiz-adv-x="565" 
d="M423 433q49 -29 75.5 -81.5t26.5 -121.5q0 -72 -30 -127.5t-84.5 -85.5t-126.5 -30q-73 0 -128.5 31t-86 88t-30.5 132q0 84 31 157t107 164l147 178l94 -72l-150 -170q-8 -8 -22 -26l-16 -19q43 12 80 12q64 0 113 -29zM373 127q32 36 32 100q0 66 -34 103t-94 37
q-48 0 -95 -21q-24 -46 -24 -107q0 -70 33.5 -109t93.5 -39q56 0 88 36z" />
    <glyph glyph-name="seven" unicode="7" horiz-adv-x="565" 
d="M513 724v-104l-280 -630l-112 46l268 584h-334v104h458z" />
    <glyph glyph-name="eight" unicode="8" horiz-adv-x="565" 
d="M151.5 12q-56.5 25 -87 71t-30.5 106q0 61 40.5 112t107.5 76q-55 19 -88 66.5t-33 105.5q0 56 27.5 98.5t77.5 66t117 23.5q66 0 116.5 -23.5t78.5 -66t28 -98.5q0 -58 -33.5 -104t-89.5 -65q68 -20 108.5 -71.5t40.5 -117.5q0 -61 -31 -107t-87.5 -71.5t-130.5 -25.5
q-75 0 -131.5 25zM361.5 468.5q26.5 30.5 26.5 69.5q0 46 -28 72.5t-77 26.5t-77 -26.5t-28 -72.5q0 -38 29 -68.5t81 -47.5q47 16 73.5 46.5zM379 117.5q35 29.5 35 79.5q0 42 -36 78.5t-99 59.5q-60 -20 -93 -56t-33 -81q0 -51 34.5 -80.5t95.5 -29.5t96 29.5z" />
    <glyph glyph-name="nine" unicode="9" horiz-adv-x="565" 
d="M416.5 706q55.5 -31 85.5 -88t30 -132q0 -84 -31 -157t-107 -164l-147 -178l-93 72l149 170q26 30 37 45q-41 -12 -79 -12q-64 0 -113 29t-75.5 81.5t-26.5 121.5q0 72 30 127.5t84.5 85.5t126.5 30q74 0 129.5 -31zM200 394q34 -37 94 -37q49 0 95 21q11 22 17.5 50.5
t6.5 56.5q0 70 -33.5 109t-92.5 39q-57 0 -89 -36t-32 -100q0 -66 34 -103z" />
    <glyph glyph-name="colon" unicode=":" horiz-adv-x="300" 
d="M94 342.5q-20 19.5 -20 53.5q0 35 20 54t56 19t55.5 -19.5t19.5 -52.5q0 -35 -19.5 -54.5t-55.5 -19.5t-56 19.5zM94 6.5q-20 19.5 -20 53.5q0 35 20 54t56 19t55.5 -19.5t19.5 -52.5q0 -35 -19.5 -54.5t-55.5 -19.5t-56 19.5z" />
    <glyph glyph-name="semicolon" unicode=";" horiz-adv-x="300" 
d="M94 342.5q-20 19.5 -20 53.5q0 35 20 54t56 19t55.5 -19.5t19.5 -52.5q0 -35 -19.5 -54.5t-55.5 -19.5t-56 19.5zM27 -132q39 42 55 82t16 96q0 32 -5 74h116q6 -34 6 -72q0 -70 -33 -125t-105 -108z" />
    <glyph glyph-name="less" unicode="&#x3c;" horiz-adv-x="424" 
d="M34 365l269 299l86 -80l-201 -219l201 -219l-86 -80z" />
    <glyph glyph-name="equal" unicode="=" horiz-adv-x="576" 
d="M68 535h440v-106h-440v106zM68 300h440v-106h-440v106z" />
    <glyph glyph-name="greater" unicode="&#x3e;" horiz-adv-x="424" 
d="M34 146l202 219l-202 219l86 80l269 -299l-269 -299z" />
    <glyph glyph-name="question" unicode="?" horiz-adv-x="519" 
d="M173 264q0 60 21.5 98.5t79.5 84.5q41 33 55.5 53.5t14.5 46.5q0 79 -97 79q-74 0 -158 -50l-47 97q44 31 100 47.5t115 16.5q100 0 155 -49t55 -137q0 -50 -22 -86t-80 -80q-50 -39 -67 -64t-17 -60q0 -15 3 -50h-108q-3 38 -3 53zM175 14q-20 20 -20 53q0 35 20 54
t56 19q35 0 55 -19.5t20 -52.5q0 -35 -20 -54.5t-55 -19.5q-36 0 -56 20z" />
    <glyph glyph-name="at" unicode="@" horiz-adv-x="810" 
d="M544 513v-202q0 -58 46 -58q37 0 57.5 38t20.5 107q0 125 -67.5 194t-189.5 69q-123 0 -191.5 -78.5t-68.5 -220.5q0 -143 71 -222t199 -79q88 0 156 38l33 -71q-34 -23 -83.5 -35.5t-105.5 -12.5q-110 0 -191 47.5t-124.5 134t-43.5 200.5t43.5 200.5t122.5 134
t183 47.5q102 0 179.5 -43t120 -121.5t42.5 -181.5q0 -99 -42.5 -158.5t-112.5 -59.5q-58 0 -86 40q-33 -45 -102 -45q-73 0 -113.5 49.5t-40.5 138.5t44 137.5t124 48.5q69 0 120 -36zM463 467q-20 7 -42 7q-82 0 -82 -111q0 -113 81 -113q22 0 43 10v207z" />
    <glyph glyph-name="A" unicode="A" horiz-adv-x="669" 
d="M470 167h-273l-52 -167h-125l249 724h131l249 -724h-127zM437 272l-104 336l-104 -336h208z" />
    <glyph glyph-name="B" unicode="B" horiz-adv-x="647" 
d="M604 214q0 -102 -61 -158t-171 -56h-289v724h256q107 0 165.5 -53.5t58.5 -150.5q0 -104 -94 -138q135 -39 135 -168zM203 618v-196h136q102 0 102 96q0 100 -109 100h-129zM481 212q0 107 -109 107h-169v-213h176q102 0 102 106z" />
    <glyph glyph-name="C" unicode="C" horiz-adv-x="602" 
d="M129 82.5q-87 94.5 -87 264.5q0 119 39.5 207t113 135.5t173.5 47.5q54 0 105.5 -14.5t91.5 -40.5l-41 -92q-79 39 -158 39q-95 0 -147.5 -71.5t-52.5 -201.5q0 -128 53.5 -193t159.5 -65q90 0 151 35l41 -91q-32 -25 -84.5 -39.5t-113.5 -14.5q-157 0 -244 94.5z" />
    <glyph glyph-name="D" unicode="D" horiz-adv-x="692" 
d="M555 633q84 -91 84 -270q0 -180 -84.5 -271.5t-244.5 -91.5h-227v724h228q160 0 244 -91zM515 363q0 254 -207 254h-105v-510h105q207 0 207 256z" />
    <glyph glyph-name="E" unicode="E" horiz-adv-x="577" 
d="M542 107v-107h-459v724h446v-107h-326v-193h241v-108h-241v-209h339z" />
    <glyph glyph-name="F" unicode="F" horiz-adv-x="539" 
d="M203 617v-211h259v-108h-259v-298h-120v724h438v-107h-318z" />
    <glyph glyph-name="G" unicode="G" horiz-adv-x="668" 
d="M604 405v-362q-40 -27 -97 -41.5t-119 -14.5q-160 0 -248 98.5t-88 276.5t88 276.5t248 98.5q61 0 115 -14t92 -40l-36 -96q-92 43 -173 43q-210 0 -210 -268t212 -268q47 0 96 13v191h-123v107h243z" />
    <glyph glyph-name="H" unicode="H" horiz-adv-x="703" 
d="M619 724v-724h-120v314h-296v-314h-120v724h120v-303h296v303h120z" />
    <glyph glyph-name="I" unicode="I" horiz-adv-x="291" 
d="M85 724h120v-724h-120v724z" />
    <glyph glyph-name="J" unicode="J" horiz-adv-x="466" 
d="M79 1q-45 14 -76 39l43 92q65 -37 124 -37q98 0 98 97v532h120v-539q0 -94 -56 -146t-157 -52q-51 0 -96 14z" />
    <glyph glyph-name="K" unicode="K" horiz-adv-x="631" 
d="M287 312l-84 -102v-210h-120v724h120v-361l278 361h142l-260 -319l276 -405h-143z" />
    <glyph glyph-name="L" unicode="L" horiz-adv-x="530" 
d="M504 108v-108h-421v724h120v-616h301z" />
    <glyph glyph-name="M" unicode="M" horiz-adv-x="851" 
d="M768 724v-724h-117v533l-163 -389h-126l-164 390v-534h-115v724h145l198 -470l196 470h146z" />
    <glyph glyph-name="N" unicode="N" horiz-adv-x="725" 
d="M641 724v-724h-115l-325 521v-521h-118v724h116l324 -520v520h118z" />
    <glyph glyph-name="O" unicode="O" horiz-adv-x="715" 
d="M130.5 81.5q-78.5 94.5 -78.5 280.5t78.5 280.5t226.5 94.5t226.5 -94.5t78.5 -280.5t-78.5 -280.5t-226.5 -94.5t-226.5 94.5zM538 362q0 268 -181 268t-181 -268t181 -268t181 268z" />
    <glyph glyph-name="P" unicode="P" horiz-adv-x="598" 
d="M521 660.5q62 -63.5 62 -179.5q0 -117 -63.5 -181t-179.5 -64h-137v-236h-120v724h263q113 0 175 -63.5zM459 479q0 138 -119 138h-137v-274h143q113 0 113 136z" />
    <glyph glyph-name="Q" unicode="Q" horiz-adv-x="715" 
d="M597 -162l-139 162q-43 -13 -101 -13q-148 0 -226.5 94.5t-78.5 280.5t78.5 280.5t226.5 94.5t226.5 -94.5t78.5 -280.5q0 -222 -111 -313l124 -133zM357 94q181 0 181 268t-181 268t-181 -268t181 -268z" />
    <glyph glyph-name="R" unicode="R" horiz-adv-x="634" 
d="M308 259h-105v-259h-120v724h254q112 0 173.5 -61t61.5 -171q0 -84 -36 -140t-105 -79l183 -273h-144zM203 362h134q111 0 111 128t-115 128h-130v-256z" />
    <glyph glyph-name="S" unicode="S" horiz-adv-x="563" 
d="M141.5 4.5q-61.5 16.5 -108.5 47.5l40 95q96 -55 195 -55q67 0 101.5 25.5t34.5 73.5q0 40 -25 65.5t-79 40.5l-82 23q-93 25 -134.5 73t-41.5 128q0 101 63 158t176 57q54 0 112 -12.5t108 -35.5l-40 -96q-105 40 -183 40q-59 0 -89.5 -23.5t-30.5 -67.5q0 -41 24.5 -66
t78.5 -40l82 -23q93 -25 134.5 -73t41.5 -129q0 -105 -66 -163.5t-185 -58.5q-65 0 -126.5 16.5z" />
    <glyph glyph-name="T" unicode="T" horiz-adv-x="529" 
d="M508 616h-184v-616h-120v616h-184v108h488v-108z" />
    <glyph glyph-name="U" unicode="U" horiz-adv-x="687" 
d="M147.5 56q-69.5 69 -69.5 195v473h120v-466q0 -164 145 -164t145 164v466h120v-473q0 -126 -69.5 -195t-196.5 -69q-125 0 -194.5 69z" />
    <glyph glyph-name="V" unicode="V" horiz-adv-x="633" 
d="M609 724l-227 -724h-131l-227 724h126l168 -598l165 598h126z" />
    <glyph glyph-name="W" unicode="W" horiz-adv-x="897" 
d="M871 724l-176 -724h-131l-117 560l-115 -560h-132l-174 724h124l117 -585l117 584h129l118 -584l117 585h123z" />
    <glyph glyph-name="X" unicode="X" horiz-adv-x="609" 
d="M453 0l-151 268l-148 -268h-133l217 367l-210 357h136l143 -258l146 258h133l-215 -357l217 -367h-135z" />
    <glyph glyph-name="Y" unicode="Y" horiz-adv-x="589" 
d="M573 724l-220 -479v-245h-120v245l-217 479h128l151 -349l150 349h128z" />
    <glyph glyph-name="Z" unicode="Z" horiz-adv-x="554" 
d="M515 105v-105h-478v106l337 513h-324v105h459v-105l-337 -514h343z" />
    <glyph glyph-name="bracketleft" unicode="[" horiz-adv-x="355" 
d="M192 705v-726h142v-91h-251v908h251v-91h-142z" />
    <glyph glyph-name="backslash" unicode="\" horiz-adv-x="451" 
d="M336 -86l-324 832h99l323 -832h-98z" />
    <glyph glyph-name="bracketright" unicode="]" horiz-adv-x="355" 
d="M272 796v-908h-251v91h142v726h-142v91h251z" />
    <glyph glyph-name="asciicircum" unicode="^" horiz-adv-x="438" 
d="M167 724h104l155 -215h-114l-92 140l-94 -140h-114z" />
    <glyph glyph-name="underscore" unicode="_" horiz-adv-x="599" 
d="M83 -62h433v-98h-433v98z" />
    <glyph glyph-name="grave" unicode="`" horiz-adv-x="500" 
d="M107 774v10h125l89 -159v-10h-90z" />
    <glyph glyph-name="a" unicode="a" horiz-adv-x="533" 
d="M408 510q54 -46 54 -131v-379h-105v76q-52 -87 -162 -87q-78 0 -121 42.5t-43 119.5q0 98 75.5 143.5t239.5 46.5v25q0 84 -109 84q-64 0 -127 -28l-30 92q89 42 177 42q97 0 151 -46zM346 146v114q-105 -1 -153.5 -25t-48.5 -74q0 -72 80 -72q70 0 122 57z" />
    <glyph glyph-name="b" unicode="b" horiz-adv-x="578" 
d="M483 481.5q52 -74.5 52 -210.5q0 -135 -53 -209.5t-148 -74.5q-48 0 -86.5 19.5t-62.5 55.5v-62h-107v770h118v-286q51 72 141 72q94 0 146 -74.5zM414 267q0 179 -114 179q-30 0 -55 -12.5t-49 -40.5v-249q21 -24 49.5 -37.5t59.5 -13.5q109 0 109 174z" />
    <glyph glyph-name="c" unicode="c" horiz-adv-x="481" 
d="M107 61q-67 73 -67 205q0 87 31 152.5t87.5 101.5t131.5 36q44 0 86.5 -12.5t74.5 -35.5l-42 -92q-68 32 -121 32q-60 0 -93.5 -46t-33.5 -129q0 -177 140 -177q57 0 116 31l40 -91q-63 -48 -162 -48q-121 0 -188 73z" />
    <glyph glyph-name="d" unicode="d" horiz-adv-x="578" 
d="M393 0v77q-52 -90 -152 -90q-94 0 -145.5 74.5t-51.5 209.5t52.5 210t148.5 75q42 0 77.5 -16t60.5 -45v275h118v-770h-108zM333 109.5q25 12.5 50 38.5v251q-21 24 -49.5 37t-59.5 13q-109 0 -109 -174q0 -178 113 -178q30 0 55 12.5z" />
    <glyph glyph-name="e" unicode="e" horiz-adv-x="543" 
d="M500 235h-339q15 -140 146 -140q70 0 133 34l43 -88q-37 -25 -86.5 -39t-101.5 -14q-121 0 -187 74.5t-66 208.5q0 136 61.5 210.5t173.5 74.5q109 0 168.5 -68.5t59.5 -193.5q0 -38 -5 -59zM161 317h227q-2 65 -31.5 100t-81.5 35q-99 0 -114 -135z" />
    <glyph glyph-name="f" unicode="f" horiz-adv-x="367" 
d="M95 441h-86v102h86v49q0 92 55 142t155 50q32 0 57 -5v-103q-27 4 -57 4q-92 0 -92 -88v-49h130v-102h-130v-441h-118v441z" />
    <glyph glyph-name="g" unicode="g" horiz-adv-x="581" 
d="M503 543v-527q0 -112 -64.5 -174t-180.5 -62q-47 0 -92 10t-80 29l33 94q65 -28 127 -28q139 0 139 130v74q-51 -72 -142 -72q-95 0 -147 70.5t-52 198.5t53 199t150 71q47 0 85.5 -20t63.5 -56v63h107zM335 139q25 12 50 39v220q-21 25 -49.5 38t-59.5 13
q-111 0 -111 -159q0 -163 115 -163q30 0 55 12z" />
    <glyph glyph-name="h" unicode="h" horiz-adv-x="587" 
d="M471.5 509.5q42.5 -46.5 42.5 -130.5v-379h-118v363q0 83 -89 83q-31 0 -57.5 -10.5t-53.5 -32.5v-403h-118v770h118v-282q63 68 155 68q78 0 120.5 -46.5z" />
    <glyph glyph-name="i" unicode="i" horiz-adv-x="278" 
d="M80 543h118v-543h-118v543zM85.5 640q-19.5 19 -19.5 51q0 34 19 52.5t54 18.5q34 0 53.5 -19t19.5 -51q0 -34 -19 -52.5t-54 -18.5q-34 0 -53.5 19z" />
    <glyph glyph-name="j" unicode="j" horiz-adv-x="278" 
d="M-61 -125q58 20 87.5 40.5t41.5 50.5t12 80v497h118v-500q0 -76 -19.5 -124t-66.5 -80.5t-134 -60.5zM85.5 640q-19.5 19 -19.5 51q0 34 19 52.5t54 18.5q34 0 53.5 -19t19.5 -51q0 -34 -19 -52.5t-54 -18.5q-34 0 -53.5 19z" />
    <glyph glyph-name="k" unicode="k" horiz-adv-x="557" 
d="M259 226l-63 -73v-153h-118v770h118v-469l199 242h136l-197 -229l211 -314h-136z" />
    <glyph glyph-name="l" unicode="l" horiz-adv-x="319" 
d="M76 130v640h118v-617q0 -29 12 -42t38 -13q17 0 36 4l8 -100q-36 -9 -75 -9q-137 0 -137 137z" />
    <glyph glyph-name="m" unicode="m" horiz-adv-x="885" 
d="M770.5 509.5q41.5 -46.5 41.5 -130.5v-379h-118v363q0 83 -83 83q-28 0 -53.5 -10.5t-53.5 -33.5q1 -7 1 -23v-379h-118v363q0 83 -84 83q-29 0 -54 -10.5t-53 -32.5v-403h-118v543h107v-67q66 80 162 80q51 0 87.5 -22t54.5 -64q69 86 166 86q74 0 115.5 -46.5z" />
    <glyph glyph-name="n" unicode="n" horiz-adv-x="585" 
d="M469.5 509.5q42.5 -46.5 42.5 -130.5v-379h-118v363q0 83 -88 83q-30 0 -56.5 -10.5t-53.5 -32.5v-403h-118v543h107v-67q66 80 165 80q77 0 119.5 -46.5z" />
    <glyph glyph-name="o" unicode="o" horiz-adv-x="560" 
d="M105 59q-61 72 -61 212t61.5 212.5t175.5 72.5t174.5 -72.5t60.5 -212.5t-61 -212t-175 -72t-175 72zM395 271q0 179 -114 179q-116 0 -116 -179t115 -179t115 179z" />
    <glyph glyph-name="p" unicode="p" horiz-adv-x="578" 
d="M483 481.5q52 -74.5 52 -210.5q0 -135 -53 -209.5t-148 -74.5q-43 0 -78.5 15.5t-59.5 44.5v-254h-118v750h107v-76q53 89 152 89q94 0 146 -74.5zM414 267q0 179 -114 179q-30 0 -55 -12.5t-49 -40.5v-249q21 -24 49.5 -37.5t59.5 -13.5q109 0 109 174z" />
    <glyph glyph-name="q" unicode="q" horiz-adv-x="578" 
d="M383 -207v267q-52 -73 -142 -73q-94 0 -145.5 74.5t-51.5 209.5t52.5 210t148.5 75q47 0 85.5 -20t62.5 -56v63h108v-750h-118zM333 109.5q25 12.5 50 38.5v250q-21 25 -49 38t-60 13q-109 0 -109 -174q0 -178 113 -178q30 0 55 12.5z" />
    <glyph glyph-name="r" unicode="r" horiz-adv-x="403" 
d="M389 541l-23 -111q-32 9 -65 9q-36 0 -61 -13t-44 -42v-384h-118v543h107v-84q50 95 142 95q35 0 62 -13z" />
    <glyph glyph-name="s" unicode="s" horiz-adv-x="468" 
d="M116 2q-52 14 -90 39l41 96q74 -45 156 -45q96 0 96 60q0 25 -16.5 39.5t-53.5 23.5l-71 17q-75 18 -109.5 54.5t-34.5 98.5q0 80 53 125t148 45q48 0 96 -12t87 -33l-44 -95q-72 36 -141 36q-85 0 -85 -55q0 -22 16.5 -36.5t53.5 -23.5l71 -17q75 -18 109.5 -55
t34.5 -101q0 -83 -55 -129t-155 -46q-55 0 -107 14z" />
    <glyph glyph-name="t" unicode="t" horiz-adv-x="397" 
d="M99 166v275h-85v102h86v150h117v-150h152v-102h-152v-254q0 -46 20 -67.5t63 -21.5q27 0 57 8l19 -100q-47 -14 -95 -14q-182 0 -182 174z" />
    <glyph glyph-name="u" unicode="u" horiz-adv-x="577" 
d="M499 543v-543h-107v74q-60 -87 -162 -87q-76 0 -117.5 46t-41.5 130v380h118v-364q0 -82 85 -82q31 0 56.5 12t50.5 38v396h118z" />
    <glyph glyph-name="v" unicode="v" horiz-adv-x="524" 
d="M505 543l-179 -543h-127l-180 543h121l124 -425l122 425h119z" />
    <glyph glyph-name="w" unicode="w" horiz-adv-x="787" 
d="M766 543l-151 -543h-127l-95 399l-93 -399h-128l-151 543h120l96 -421l97 421h120l99 -421l95 421h118z" />
    <glyph glyph-name="x" unicode="x" horiz-adv-x="511" 
d="M363 0l-110 185l-107 -185h-128l174 276l-166 267h130l102 -175l105 175h128l-172 -266l174 -277h-130z" />
    <glyph glyph-name="y" unicode="y" horiz-adv-x="520" 
d="M501 543l-171 -522q-29 -90 -93.5 -148t-174.5 -93l-40 100q70 25 111.5 52.5t66.5 66.5l-181 544h121l122 -417l120 417h119z" />
    <glyph glyph-name="z" unicode="z" horiz-adv-x="469" 
d="M435 100v-100h-402v100l264 343h-255v100h387v-100l-264 -343h270z" />
    <glyph glyph-name="braceleft" unicode="{" horiz-adv-x="378" 
d="M206.5 -80q-43.5 27 -62.5 71t-19 117v109q0 40 -27.5 59t-84.5 20v92q57 1 84.5 20t27.5 59v110q0 72 19 116t62.5 71t123.5 45l25 -88q-50 -11 -75.5 -27t-36 -43t-10.5 -74v-110q0 -102 -85 -124q85 -24 85 -126v-109q0 -47 10.5 -74.5t36 -43.5t75.5 -27l-25 -88
q-80 18 -123.5 45z" />
    <glyph glyph-name="bar" unicode="|" horiz-adv-x="256" 
d="M83 816h89v-1066h-89v1066z" />
    <glyph glyph-name="braceright" unicode="}" horiz-adv-x="378" 
d="M23 -37q50 11 75.5 27t36 43.5t10.5 74.5v109q0 102 85 126q-85 22 -85 124v110q0 47 -10.5 74t-36 43t-75.5 27l25 88q79 -18 123 -45t62.5 -71t18.5 -116v-110q0 -40 27.5 -59t84.5 -20v-92q-57 -1 -84.5 -20t-27.5 -59v-109q0 -73 -18.5 -117t-62.5 -71t-123 -45z" />
    <glyph glyph-name="asciitilde" unicode="~" horiz-adv-x="576" 
d="M325 286.5q-21 8.5 -46 24.5q-22 14 -37.5 21t-35.5 7q-24 0 -45.5 -13.5t-46.5 -42.5l-69 71q73 90 157 90q29 0 49 -8.5t47 -24.5q22 -14 37.5 -21t35.5 -7q24 0 45.5 13t45.5 43l69 -71q-73 -90 -157 -90q-28 0 -49 8.5z" />
    <glyph glyph-name="uni00A0" unicode="&#xa0;" horiz-adv-x="216" 
 />
    <glyph glyph-name="exclamdown" unicode="&#xa1;" horiz-adv-x="358" 
d="M235 527.5q20 -19.5 20 -53.5q0 -35 -20 -54t-56 -19t-56 19.5t-20 52.5q0 35 20 54.5t56 19.5t56 -19.5zM246 -190h-131l17 512h94z" />
    <glyph glyph-name="cent" unicode="&#xa2;" horiz-adv-x="484" 
d="M324 27v-112h-82v115q-97 14 -149.5 79.5t-52.5 173.5q0 104 54.5 172t147.5 82v115h82v-113q72 -8 122 -42l-41 -88q-44 20 -81 26v-304q47 5 89 27l39 -86q-52 -37 -128 -45zM178 186.5q21 -36.5 64 -49.5v296q-85 -24 -85 -148q0 -62 21 -98.5z" />
    <glyph glyph-name="sterling" unicode="&#xa3;" horiz-adv-x="533" 
d="M244 201.5q-24 -50.5 -76 -96.5h315v-105h-427v105l31 31q36 37 51.5 74.5t15.5 86.5v17h-107v100h81q-4 9 -15 34t-17 50.5t-6 53.5q0 88 54.5 136.5t152.5 48.5q57 0 106 -16.5t82 -46.5l-58 -96q-63 48 -130 48q-88 0 -88 -81q0 -21 6 -41.5t19 -50.5l15 -39h170v-100
h-151v-3q0 -59 -24 -109.5z" />
    <glyph glyph-name="currency" unicode="&#xa4;" horiz-adv-x="595" 
d="M482 141l69 -86l-65 -51l-68 84q-50 -26 -121 -26q-70 0 -120 26l-69 -84l-64 51l68 86q-50 66 -50 172q0 105 50 171l-68 86l64 51l68 -84q52 26 121 26q71 0 121 -26l68 84l65 -51l-69 -86q50 -64 50 -171q0 -108 -50 -172zM416 313q0 146 -119 146q-118 0 -118 -146
q0 -147 118 -147q119 0 119 147z" />
    <glyph glyph-name="yen" unicode="&#xa5;" horiz-adv-x="535" 
d="M359 338h103v-80h-137v-70h137v-80h-137v-108h-118v108h-137v80h137v70h-137v80h104l-162 386h126l132 -360l127 360h126z" />
    <glyph glyph-name="brokenbar" unicode="&#xa6;" horiz-adv-x="256" 
d="M83 816h89v-447h-89v447zM83 198h89v-448h-89v448z" />
    <glyph glyph-name="section" unicode="&#xa7;" horiz-adv-x="534" 
d="M475 -15q0 -94 -55 -146t-155 -52q-51 0 -106 13.5t-102 38.5l41 99q99 -47 167 -47q96 0 96 87q0 35 -18 55.5t-64 33.5l-62 18q-83 22 -121.5 66t-38.5 116q0 83 51 143q-45 45 -45 125q0 95 56 148t159 53q45 0 92.5 -10.5t88.5 -29.5l-42 -96q-84 32 -141 32
q-50 0 -74.5 -22t-24.5 -67q0 -36 18.5 -56t62.5 -33l62 -17q81 -23 119 -66.5t38 -116.5q0 -83 -49 -141q47 -47 47 -128zM321 168q13 -3 25 -8q23 33 23 75q0 40 -21 63t-71 37l-62 18l-27 9q-23 -33 -23 -74q0 -40 21.5 -63t72.5 -39z" />
    <glyph glyph-name="dieresis" unicode="&#xa8;" horiz-adv-x="500" 
d="M105.5 635.5q-17.5 17.5 -17.5 47.5q0 32 17.5 49t48.5 17t48.5 -17.5t17.5 -47.5q0 -31 -17.5 -48.5t-48.5 -17.5t-48.5 17.5zM297.5 635.5q-17.5 17.5 -17.5 47.5q0 31 17.5 48.5t48.5 17.5t48.5 -17.5t17.5 -47.5q0 -31 -17 -48.5t-49 -17.5q-31 0 -48.5 17.5z" />
    <glyph glyph-name="copyright" unicode="&#xa9;" horiz-adv-x="835" 
d="M238 31.5q-76 44.5 -117 128.5t-41 202t41 202t117 128.5t180 44.5q103 0 179 -44.5t117 -128.5t41 -202t-41 -202t-117 -128.5t-179 -44.5q-104 0 -180 44.5zM611.5 138q68.5 79 68.5 224t-68.5 224t-193.5 79q-126 0 -194.5 -79t-68.5 -224t68.5 -224t194.5 -79
q125 0 193.5 79zM312 225.5q-43 47.5 -43 133.5q0 89 42 138t119 49q64 0 108 -30l-32 -66q-46 20 -77 20q-76 0 -76 -107q0 -109 84 -109q36 0 76 20l28 -65q-19 -14 -47.5 -22.5t-60.5 -8.5q-78 0 -121 47.5z" />
    <glyph glyph-name="ordfeminine" unicode="&#xaa;" horiz-adv-x="517" 
d="M381.5 696q44.5 -34 44.5 -96v-276q-37 -18 -84.5 -28t-96.5 -10q-88 0 -136 35.5t-48 99.5q0 75 62.5 108.5t202.5 32.5v19q0 59 -85 59q-56 0 -116 -23l-27 77q36 18 77.5 27t81.5 9q80 0 124.5 -34zM245 371q52 0 81 11v112q-87 1 -126 -15.5t-39 -53.5q0 -54 84 -54z
M89 194h328v-83h-328v83z" />
    <glyph glyph-name="guillemotleft" unicode="&#xab;" horiz-adv-x="599" 
d="M399 291l173 -199l-73 -69l-230 266l231 267l72 -69zM154 291l173 -199l-73 -69l-230 266l231 267l72 -69z" />
    <glyph glyph-name="logicalnot" unicode="&#xac;" horiz-adv-x="576" 
d="M517 505v-276h-108v170h-350v106h458z" />
    <glyph glyph-name="uni00AD" unicode="&#xad;" horiz-adv-x="410" 
d="M44 346h322v-93h-322v93z" />
    <glyph glyph-name="registered" unicode="&#xae;" horiz-adv-x="835" 
d="M597 692.5q76 -44.5 117 -128.5t41 -202t-41 -202t-117 -128.5t-179 -44.5q-104 0 -180 44.5t-117 128.5t-41 202t41 202t117 128.5t180 44.5q103 0 179 -44.5zM611.5 138q68.5 79 68.5 224t-68.5 224t-193.5 79q-126 0 -194.5 -79t-68.5 -224t68.5 -224t194.5 -79
q125 0 193.5 79zM532.5 350.5q-14.5 -27.5 -41.5 -41.5l71 -125h-88l-58 110h-41v-110h-76v356h127q58 0 89.5 -32t31.5 -91q0 -39 -14.5 -66.5zM375 360h48q44 0 44 55q0 56 -46 56h-46v-111z" />
    <glyph glyph-name="macron" unicode="&#xaf;" horiz-adv-x="500" 
d="M92 725h316v-87h-316v87z" />
    <glyph glyph-name="degree" unicode="&#xb0;" horiz-adv-x="453" 
d="M131 391q-42 23 -65 65t-23 96t23 96t65 65t96 23q82 0 132.5 -51t50.5 -133t-50.5 -133t-132.5 -51q-54 0 -96 23zM287 488.5q23 24.5 23 63.5t-23 63.5t-60 24.5t-60.5 -24.5t-23.5 -63.5t23.5 -63.5t60.5 -24.5t60 24.5z" />
    <glyph glyph-name="plusminus" unicode="&#xb1;" horiz-adv-x="576" 
d="M531 509v-104h-189v-180h-108v180h-189v104h189v180h108v-180h189zM45 167h486v-103h-486v103z" />
    <glyph glyph-name="uni00B2" unicode="&#xb2;" horiz-adv-x="380" 
d="M335 405v-81h-309v81l157 156q29 29 39 44.5t10 34.5q0 51 -58 51q-54 0 -113 -40l-42 71q77 55 164 55q70 0 108 -34t38 -96q0 -37 -16.5 -67t-61.5 -73l-106 -102h190z" />
    <glyph glyph-name="uni00B3" unicode="&#xb3;" horiz-adv-x="404" 
d="M319 555.5q31 -34.5 31 -91.5q0 -70 -46.5 -108.5t-132.5 -38.5q-87 0 -152 44l34 75q63 -33 118 -33q80 0 80 63q0 59 -74 59q-26 0 -50 -6l-36 49l128 122h-185v80h298v-81l-103 -90q59 -9 90 -43.5z" />
    <glyph glyph-name="acute" unicode="&#xb4;" horiz-adv-x="500" 
d="M183 625l97 159h125v-10l-132 -159h-90v10z" />
    <glyph glyph-name="uni00B5" unicode="&#xb5;" horiz-adv-x="589" 
d="M511 543v-543h-107v74q-54 -81 -147 -81q-38 0 -61 13v-213h-118v750h118v-362q0 -42 22.5 -63.5t64.5 -21.5q33 0 59.5 12.5t50.5 38.5v396h118z" />
    <glyph glyph-name="paragraph" unicode="&#xb6;" horiz-adv-x="575" 
d="M491 0h-87v642h-74v-642h-84v310q-107 2 -165.5 56t-58.5 150q0 99 62.5 153.5t175.5 54.5h231v-724z" />
    <glyph glyph-name="periodcentered" unicode="&#xb7;" horiz-adv-x="260" 
d="M74 282.5q-20 19.5 -20 53.5q0 35 20 54t56 19t55.5 -19.5t19.5 -52.5q0 -35 -19.5 -54.5t-55.5 -19.5t-56 19.5z" />
    <glyph glyph-name="cedilla" unicode="&#xb8;" horiz-adv-x="500" 
d="M347 -74q29 -22 29 -62q0 -48 -34.5 -74.5t-97.5 -26.5t-115 25l19 57q51 -17 85 -17q51 0 51 33q0 32 -45 32q-21 0 -41 -7l-27 31l43 103l79 -7l-48 -68q11 3 21 3q52 0 81 -22z" />
    <glyph glyph-name="uni00B9" unicode="&#xb9;" horiz-adv-x="352" 
d="M239 770v-446h-96v352l-97 -34l-26 75l138 53h81z" />
    <glyph glyph-name="ordmasculine" unicode="&#xba;" horiz-adv-x="523" 
d="M115.5 341.5q-51.5 56.5 -51.5 166.5t52 166.5t147 56.5q94 0 145 -56.5t51 -166.5t-51.5 -166.5t-145.5 -56.5q-95 0 -146.5 56.5zM357 508q0 135 -94 135q-97 0 -97 -135q0 -136 96 -136q95 0 95 136zM98 194h328v-83h-328v83z" />
    <glyph glyph-name="guillemotright" unicode="&#xbb;" horiz-adv-x="599" 
d="M330 290l-231 -267l-72 69l173 196l-173 199l73 69zM575 290l-231 -267l-72 69l173 196l-173 199l73 69z" />
    <glyph glyph-name="onequarter" unicode="&#xbc;" horiz-adv-x="929" 
d="M695 702l-409 -724l-77 44l408 724zM143 278v352l-97 -34l-26 75l138 53h81v-446h-96zM905 157v-80h-53v-77h-92v77h-206v80l165 289h133v-289h53zM760 157v206l-108 -206h108z" />
    <glyph glyph-name="onehalf" unicode="&#xbd;" horiz-adv-x="969" 
d="M695 702l-409 -724l-77 44l408 724zM143 278v352l-97 -34l-26 75l138 53h81v-446h-96zM926 81v-81h-309v81l157 156q29 29 39 44.5t10 34.5q0 51 -58 51q-54 0 -113 -40l-42 71q77 55 164 55q70 0 108 -34t38 -96q0 -37 -16.5 -67t-61.5 -73l-106 -102h190z" />
    <glyph glyph-name="threequarters" unicode="&#xbe;" horiz-adv-x="1000" 
d="M765 702l-409 -724l-77 44l408 724zM303.5 309.5q-46.5 -38.5 -132.5 -38.5q-87 0 -152 44l34 75q63 -33 118 -33q80 0 80 63q0 59 -74 59q-26 0 -50 -6l-36 49l129 122h-186v80h298v-81l-103 -91q58 -8 89.5 -43t31.5 -91q0 -70 -46.5 -108.5zM976 157v-80h-53v-77h-92
v77h-206v80l165 289h133v-289h53zM831 157v206l-108 -206h108z" />
    <glyph glyph-name="questiondown" unicode="&#xbf;" horiz-adv-x="469" 
d="M344 520q20 -20 20 -53q0 -35 -20 -54t-56 -19q-35 0 -55 19.5t-20 52.5q0 35 20 54.5t55 19.5q36 0 56 -20zM346 270q0 -60 -21.5 -98.5t-79.5 -84.5q-41 -33 -55 -53.5t-14 -47.5q0 -78 96 -78q74 0 158 50l47 -98q-44 -30 -100.5 -46.5t-114.5 -16.5q-100 0 -155 49
t-55 137q0 50 22 85.5t80 80.5q50 39 67 64t17 60q0 15 -3 49h108q3 -37 3 -52z" />
    <glyph glyph-name="Agrave" unicode="&#xc0;" horiz-adv-x="669" 
d="M312 781l-173 133v12h135l138 -133v-12h-100zM470 167h-273l-52 -167h-125l249 724h131l249 -724h-127zM437 272l-104 336l-104 -336h208z" />
    <glyph glyph-name="Aacute" unicode="&#xc1;" horiz-adv-x="669" 
d="M355 781h-100v12l147 133h135v-12zM470 167h-273l-52 -167h-125l249 724h131l249 -724h-127zM437 272l-104 336l-104 -336h208z" />
    <glyph glyph-name="Acircumflex" unicode="&#xc2;" horiz-adv-x="669" 
d="M245 781h-86v12l117 133h116l117 -133v-12h-89l-88 81zM470 167h-273l-52 -167h-125l249 724h131l249 -724h-127zM437 272l-104 336l-104 -336h208z" />
    <glyph glyph-name="Atilde" unicode="&#xc3;" horiz-adv-x="669" 
d="M222 788h-67q1 68 29.5 106t78.5 38q26 0 45.5 -9.5t45.5 -27.5q17 -13 28 -18.5t23 -5.5q34 0 41 59h67q-1 -68 -29.5 -106t-78.5 -38q-26 0 -45.5 9.5t-45.5 27.5q-17 13 -28 18.5t-23 5.5q-33 0 -41 -59zM470 167h-273l-52 -167h-125l249 724h131l249 -724h-127z
M437 272l-104 336l-104 -336h208z" />
    <glyph glyph-name="Adieresis" unicode="&#xc4;" horiz-adv-x="669" 
d="M184.5 797q-17.5 18 -17.5 48q0 32 17.5 49t48.5 17t48.5 -17.5t17.5 -47.5q0 -32 -17.5 -49.5t-48.5 -17.5t-48.5 18zM387.5 797q-17.5 18 -17.5 48q0 32 17.5 49t48.5 17t48.5 -17.5t17.5 -47.5q0 -32 -17.5 -49.5t-48.5 -17.5t-48.5 18zM470 167h-273l-52 -167h-125
l249 724h131l249 -724h-127zM437 272l-104 336l-104 -336h208z" />
    <glyph glyph-name="Aring" unicode="&#xc5;" horiz-adv-x="669" 
d="M237.5 796.5q-34.5 30.5 -34.5 85.5t34.5 85.5t96.5 30.5t96.5 -30.5t34.5 -85.5t-34.5 -85.5t-96.5 -30.5t-96.5 30.5zM279 882q0 -56 55 -56t55 56t-55 56t-55 -56zM470 167h-273l-52 -167h-125l249 724h131l249 -724h-127zM437 272l-104 336l-104 -336h208z" />
    <glyph glyph-name="AE" unicode="&#xc6;" horiz-adv-x="923" 
d="M889 107v-107h-442v159h-243l-81 -159h-128l377 724h503v-107h-311v-193h227v-108h-227v-209h325zM447 263v372l-189 -372h189z" />
    <glyph glyph-name="Ccedilla" unicode="&#xc7;" horiz-adv-x="602" 
d="M449 -74q29 -22 29 -62q0 -48 -34.5 -74.5t-97.5 -26.5t-115 25l19 57q51 -17 85 -17q51 0 51 33q0 32 -45 32q-21 0 -41 -7l-27 31l32 76q-126 20 -194.5 112t-68.5 242q0 119 39.5 207t113 135.5t173.5 47.5q54 0 105.5 -14.5t91.5 -40.5l-41 -92q-79 39 -158 39
q-95 0 -147.5 -71.5t-52.5 -201.5q0 -128 53.5 -193t159.5 -65q90 0 151 35l41 -91q-31 -25 -82.5 -39t-111.5 -15l-30 -42q14 2 21 2q52 0 81 -22z" />
    <glyph glyph-name="Egrave" unicode="&#xc8;" horiz-adv-x="577" 
d="M292 781l-173 133v12h135l138 -133v-12h-100zM542 107v-107h-459v724h446v-107h-326v-193h241v-108h-241v-209h339z" />
    <glyph glyph-name="Eacute" unicode="&#xc9;" horiz-adv-x="577" 
d="M335 781h-100v12l147 133h135v-12zM542 107v-107h-459v724h446v-107h-326v-193h241v-108h-241v-209h339z" />
    <glyph glyph-name="Ecircumflex" unicode="&#xca;" horiz-adv-x="577" 
d="M225 781h-86v12l117 133h116l117 -133v-12h-89l-88 81zM542 107v-107h-459v724h446v-107h-326v-193h241v-108h-241v-209h339z" />
    <glyph glyph-name="Edieresis" unicode="&#xcb;" horiz-adv-x="577" 
d="M164.5 797q-17.5 18 -17.5 48q0 32 17.5 49t48.5 17t48.5 -17.5t17.5 -47.5q0 -32 -17.5 -49.5t-48.5 -17.5t-48.5 18zM367.5 797q-17.5 18 -17.5 48q0 32 17.5 49t48.5 17t48.5 -17.5t17.5 -47.5q0 -32 -17.5 -49.5t-48.5 -17.5t-48.5 18zM542 107v-107h-459v724h446
v-107h-326v-193h241v-108h-241v-209h339z" />
    <glyph glyph-name="Igrave" unicode="&#xcc;" horiz-adv-x="291" 
d="M-50 914v12h135l138 -133v-12h-100zM85 724h120v-724h-120v724z" />
    <glyph glyph-name="Iacute" unicode="&#xcd;" horiz-adv-x="291" 
d="M66 793l147 133h135v-12l-182 -133h-100v12zM85 724h120v-724h-120v724z" />
    <glyph glyph-name="Icircumflex" unicode="&#xce;" horiz-adv-x="291" 
d="M320 793v-12h-89l-88 81l-87 -81h-86v12l117 133h116zM85 724h120v-724h-120v724z" />
    <glyph glyph-name="Idieresis" unicode="&#xcf;" horiz-adv-x="291" 
d="M-4.5 797q-17.5 18 -17.5 48q0 32 17.5 49t48.5 17t48.5 -17.5t17.5 -47.5q0 -32 -17.5 -49.5t-48.5 -17.5t-48.5 18zM198.5 797q-17.5 18 -17.5 48q0 32 17.5 49t48.5 17t48.5 -17.5t17.5 -47.5q0 -32 -17.5 -49.5t-48.5 -17.5t-48.5 18zM85 724h120v-724h-120v724z" />
    <glyph glyph-name="Eth" unicode="&#xd0;" horiz-adv-x="692" 
d="M555 633q84 -91 84 -270q0 -180 -84.5 -271.5t-244.5 -91.5h-227v320h-65v93h65v311h228q160 0 244 -91zM515 363q0 254 -207 254h-105v-204h164v-93h-164v-213h105q207 0 207 256z" />
    <glyph glyph-name="Ntilde" unicode="&#xd1;" horiz-adv-x="725" 
d="M250 788h-67q1 68 29.5 106t78.5 38q26 0 45.5 -9.5t45.5 -27.5q17 -13 28 -18.5t23 -5.5q34 0 41 59h67q-1 -68 -29.5 -106t-78.5 -38q-26 0 -45.5 9.5t-45.5 27.5q-17 13 -28 18.5t-23 5.5q-33 0 -41 -59zM641 724v-724h-115l-325 521v-521h-118v724h116l324 -520v520
h118z" />
    <glyph glyph-name="Ograve" unicode="&#xd2;" horiz-adv-x="715" 
d="M162 914v12h135l138 -133v-12h-100zM130.5 81.5q-78.5 94.5 -78.5 280.5t78.5 280.5t226.5 94.5t226.5 -94.5t78.5 -280.5t-78.5 -280.5t-226.5 -94.5t-226.5 94.5zM538 362q0 268 -181 268t-181 -268t181 -268t181 268z" />
    <glyph glyph-name="Oacute" unicode="&#xd3;" horiz-adv-x="715" 
d="M278 793l147 133h135v-12l-182 -133h-100v12zM130.5 81.5q-78.5 94.5 -78.5 280.5t78.5 280.5t226.5 94.5t226.5 -94.5t78.5 -280.5t-78.5 -280.5t-226.5 -94.5t-226.5 94.5zM538 362q0 268 -181 268t-181 -268t181 -268t181 268z" />
    <glyph glyph-name="Ocircumflex" unicode="&#xd4;" horiz-adv-x="715" 
d="M268 781h-86v12l117 133h116l117 -133v-12h-89l-88 81zM583.5 642.5q78.5 -94.5 78.5 -280.5t-78.5 -280.5t-226.5 -94.5t-226.5 94.5t-78.5 280.5t78.5 280.5t226.5 94.5t226.5 -94.5zM538 362q0 268 -181 268t-181 -268t181 -268t181 268z" />
    <glyph glyph-name="Otilde" unicode="&#xd5;" horiz-adv-x="715" 
d="M382.5 795.5q-19.5 9.5 -45.5 27.5q-17 13 -28 18.5t-23 5.5q-33 0 -41 -59h-67q1 68 29.5 106t78.5 38q26 0 45.5 -9.5t45.5 -27.5q17 -13 28 -18.5t23 -5.5q34 0 41 59h67q-1 -68 -29.5 -106t-78.5 -38q-26 0 -45.5 9.5zM130.5 81.5q-78.5 94.5 -78.5 280.5t78.5 280.5
t226.5 94.5t226.5 -94.5t78.5 -280.5t-78.5 -280.5t-226.5 -94.5t-226.5 94.5zM538 362q0 268 -181 268t-181 -268t181 -268t181 268z" />
    <glyph glyph-name="Odieresis" unicode="&#xd6;" horiz-adv-x="715" 
d="M207.5 797q-17.5 18 -17.5 48q0 32 17.5 49t48.5 17t48.5 -17.5t17.5 -47.5q0 -32 -17.5 -49.5t-48.5 -17.5t-48.5 18zM410.5 797q-17.5 18 -17.5 48q0 32 17.5 49t48.5 17t48.5 -17.5t17.5 -47.5q0 -32 -17.5 -49.5t-48.5 -17.5t-48.5 18zM130.5 81.5
q-78.5 94.5 -78.5 280.5t78.5 280.5t226.5 94.5t226.5 -94.5t78.5 -280.5t-78.5 -280.5t-226.5 -94.5t-226.5 94.5zM538 362q0 268 -181 268t-181 -268t181 -268t181 268z" />
    <glyph glyph-name="multiply" unicode="&#xd7;" horiz-adv-x="577" 
d="M362 368l151 -159l-74 -76l-151 158l-150 -158l-75 76l152 159l-152 159l75 76l150 -158l151 158l74 -76z" />
    <glyph glyph-name="Oslash" unicode="&#xd8;" horiz-adv-x="715" 
d="M692 724l-90 -112q60 -93 60 -250q0 -186 -78.5 -280.5t-226.5 -94.5q-117 0 -192 64l-46 -61h-97v10l90 112q-60 95 -60 250q0 186 78.5 280.5t226.5 94.5q118 0 193 -64l46 61h96v-10zM173 362q0 -91 18 -150l293 374q-44 47 -127 47q-184 0 -184 -271zM542 362
q0 92 -18 150l-293 -374q44 -47 126 -47q185 0 185 271z" />
    <glyph glyph-name="Ugrave" unicode="&#xd9;" horiz-adv-x="687" 
d="M148 914v12h135l138 -133v-12h-100zM147.5 56q-69.5 69 -69.5 195v473h120v-466q0 -164 145 -164t145 164v466h120v-473q0 -126 -69.5 -195t-196.5 -69q-125 0 -194.5 69z" />
    <glyph glyph-name="Uacute" unicode="&#xda;" horiz-adv-x="687" 
d="M264 793l147 133h135v-12l-182 -133h-100v12zM147.5 56q-69.5 69 -69.5 195v473h120v-466q0 -164 145 -164t145 164v466h120v-473q0 -126 -69.5 -195t-196.5 -69q-125 0 -194.5 69z" />
    <glyph glyph-name="Ucircumflex" unicode="&#xdb;" horiz-adv-x="687" 
d="M254 781h-86v12l117 133h116l117 -133v-12h-89l-88 81zM608 724v-473q0 -126 -69.5 -195t-196.5 -69q-125 0 -194.5 69t-69.5 195v473h120v-466q0 -164 145 -164t145 164v466h120z" />
    <glyph glyph-name="Udieresis" unicode="&#xdc;" horiz-adv-x="687" 
d="M193.5 797q-17.5 18 -17.5 48q0 32 17.5 49t48.5 17t48.5 -17.5t17.5 -47.5q0 -32 -17.5 -49.5t-48.5 -17.5t-48.5 18zM396.5 797q-17.5 18 -17.5 48q0 32 17.5 49t48.5 17t48.5 -17.5t17.5 -47.5q0 -32 -17.5 -49.5t-48.5 -17.5t-48.5 18zM147.5 56q-69.5 69 -69.5 195
v473h120v-466q0 -164 145 -164t145 164v466h120v-473q0 -126 -69.5 -195t-196.5 -69q-125 0 -194.5 69z" />
    <glyph glyph-name="Yacute" unicode="&#xdd;" horiz-adv-x="589" 
d="M314 781h-100v12l147 133h135v-12zM573 724l-220 -479v-245h-120v245l-217 479h128l151 -349l150 349h128z" />
    <glyph glyph-name="Thorn" unicode="&#xde;" horiz-adv-x="616" 
d="M516 547.5q62 -62.5 62 -176.5q0 -115 -63.5 -178.5t-178.5 -62.5h-133v-130h-120v724h120v-114h138q113 0 175 -62.5zM454 369q0 134 -118 134h-133v-266h138q113 0 113 132z" />
    <glyph glyph-name="germandbls" unicode="&#xdf;" horiz-adv-x="601" 
d="M567 209q0 -103 -58 -159.5t-163 -56.5q-52 0 -96 14l21 96q39 -11 75 -11q109 0 109 108q0 140 -183 152v90q57 26 83.5 61t26.5 86q0 91 -84 91q-102 0 -102 -129v-551h-118v551q0 111 56.5 172t159.5 61q94 0 146 -48t52 -136q0 -117 -97 -175q172 -41 172 -216z" />
    <glyph glyph-name="agrave" unicode="&#xe0;" horiz-adv-x="533" 
d="M408 510q54 -46 54 -131v-379h-105v76q-52 -87 -162 -87q-78 0 -121 42.5t-43 119.5q0 98 75.5 143.5t239.5 46.5v25q0 84 -109 84q-64 0 -127 -28l-30 92q89 42 177 42q97 0 151 -46zM346 146v114q-105 -1 -153.5 -25t-48.5 -74q0 -72 80 -72q70 0 122 57zM112 774v10
h125l89 -159v-10h-90z" />
    <glyph glyph-name="aacute" unicode="&#xe1;" horiz-adv-x="533" 
d="M408 510q54 -46 54 -131v-379h-105v76q-52 -87 -162 -87q-78 0 -121 42.5t-43 119.5q0 98 75.5 143.5t239.5 46.5v25q0 84 -109 84q-64 0 -127 -28l-30 92q89 42 177 42q97 0 151 -46zM346 146v114q-105 -1 -153.5 -25t-48.5 -74q0 -72 80 -72q70 0 122 57zM188 625
l97 159h125v-10l-132 -159h-90v10z" />
    <glyph glyph-name="acircumflex" unicode="&#xe2;" horiz-adv-x="533" 
d="M408 510q54 -46 54 -131v-379h-105v76q-52 -87 -162 -87q-78 0 -121 42.5t-43 119.5q0 98 75.5 143.5t239.5 46.5v25q0 84 -109 84q-64 0 -127 -28l-30 92q89 42 177 42q97 0 151 -46zM346 146v114q-105 -1 -153.5 -25t-48.5 -74q0 -72 80 -72q70 0 122 57zM412 625v-10
h-83l-75 95l-75 -95h-81v10l102 159h110z" />
    <glyph glyph-name="atilde" unicode="&#xe3;" horiz-adv-x="533" 
d="M408 510q54 -46 54 -131v-379h-105v76q-52 -87 -162 -87q-78 0 -121 42.5t-43 119.5q0 98 75.5 143.5t239.5 46.5v25q0 84 -109 84q-64 0 -127 -28l-30 92q89 42 177 42q97 0 151 -46zM346 146v114q-105 -1 -153.5 -25t-48.5 -74q0 -72 80 -72q70 0 122 57zM280.5 625.5
q-19.5 9.5 -45.5 27.5q-17 13 -28 18.5t-23 5.5q-33 0 -41 -59h-67q1 68 29.5 106t78.5 38q26 0 45.5 -9.5t45.5 -27.5q17 -13 28 -18.5t23 -5.5q34 0 41 59h67q-1 -68 -29.5 -106t-78.5 -38q-26 0 -45.5 9.5z" />
    <glyph glyph-name="adieresis" unicode="&#xe4;" horiz-adv-x="533" 
d="M408 510q54 -46 54 -131v-379h-105v76q-52 -87 -162 -87q-78 0 -121 42.5t-43 119.5q0 98 75.5 143.5t239.5 46.5v25q0 84 -109 84q-64 0 -127 -28l-30 92q89 42 177 42q97 0 151 -46zM346 146v114q-105 -1 -153.5 -25t-48.5 -74q0 -72 80 -72q70 0 122 57zM110.5 636
q-17.5 18 -17.5 48q0 32 17 49t49 17q30 0 48 -17.5t18 -47.5q0 -32 -17.5 -49.5t-48.5 -17.5t-48.5 18zM302.5 636q-17.5 18 -17.5 48q0 32 17.5 49t48.5 17t48.5 -17.5t17.5 -47.5q0 -32 -17.5 -49.5t-48.5 -17.5t-48.5 18z" />
    <glyph glyph-name="aring" unicode="&#xe5;" horiz-adv-x="533" 
d="M408 510q54 -46 54 -131v-379h-105v76q-52 -87 -162 -87q-78 0 -121 42.5t-43 119.5q0 98 75.5 143.5t239.5 46.5v25q0 84 -109 84q-64 0 -127 -28l-30 92q89 42 177 42q97 0 151 -46zM346 146v114q-105 -1 -153.5 -25t-48.5 -74q0 -72 80 -72q70 0 122 57zM159.5 631.5
q-34.5 30.5 -34.5 85.5t34.5 85.5t95.5 30.5t95.5 -30.5t34.5 -85.5t-34.5 -85.5t-95.5 -30.5t-95.5 30.5zM310 717q0 57 -55 57t-55 -57t55 -57t55 57z" />
    <glyph glyph-name="ae" unicode="&#xe6;" horiz-adv-x="828" 
d="M785 235h-333q15 -140 142 -140q66 0 131 34l42 -88q-37 -25 -85.5 -39t-98.5 -14q-69 0 -120 26t-82 76q-42 -52 -88 -76.5t-102 -24.5q-76 0 -118 42t-42 118q0 95 73.5 139.5t234.5 45.5v32q0 84 -105 84q-62 0 -124 -28l-30 92q89 42 174 42q108 0 154 -71
q26 35 66.5 53t90.5 18q107 0 166 -68.5t59 -193.5q0 -31 -5 -59zM453 317h219q-1 64 -30 99.5t-79 35.5q-96 0 -110 -135zM351 160q-13 44 -14 93q-100 -1 -146.5 -24t-46.5 -72q0 -68 77 -68q72 0 130 71z" />
    <glyph glyph-name="ccedilla" unicode="&#xe7;" horiz-adv-x="481" 
d="M364 -74q29 -22 29 -62q0 -48 -34.5 -74.5t-97.5 -26.5t-115 25l19 57q51 -17 85 -17q51 0 51 33q0 32 -45 32q-21 0 -41 -7l-27 31l33 79q-87 21 -134 90.5t-47 179.5q0 87 31 152.5t87.5 101.5t131.5 36q44 0 86.5 -12.5t74.5 -35.5l-42 -92q-68 32 -121 32
q-60 0 -93.5 -46t-33.5 -129q0 -177 140 -177q57 0 116 31l40 -91q-63 -48 -162 -48h-3l-30 -42q14 2 21 2q52 0 81 -22z" />
    <glyph glyph-name="egrave" unicode="&#xe8;" horiz-adv-x="543" 
d="M500 235h-339q15 -140 146 -140q70 0 133 34l43 -88q-37 -25 -86.5 -39t-101.5 -14q-121 0 -187 74.5t-66 208.5q0 136 61.5 210.5t173.5 74.5q109 0 168.5 -68.5t59.5 -193.5q0 -38 -5 -59zM161 317h227q-2 65 -31.5 100t-81.5 35q-99 0 -114 -135zM134 774v10h125
l89 -159v-10h-90z" />
    <glyph glyph-name="eacute" unicode="&#xe9;" horiz-adv-x="543" 
d="M500 235h-339q15 -140 146 -140q70 0 133 34l43 -88q-37 -25 -86.5 -39t-101.5 -14q-121 0 -187 74.5t-66 208.5q0 136 61.5 210.5t173.5 74.5q109 0 168.5 -68.5t59.5 -193.5q0 -38 -5 -59zM161 317h227q-2 65 -31.5 100t-81.5 35q-99 0 -114 -135zM210 625l97 159h125
v-10l-132 -159h-90v10z" />
    <glyph glyph-name="ecircumflex" unicode="&#xea;" horiz-adv-x="543" 
d="M500 235h-339q15 -140 146 -140q70 0 133 34l43 -88q-37 -25 -86.5 -39t-101.5 -14q-121 0 -187 74.5t-66 208.5q0 136 61.5 210.5t173.5 74.5q109 0 168.5 -68.5t59.5 -193.5q0 -38 -5 -59zM161 317h227q-2 65 -31.5 100t-81.5 35q-99 0 -114 -135zM434 625v-10h-83
l-75 95l-75 -95h-81v10l102 159h110z" />
    <glyph glyph-name="edieresis" unicode="&#xeb;" horiz-adv-x="543" 
d="M132.5 636q-17.5 18 -17.5 48q0 32 17.5 49t48.5 17t48.5 -17.5t17.5 -47.5q0 -32 -17.5 -49.5t-48.5 -17.5t-48.5 18zM324.5 636q-17.5 18 -17.5 48q0 32 17.5 49t48.5 17t48.5 -17.5t17.5 -47.5q0 -32 -17.5 -49.5t-48.5 -17.5t-48.5 18zM500 235h-339
q15 -140 146 -140q70 0 133 34l43 -88q-37 -25 -86.5 -39t-101.5 -14q-121 0 -187 74.5t-66 208.5q0 136 61.5 210.5t173.5 74.5q109 0 168.5 -68.5t59.5 -193.5q0 -38 -5 -59zM161 317h227q-2 65 -31.5 100t-81.5 35q-99 0 -114 -135z" />
    <glyph glyph-name="igrave" unicode="&#xec;" horiz-adv-x="278" 
d="M80 543h118v-543h-118v543zM-4 774v10h125l89 -159v-10h-90z" />
    <glyph glyph-name="iacute" unicode="&#xed;" horiz-adv-x="278" 
d="M80 543h118v-543h-118v543zM72 625l97 159h125v-10l-132 -159h-90v10z" />
    <glyph glyph-name="icircumflex" unicode="&#xee;" horiz-adv-x="278" 
d="M80 543h118v-543h-118v543zM296 625v-10h-83l-75 95l-75 -95h-81v10l102 159h110z" />
    <glyph glyph-name="idieresis" unicode="&#xef;" horiz-adv-x="278" 
d="M3 636q-17 18 -17 48q0 31 17 48.5t47 17.5t47.5 -17.5t17.5 -47.5q0 -32 -17 -49.5t-48 -17.5q-30 0 -47 18zM180 636q-17 18 -17 48q0 31 17 48.5t47 17.5t47.5 -17.5t17.5 -47.5q0 -32 -17 -49.5t-48 -17.5q-30 0 -47 18zM80 543h118v-543h-118v543z" />
    <glyph glyph-name="eth" unicode="&#xf0;" horiz-adv-x="560" 
d="M476.5 517q39.5 -94 39.5 -224q0 -306 -238 -306q-116 0 -177.5 69.5t-61.5 205.5q0 130 58.5 200.5t165.5 70.5q75 0 118 -49q-36 88 -111 146l-119 -73l-36 63l94 50q-36 19 -76 33l-27 10l26 76l28 -10q76 -27 133 -61l102 64l37 -63l-79 -42q84 -66 123.5 -160z
M396 269q0 77 -31 120.5t-87 43.5q-118 0 -118 -171q0 -170 118 -170t118 177z" />
    <glyph glyph-name="ntilde" unicode="&#xf1;" horiz-adv-x="585" 
d="M469.5 509.5q42.5 -46.5 42.5 -130.5v-379h-118v363q0 83 -88 83q-30 0 -56.5 -10.5t-53.5 -32.5v-403h-118v543h107v-67q66 80 165 80q77 0 119.5 -46.5zM321.5 625.5q-19.5 9.5 -45.5 27.5q-17 13 -28 18.5t-23 5.5q-33 0 -41 -59h-67q1 68 29.5 106t78.5 38
q26 0 45.5 -9.5t45.5 -27.5q17 -13 28 -18.5t23 -5.5q34 0 41 59h67q-1 -68 -29.5 -106t-78.5 -38q-26 0 -45.5 9.5z" />
    <glyph glyph-name="ograve" unicode="&#xf2;" horiz-adv-x="560" 
d="M105 59q-61 72 -61 212t61.5 212.5t175.5 72.5t174.5 -72.5t60.5 -212.5t-61 -212t-175 -72t-175 72zM395 271q0 179 -114 179q-116 0 -116 -179t115 -179t115 179zM138 774v10h125l89 -159v-10h-90z" />
    <glyph glyph-name="oacute" unicode="&#xf3;" horiz-adv-x="560" 
d="M105 59q-61 72 -61 212t61.5 212.5t175.5 72.5t174.5 -72.5t60.5 -212.5t-61 -212t-175 -72t-175 72zM395 271q0 179 -114 179q-116 0 -116 -179t115 -179t115 179zM214 625l97 159h125v-10l-132 -159h-90v10z" />
    <glyph glyph-name="ocircumflex" unicode="&#xf4;" horiz-adv-x="560" 
d="M105 59q-61 72 -61 212t61.5 212.5t175.5 72.5t174.5 -72.5t60.5 -212.5t-61 -212t-175 -72t-175 72zM395 271q0 179 -114 179q-116 0 -116 -179t115 -179t115 179zM438 625v-10h-83l-75 95l-75 -95h-81v10l102 159h110z" />
    <glyph glyph-name="otilde" unicode="&#xf5;" horiz-adv-x="560" 
d="M105 59q-61 72 -61 212t61.5 212.5t175.5 72.5t174.5 -72.5t60.5 -212.5t-61 -212t-175 -72t-175 72zM395 271q0 179 -114 179q-116 0 -116 -179t115 -179t115 179zM306.5 625.5q-19.5 9.5 -45.5 27.5q-17 13 -28 18.5t-23 5.5q-33 0 -41 -59h-67q1 68 29.5 106t78.5 38
q26 0 45.5 -9.5t45.5 -27.5q17 -13 28 -18.5t23 -5.5q34 0 41 59h67q-1 -68 -29.5 -106t-78.5 -38q-26 0 -45.5 9.5z" />
    <glyph glyph-name="odieresis" unicode="&#xf6;" horiz-adv-x="560" 
d="M136.5 636q-17.5 18 -17.5 48q0 32 17.5 49t48.5 17t48.5 -17.5t17.5 -47.5q0 -32 -17.5 -49.5t-48.5 -17.5t-48.5 18zM328.5 636q-17.5 18 -17.5 48q0 32 17.5 49t48.5 17t48.5 -17.5t17.5 -47.5q0 -32 -17.5 -49.5t-48.5 -17.5t-48.5 18zM105 59q-61 72 -61 212
t61.5 212.5t175.5 72.5t174.5 -72.5t60.5 -212.5t-61 -212t-175 -72t-175 72zM395 271q0 179 -114 179q-116 0 -116 -179t115 -179t115 179z" />
    <glyph glyph-name="divide" unicode="&#xf7;" horiz-adv-x="576" 
d="M238.5 509q-19.5 19 -19.5 50t19.5 50t50.5 19q30 0 49.5 -19t19.5 -50t-19.5 -50t-49.5 -19q-31 0 -50.5 19zM59 420h458v-103h-458v103zM238.5 126.5q-19.5 19.5 -19.5 50.5t19.5 50t50.5 19q30 0 49.5 -19t19.5 -50t-19.5 -50.5t-49.5 -19.5q-31 0 -50.5 19.5z" />
    <glyph glyph-name="oslash" unicode="&#xf8;" horiz-adv-x="560" 
d="M546 543l-73 -88q43 -71 43 -184q0 -140 -61 -212t-175 -72q-86 0 -144 44l-30 -41h-92v10l73 87q-43 72 -43 184q0 140 61.5 212.5t175.5 72.5q84 0 143 -45l31 42h91v-10zM160 271q0 -50 7 -84l192 240q-28 28 -78 28q-121 0 -121 -184zM400 271q0 51 -7 85l-192 -240
q28 -29 79 -29q120 0 120 184z" />
    <glyph glyph-name="ugrave" unicode="&#xf9;" horiz-adv-x="577" 
d="M499 543v-543h-107v74q-60 -87 -162 -87q-76 0 -117.5 46t-41.5 130v380h118v-364q0 -82 85 -82q31 0 56.5 12t50.5 38v396h118zM143 774v10h125l89 -159v-10h-90z" />
    <glyph glyph-name="uacute" unicode="&#xfa;" horiz-adv-x="577" 
d="M499 543v-543h-107v74q-60 -87 -162 -87q-76 0 -117.5 46t-41.5 130v380h118v-364q0 -82 85 -82q31 0 56.5 12t50.5 38v396h118zM219 625l97 159h125v-10l-132 -159h-90v10z" />
    <glyph glyph-name="ucircumflex" unicode="&#xfb;" horiz-adv-x="577" 
d="M499 543v-543h-107v74q-60 -87 -162 -87q-76 0 -117.5 46t-41.5 130v380h118v-364q0 -82 85 -82q31 0 56.5 12t50.5 38v396h118zM443 625v-10h-83l-75 95l-75 -95h-81v10l102 159h110z" />
    <glyph glyph-name="udieresis" unicode="&#xfc;" horiz-adv-x="577" 
d="M141.5 636q-17.5 18 -17.5 48q0 32 17.5 49t48.5 17t48.5 -17.5t17.5 -47.5q0 -32 -17.5 -49.5t-48.5 -17.5t-48.5 18zM333.5 636q-17.5 18 -17.5 48q0 32 17.5 49t48.5 17t48.5 -17.5t17.5 -47.5q0 -32 -17.5 -49.5t-48.5 -17.5t-48.5 18zM499 543v-543h-107v74
q-60 -87 -162 -87q-76 0 -117.5 46t-41.5 130v380h118v-364q0 -82 85 -82q31 0 56.5 12t50.5 38v396h118z" />
    <glyph glyph-name="yacute" unicode="&#xfd;" horiz-adv-x="520" 
d="M501 543l-171 -522q-29 -90 -93.5 -148t-174.5 -93l-40 100q70 25 111.5 52.5t66.5 66.5l-181 544h121l122 -417l120 417h119zM195 625l97 159h125v-10l-132 -159h-90v10z" />
    <glyph glyph-name="thorn" unicode="&#xfe;" horiz-adv-x="578" 
d="M483 481.5q52 -74.5 52 -210.5q0 -135 -53 -209.5t-148 -74.5q-43 0 -78.5 15.5t-59.5 44.5v-254h-118v977h118v-286q51 72 141 72q94 0 146 -74.5zM414 267q0 179 -114 179q-30 0 -55 -12.5t-49 -40.5v-249q21 -24 49.5 -37.5t59.5 -13.5q109 0 109 174z" />
    <glyph glyph-name="ydieresis" unicode="&#xff;" horiz-adv-x="520" 
d="M117.5 636q-17.5 18 -17.5 48q0 32 17.5 49t48.5 17t48.5 -17.5t17.5 -47.5q0 -32 -17.5 -49.5t-48.5 -17.5t-48.5 18zM309.5 636q-17.5 18 -17.5 48q0 32 17.5 49t48.5 17t48.5 -17.5t17.5 -47.5q0 -32 -17.5 -49.5t-48.5 -17.5t-48.5 18zM501 543l-171 -522
q-29 -90 -93.5 -148t-174.5 -93l-40 100q70 25 111.5 52.5t66.5 66.5l-181 544h121l122 -417l120 417h119z" />
    <glyph glyph-name="Amacron" unicode="&#x100;" horiz-adv-x="669" 
d="M492 808h-316v87h316v-87zM470 167h-273l-52 -167h-125l249 724h131l249 -724h-127zM437 272l-104 336l-104 -336h208z" />
    <glyph glyph-name="amacron" unicode="&#x101;" horiz-adv-x="533" 
d="M408 510q54 -46 54 -131v-379h-105v76q-52 -87 -162 -87q-78 0 -121 42.5t-43 119.5q0 98 75.5 143.5t239.5 46.5v25q0 84 -109 84q-64 0 -127 -28l-30 92q89 42 177 42q97 0 151 -46zM346 146v114q-105 -1 -153.5 -25t-48.5 -74q0 -72 80 -72q70 0 122 57zM97 725h316
v-87h-316v87z" />
    <glyph glyph-name="Abreve" unicode="&#x102;" horiz-adv-x="669" 
d="M221.5 824q-40.5 42 -43.5 121h70q12 -76 87 -76q76 0 88 76h67q-3 -79 -43.5 -121t-112.5 -42t-112.5 42zM470 167h-273l-52 -167h-125l249 724h131l249 -724h-127zM437 272l-104 336l-104 -336h208z" />
    <glyph glyph-name="abreve" unicode="&#x103;" horiz-adv-x="533" 
d="M408 510q54 -46 54 -131v-379h-105v76q-52 -87 -162 -87q-78 0 -121 42.5t-43 119.5q0 98 75.5 143.5t239.5 46.5v25q0 84 -109 84q-64 0 -127 -28l-30 92q89 42 177 42q97 0 151 -46zM346 146v114q-105 -1 -153.5 -25t-48.5 -74q0 -72 80 -72q70 0 122 57zM142.5 654
q-40.5 42 -43.5 121h70q12 -76 87 -76q76 0 88 76h67q-3 -79 -43.5 -121t-112.5 -42t-112.5 42z" />
    <glyph glyph-name="Aogonek" unicode="&#x104;" horiz-adv-x="669" 
d="M698 -196q-22 -15 -51.5 -23t-60.5 -8q-56 0 -87.5 26t-31.5 73q0 39 22.5 72.5t63.5 55.5h-31l-52 167h-273l-52 -167h-125l249 724h131l249 -724h-1q-83 -50 -83 -106q0 -42 47 -42q28 0 59 15zM437 272l-104 336l-104 -336h208z" />
    <glyph glyph-name="aogonek" unicode="&#x105;" horiz-adv-x="533" 
d="M510 -196q-22 -15 -51.5 -23t-60.5 -8q-56 0 -87.5 26t-31.5 73q0 39 22.5 72.5t63.5 55.5h-7v80q-32 -48 -71 -69.5t-92 -21.5q-78 0 -121 42.5t-43 119.5q0 98 75.5 143.5t239.5 46.5v25q0 84 -109 84q-64 0 -127 -28l-30 92q89 42 177 42q97 0 151 -46t54 -131v-379
h-2q-83 -50 -83 -106q0 -42 47 -42q28 0 59 15zM346 146v114q-105 -1 -153.5 -25t-48.5 -75q0 -71 80 -71q70 0 122 57z" />
    <glyph glyph-name="Cacute" unicode="&#x106;" horiz-adv-x="602" 
d="M273 793l147 133h135v-12l-182 -133h-100v12zM129 82.5q-87 94.5 -87 264.5q0 119 39.5 207t113 135.5t173.5 47.5q54 0 105.5 -14.5t91.5 -40.5l-41 -92q-79 39 -158 39q-95 0 -147.5 -71.5t-52.5 -201.5q0 -128 53.5 -193t159.5 -65q90 0 151 35l41 -91
q-32 -25 -84.5 -39.5t-113.5 -14.5q-157 0 -244 94.5z" />
    <glyph glyph-name="cacute" unicode="&#x107;" horiz-adv-x="481" 
d="M107 61q-67 73 -67 205q0 87 31 152.5t87.5 101.5t131.5 36q44 0 86.5 -12.5t74.5 -35.5l-42 -92q-68 32 -121 32q-60 0 -93.5 -46t-33.5 -129q0 -177 140 -177q57 0 116 31l40 -91q-63 -48 -162 -48q-121 0 -188 73zM199 625l97 159h125v-10l-132 -159h-90v10z" />
    <glyph glyph-name="Ccircumflex" unicode="&#x108;" horiz-adv-x="602" 
d="M263 781h-86v12l117 133h116l117 -133v-12h-89l-88 81zM571 42q-32 -25 -84.5 -39.5t-113.5 -14.5q-157 0 -244 94.5t-87 264.5q0 119 39.5 207t113 135.5t173.5 47.5q54 0 105.5 -14.5t91.5 -40.5l-41 -92q-79 39 -158 39q-95 0 -147.5 -71.5t-52.5 -201.5
q0 -128 53.5 -193t159.5 -65q90 0 151 35z" />
    <glyph glyph-name="ccircumflex" unicode="&#x109;" horiz-adv-x="481" 
d="M107 61q-67 73 -67 205q0 87 31 152.5t87.5 101.5t131.5 36q44 0 86.5 -12.5t74.5 -35.5l-42 -92q-68 32 -121 32q-60 0 -93.5 -46t-33.5 -129q0 -177 140 -177q57 0 116 31l40 -91q-63 -48 -162 -48q-121 0 -188 73zM423 625v-10h-83l-75 95l-75 -95h-81v10l102 159h110
z" />
    <glyph glyph-name="Cdotaccent" unicode="&#x10a;" horiz-adv-x="602" 
d="M298.5 802q-19.5 19 -19.5 51q0 34 19 52.5t54 18.5q34 0 53.5 -19t19.5 -51q0 -34 -19 -52.5t-54 -18.5q-34 0 -53.5 19zM129 82.5q-87 94.5 -87 264.5q0 119 39.5 207t113 135.5t173.5 47.5q54 0 105.5 -14.5t91.5 -40.5l-41 -92q-79 39 -158 39q-95 0 -147.5 -71.5
t-52.5 -201.5q0 -128 53.5 -193t159.5 -65q90 0 151 35l41 -91q-32 -25 -84.5 -39.5t-113.5 -14.5q-157 0 -244 94.5z" />
    <glyph glyph-name="cdotaccent" unicode="&#x10b;" horiz-adv-x="481" 
d="M107 61q-67 73 -67 205q0 87 31 152.5t87.5 101.5t131.5 36q44 0 86.5 -12.5t74.5 -35.5l-42 -92q-68 32 -121 32q-60 0 -93.5 -46t-33.5 -129q0 -177 140 -177q57 0 116 31l40 -91q-63 -48 -162 -48q-121 0 -188 73zM212.5 640q-19.5 19 -19.5 51q0 34 19 52.5t54 18.5
q34 0 53.5 -19t19.5 -51q0 -34 -19 -52.5t-54 -18.5q-34 0 -53.5 19z" />
    <glyph glyph-name="Ccaron" unicode="&#x10c;" horiz-adv-x="602" 
d="M294 781l-117 133v12h89l88 -81l87 81h86v-12l-117 -133h-116zM571 42q-32 -25 -84.5 -39.5t-113.5 -14.5q-157 0 -244 94.5t-87 264.5q0 119 39.5 207t113 135.5t173.5 47.5q54 0 105.5 -14.5t91.5 -40.5l-41 -92q-79 39 -158 39q-95 0 -147.5 -71.5t-52.5 -201.5
q0 -128 53.5 -193t159.5 -65q90 0 151 35z" />
    <glyph glyph-name="ccaron" unicode="&#x10d;" horiz-adv-x="481" 
d="M107 61q-67 73 -67 205q0 87 31 152.5t87.5 101.5t131.5 36q44 0 86.5 -12.5t74.5 -35.5l-42 -92q-68 32 -121 32q-60 0 -93.5 -46t-33.5 -129q0 -177 140 -177q57 0 116 31l40 -91q-63 -48 -162 -48q-121 0 -188 73zM423 784v-10l-102 -159h-110l-102 159v10h83l75 -95
l75 95h81z" />
    <glyph glyph-name="Dcaron" unicode="&#x10e;" horiz-adv-x="692" 
d="M281 781l-117 133v12h89l88 -81l87 81h86v-12l-117 -133h-116zM555 633q84 -91 84 -270q0 -180 -84.5 -271.5t-244.5 -91.5h-227v724h228q160 0 244 -91zM515 363q0 254 -207 254h-105v-510h105q207 0 207 256z" />
    <glyph glyph-name="dcaron" unicode="&#x10f;" horiz-adv-x="588" 
d="M501 0h-108v77q-52 -90 -152 -90q-94 0 -145.5 74.5t-51.5 209.5t52.5 210t148.5 75q42 0 77.5 -16t60.5 -45v275h118v-770zM659 770v-10l-32 -215h-68v225h100zM333 109.5q25 12.5 50 38.5v251q-21 24 -49.5 37t-59.5 13q-109 0 -109 -174q0 -178 113 -178q30 0 55 12.5
z" />
    <glyph glyph-name="Dcroat" unicode="&#x110;" horiz-adv-x="692" 
d="M555 633q84 -91 84 -270q0 -180 -84.5 -271.5t-244.5 -91.5h-227v320h-65v93h65v311h228q160 0 244 -91zM515 363q0 254 -207 254h-105v-204h164v-93h-164v-213h105q207 0 207 256z" />
    <glyph glyph-name="dcroat" unicode="&#x111;" horiz-adv-x="580" 
d="M566 611h-64v-611h-107v76q-53 -89 -152 -89q-95 0 -147 72.5t-52 203.5t53 204t150 73q42 0 77.5 -16t59.5 -45v132h-202v76h202v83h118v-83h64v-76zM335 109.5q25 12.5 49 39.5v234q-20 24 -48.5 37t-59.5 13q-111 0 -111 -166q0 -170 115 -170q30 0 55 12.5z" />
    <glyph glyph-name="Emacron" unicode="&#x112;" horiz-adv-x="577" 
d="M472 808h-316v87h316v-87zM542 107v-107h-459v724h446v-107h-326v-193h241v-108h-241v-209h339z" />
    <glyph glyph-name="emacron" unicode="&#x113;" horiz-adv-x="543" 
d="M500 235h-339q15 -140 146 -140q70 0 133 34l43 -88q-37 -25 -86.5 -39t-101.5 -14q-121 0 -187 74.5t-66 208.5q0 136 61.5 210.5t173.5 74.5q109 0 168.5 -68.5t59.5 -193.5q0 -38 -5 -59zM161 317h227q-2 65 -31.5 100t-81.5 35q-99 0 -114 -135zM119 725h316v-87
h-316v87z" />
    <glyph glyph-name="Ebreve" unicode="&#x114;" horiz-adv-x="577" 
d="M201.5 824q-40.5 42 -43.5 121h70q12 -76 87 -76q76 0 88 76h67q-3 -79 -43.5 -121t-112.5 -42t-112.5 42zM542 107v-107h-459v724h446v-107h-326v-193h241v-108h-241v-209h339z" />
    <glyph glyph-name="ebreve" unicode="&#x115;" horiz-adv-x="543" 
d="M500 235h-339q15 -140 146 -140q70 0 133 34l43 -88q-37 -25 -86.5 -39t-101.5 -14q-121 0 -187 74.5t-66 208.5q0 136 61.5 210.5t173.5 74.5q109 0 168.5 -68.5t59.5 -193.5q0 -38 -5 -59zM161 317h227q-2 65 -31.5 100t-81.5 35q-99 0 -114 -135zM164.5 654
q-40.5 42 -43.5 121h70q12 -76 87 -76q76 0 88 76h67q-3 -79 -43.5 -121t-112.5 -42t-112.5 42z" />
    <glyph glyph-name="Edotaccent" unicode="&#x116;" horiz-adv-x="577" 
d="M260.5 802q-19.5 19 -19.5 51q0 34 19 52.5t54 18.5q34 0 53.5 -19t19.5 -51q0 -34 -19 -52.5t-54 -18.5q-34 0 -53.5 19zM542 107v-107h-459v724h446v-107h-326v-193h241v-108h-241v-209h339z" />
    <glyph glyph-name="edotaccent" unicode="&#x117;" horiz-adv-x="543" 
d="M500 235h-339q15 -140 146 -140q70 0 133 34l43 -88q-37 -25 -86.5 -39t-101.5 -14q-121 0 -187 74.5t-66 208.5q0 136 61.5 210.5t173.5 74.5q109 0 168.5 -68.5t59.5 -193.5q0 -38 -5 -59zM161 317h227q-2 65 -31.5 100t-81.5 35q-99 0 -114 -135zM223.5 640
q-19.5 19 -19.5 51q0 34 19 52.5t54 18.5q34 0 53.5 -19t19.5 -51q0 -34 -19 -52.5t-54 -18.5q-34 0 -53.5 19z" />
    <glyph glyph-name="Eogonek" unicode="&#x118;" horiz-adv-x="577" 
d="M592 -196q-22 -15 -51.5 -23t-60.5 -8q-56 0 -87.5 26t-31.5 73q0 39 22.5 72.5t63.5 55.5h-364v724h446v-107h-326v-193h241v-108h-241v-209h339v-107q-83 -50 -83 -106q0 -42 47 -42q28 0 59 15z" />
    <glyph glyph-name="eogonek" unicode="&#x119;" horiz-adv-x="543" 
d="M500 235h-339q15 -140 146 -140q70 0 133 34l43 -88q-12 -7 -37 -20q-43 -23 -70.5 -58t-27.5 -69q0 -42 47 -42q27 0 59 15l27 -63q-23 -15 -52.5 -23t-60.5 -8q-55 0 -86.5 26t-31.5 73q0 34 16 64t46 53q-6 -1 -17 -1q-121 0 -187 74.5t-66 208.5q0 136 61.5 210.5
t173.5 74.5q109 0 168.5 -68.5t59.5 -193.5q0 -38 -5 -59zM161 317h227q-2 65 -31.5 100t-81.5 35q-100 0 -114 -135z" />
    <glyph glyph-name="Ecaron" unicode="&#x11a;" horiz-adv-x="577" 
d="M256 781l-117 133v12h89l88 -81l87 81h86v-12l-117 -133h-116zM542 107v-107h-459v724h446v-107h-326v-193h241v-108h-241v-209h339z" />
    <glyph glyph-name="ecaron" unicode="&#x11b;" horiz-adv-x="543" 
d="M500 235h-339q15 -140 146 -140q70 0 133 34l43 -88q-37 -25 -86.5 -39t-101.5 -14q-121 0 -187 74.5t-66 208.5q0 136 61.5 210.5t173.5 74.5q109 0 168.5 -68.5t59.5 -193.5q0 -38 -5 -59zM161 317h227q-2 65 -31.5 100t-81.5 35q-99 0 -114 -135zM434 784v-10
l-102 -159h-110l-102 159v10h83l75 -95l75 95h81z" />
    <glyph glyph-name="Gcircumflex" unicode="&#x11c;" horiz-adv-x="668" 
d="M271 781h-86v12l117 133h116l117 -133v-12h-89l-88 81zM604 405v-362q-40 -27 -97 -41.5t-119 -14.5q-160 0 -248 98.5t-88 276.5t88 276.5t248 98.5q61 0 115 -14t92 -40l-36 -96q-92 43 -173 43q-210 0 -210 -268t212 -268q47 0 96 13v191h-123v107h243z" />
    <glyph glyph-name="gcircumflex" unicode="&#x11d;" horiz-adv-x="581" 
d="M503 543v-527q0 -112 -64.5 -174t-180.5 -62q-47 0 -92 10t-80 29l33 94q65 -28 127 -28q139 0 139 130v74q-51 -72 -142 -72q-95 0 -147 70.5t-52 198.5t53 199t150 71q47 0 85.5 -20t63.5 -56v63h107zM335 139q25 12 50 39v220q-21 25 -49.5 38t-59.5 13
q-111 0 -111 -159q0 -163 115 -163q30 0 55 12zM444 625v-10h-83l-75 95l-75 -95h-81v10l102 159h110z" />
    <glyph glyph-name="Gbreve" unicode="&#x11e;" horiz-adv-x="668" 
d="M247.5 824q-40.5 42 -43.5 121h70q12 -76 87 -76q76 0 88 76h67q-3 -79 -43.5 -121t-112.5 -42t-112.5 42zM604 405v-362q-40 -27 -97 -41.5t-119 -14.5q-160 0 -248 98.5t-88 276.5t88 276.5t248 98.5q61 0 115 -14t92 -40l-36 -96q-92 43 -173 43q-210 0 -210 -268
t212 -268q47 0 96 13v191h-123v107h243z" />
    <glyph glyph-name="gbreve" unicode="&#x11f;" horiz-adv-x="581" 
d="M503 543v-527q0 -112 -64.5 -174t-180.5 -62q-47 0 -92 10t-80 29l33 94q65 -28 127 -28q139 0 139 130v74q-51 -72 -142 -72q-95 0 -147 70.5t-52 198.5t53 199t150 71q47 0 85.5 -20t63.5 -56v63h107zM335 139q25 12 50 39v220q-21 25 -49.5 38t-59.5 13
q-111 0 -111 -159q0 -163 115 -163q30 0 55 12zM174.5 654q-40.5 42 -43.5 121h70q12 -76 87 -76q76 0 88 76h67q-3 -79 -43.5 -121t-112.5 -42t-112.5 42z" />
    <glyph glyph-name="Gdotaccent" unicode="&#x120;" horiz-adv-x="668" 
d="M306.5 802q-19.5 19 -19.5 51q0 34 19 52.5t54 18.5q34 0 53.5 -19t19.5 -51q0 -34 -19 -52.5t-54 -18.5q-34 0 -53.5 19zM604 405v-362q-40 -27 -97 -41.5t-119 -14.5q-160 0 -248 98.5t-88 276.5t88 276.5t248 98.5q61 0 115 -14t92 -40l-36 -96q-92 43 -173 43
q-210 0 -210 -268t212 -268q47 0 96 13v191h-123v107h243z" />
    <glyph glyph-name="gdotaccent" unicode="&#x121;" horiz-adv-x="581" 
d="M503 543v-527q0 -112 -64.5 -174t-180.5 -62q-47 0 -92 10t-80 29l33 94q65 -28 127 -28q139 0 139 130v74q-51 -72 -142 -72q-95 0 -147 70.5t-52 198.5t53 199t150 71q47 0 85.5 -20t63.5 -56v63h107zM335 139q25 12 50 39v220q-21 25 -49.5 38t-59.5 13
q-111 0 -111 -159q0 -163 115 -163q30 0 55 12zM233.5 640q-19.5 19 -19.5 51q0 34 19 52.5t54 18.5q34 0 53.5 -19t19.5 -51q0 -34 -19 -52.5t-54 -18.5q-34 0 -53.5 19z" />
    <glyph glyph-name="Gcommaaccent" unicode="&#x122;" horiz-adv-x="668" 
d="M604 405v-362q-40 -27 -97 -41.5t-119 -14.5q-160 0 -248 98.5t-88 276.5t88 276.5t248 98.5q61 0 115 -14t92 -40l-36 -96q-92 43 -173 43q-210 0 -210 -268t212 -268q47 0 96 13v191h-123v107h243zM262 -239q25 28 35.5 55t10.5 68q0 21 -4 45h109q4 -24 4 -44
q0 -48 -26.5 -88t-85.5 -82z" />
    <glyph glyph-name="gcommaaccent" unicode="&#x123;" horiz-adv-x="581" 
d="M503 543v-527q0 -112 -64.5 -174t-180.5 -62q-47 0 -92 10t-80 29l33 94q65 -28 127 -28q139 0 139 130v74q-51 -72 -142 -72q-95 0 -147 70.5t-52 198.5t53 199t150 71q47 0 85.5 -20t63.5 -56v63h107zM335 139q25 12 50 39v220q-21 25 -49.5 38t-59.5 13
q-111 0 -111 -159q0 -163 115 -163q30 0 55 12zM383 776q-25 -28 -35.5 -55t-10.5 -68q0 -21 4 -45h-109q-4 24 -4 44q0 48 26.5 88t85.5 82z" />
    <glyph glyph-name="Hcircumflex" unicode="&#x124;" horiz-adv-x="703" 
d="M262 781h-86v12l117 133h116l117 -133v-12h-89l-88 81zM619 724v-724h-120v314h-296v-314h-120v724h120v-303h296v303h120z" />
    <glyph glyph-name="hcircumflex" unicode="&#x125;" horiz-adv-x="587" 
d="M135 908l-87 -81h-86v12l117 133h116l117 -133v-12h-89zM471.5 509.5q42.5 -46.5 42.5 -130.5v-379h-118v363q0 83 -89 83q-31 0 -57.5 -10.5t-53.5 -32.5v-403h-118v770h118v-282q63 68 155 68q78 0 120.5 -46.5z" />
    <glyph glyph-name="Hbar" unicode="&#x126;" horiz-adv-x="703" 
d="M684 523h-65v-523h-120v314h-296v-314h-120v523h-64v90h64v111h120v-111h296v111h120v-111h65v-90zM499 523h-296v-102h296v102z" />
    <glyph glyph-name="hbar" unicode="&#x127;" horiz-adv-x="585" 
d="M469.5 492q42.5 -46 42.5 -130v-362h-118v346q0 82 -90 82q-32 0 -59 -10t-53 -32v-386h-118v611h-64v76h64v83h118v-83h206v-76h-206v-140q64 67 156 67q79 0 121.5 -46z" />
    <glyph glyph-name="Itilde" unicode="&#x128;" horiz-adv-x="291" 
d="M159.5 796q-16.5 10 -32.5 28q-11 12 -20 18t-20 6q-35 0 -41 -60h-66q0 68 28 106t79 38q27 0 43.5 -10t32.5 -28q11 -12 20 -18t20 -6q35 0 41 60h66q0 -68 -28 -106t-79 -38q-27 0 -43.5 10zM85 724h120v-724h-120v724z" />
    <glyph glyph-name="itilde" unicode="&#x129;" horiz-adv-x="278" 
d="M153.5 626q-16.5 10 -32.5 28q-11 12 -20 18t-20 6q-35 0 -41 -60h-66q0 68 28 106t79 38q27 0 43.5 -10t32.5 -28q11 -12 20 -18t20 -6q35 0 41 60h66q0 -68 -28 -106t-79 -38q-27 0 -43.5 10zM80 543h118v-543h-118v543z" />
    <glyph glyph-name="Imacron" unicode="&#x12a;" horiz-adv-x="291" 
d="M-13 895h316v-87h-316v87zM85 724h120v-724h-120v724z" />
    <glyph glyph-name="imacron" unicode="&#x12b;" horiz-adv-x="278" 
d="M14 725h250v-87h-250v87zM80 543h118v-543h-118v543z" />
    <glyph glyph-name="Ibreve" unicode="&#x12c;" horiz-adv-x="291" 
d="M32.5 824q-40.5 42 -43.5 121h70q12 -76 87 -76q76 0 88 76h67q-3 -79 -43.5 -121t-112.5 -42t-112.5 42zM85 724h120v-724h-120v724z" />
    <glyph glyph-name="ibreve" unicode="&#x12d;" horiz-adv-x="278" 
d="M80 543h118v-543h-118v543zM26.5 654q-40.5 42 -43.5 121h70q12 -76 87 -76q76 0 88 76h67q-3 -79 -43.5 -121t-112.5 -42t-112.5 42z" />
    <glyph glyph-name="Iogonek" unicode="&#x12e;" horiz-adv-x="291" 
d="M270 -196q-22 -15 -51.5 -23t-60.5 -8q-56 0 -87.5 26t-31.5 73q0 38 19.5 71.5t55.5 56.5h-29v724h120v-724q-68 -53 -68 -106q0 -42 47 -42q28 0 59 15z" />
    <glyph glyph-name="iogonek" unicode="&#x12f;" horiz-adv-x="278" 
d="M85.5 640q-19.5 19 -19.5 51q0 34 19 52.5t54 18.5q34 0 53.5 -19t19.5 -51q0 -34 -19 -52.5t-54 -18.5q-34 0 -53.5 19zM263 -196q-22 -15 -52 -23t-61 -8q-55 0 -86.5 26t-31.5 73q0 38 19.5 71.5t54.5 56.5h-26v543h118v-543q-68 -53 -68 -106q0 -42 47 -42
q28 0 59 15z" />
    <glyph glyph-name="Idotaccent" unicode="&#x130;" horiz-adv-x="291" 
d="M91.5 802q-19.5 19 -19.5 51q0 34 19 52.5t54 18.5q34 0 53.5 -19t19.5 -51q0 -34 -19 -52.5t-54 -18.5q-34 0 -53.5 19zM85 724h120v-724h-120v724z" />
    <glyph glyph-name="dotlessi" unicode="&#x131;" horiz-adv-x="278" 
d="M80 543h118v-543h-118v543z" />
    <glyph glyph-name="IJ" unicode="&#x132;" horiz-adv-x="676" 
d="M83 724h120v-724h-120v724zM340 -4.5q-37 8.5 -66 24.5l38 100q56 -25 98 -25q81 0 81 97v532h120v-539q0 -94 -51.5 -146t-144.5 -52q-38 0 -75 8.5z" />
    <glyph glyph-name="ij" unicode="&#x133;" horiz-adv-x="556" 
d="M85.5 640q-19.5 19 -19.5 51q0 34 19 52.5t54 18.5q34 0 53.5 -19t19.5 -51q0 -34 -19 -52.5t-54 -18.5q-34 0 -53.5 19zM363.5 640q-19.5 19 -19.5 51q0 34 19 52.5t54 18.5q34 0 53.5 -19t19.5 -51q0 -34 -19 -52.5t-54 -18.5q-34 0 -53.5 19zM217 -125
q58 20 87.5 40.5t41.5 50.5t12 80v497h118v-500q0 -76 -19.5 -124t-66.5 -80.5t-134 -60.5zM80 543h118v-543h-118v543z" />
    <glyph glyph-name="Jcircumflex" unicode="&#x134;" horiz-adv-x="466" 
d="M503 793v-12h-89l-88 81l-87 -81h-86v12l117 133h116zM268 724h120v-539q0 -94 -56 -146t-157 -52q-51 0 -96 14t-76 39l43 92q65 -37 124 -37q98 0 98 97v532z" />
    <glyph glyph-name="jcircumflex" unicode="&#x135;" horiz-adv-x="278" 
d="M-61 -125q58 20 87.5 40.5t41.5 50.5t12 80v497h118v-500q0 -76 -19.5 -124t-66.5 -80.5t-134 -60.5zM296 625v-10h-83l-75 95l-75 -95h-81v10l102 159h110z" />
    <glyph glyph-name="Kcommaaccent" unicode="&#x136;" horiz-adv-x="631" 
d="M287 312l-84 -102v-210h-120v724h120v-361l278 361h142l-260 -319l276 -405h-143zM245 -239q25 28 35.5 55t10.5 68q0 21 -4 45h109q4 -24 4 -44q0 -48 -26.5 -88t-85.5 -82z" />
    <glyph glyph-name="kcommaaccent" unicode="&#x137;" horiz-adv-x="557" 
d="M259 226l-63 -73v-153h-118v770h118v-469l199 242h136l-197 -229l211 -314h-136zM195 -239q25 28 35.5 55t10.5 68q0 21 -4 45h109q4 -24 4 -44q0 -48 -26.5 -88t-85.5 -82z" />
    <glyph glyph-name="kgreenlandic" unicode="&#x138;" horiz-adv-x="557" 
d="M259 226l-63 -73v-153h-118v543h118v-242l199 242h136l-197 -229l211 -314h-136z" />
    <glyph glyph-name="Lacute" unicode="&#x139;" horiz-adv-x="530" 
d="M193 781h-100v12l147 133h135v-12zM504 108v-108h-421v724h120v-616h301z" />
    <glyph glyph-name="lacute" unicode="&#x13a;" horiz-adv-x="319" 
d="M56 839l147 133h135v-12l-182 -133h-100v12zM76 130v640h118v-617q0 -29 12 -42t38 -13q17 0 36 4l8 -100q-36 -9 -75 -9q-137 0 -137 137z" />
    <glyph glyph-name="Lcommaaccent" unicode="&#x13b;" horiz-adv-x="530" 
d="M504 108v-108h-421v724h120v-616h301zM203 -239q25 28 35.5 55t10.5 68q0 21 -4 45h109q4 -24 4 -44q0 -48 -26.5 -88t-85.5 -82z" />
    <glyph glyph-name="lcommaaccent" unicode="&#x13c;" horiz-adv-x="319" 
d="M76 130v640h118v-617q0 -29 12 -42t38 -13q17 0 36 4l8 -100q-36 -9 -75 -9q-137 0 -137 137zM78 -239q25 28 35.5 55t10.5 68q0 21 -4 45h109q4 -24 4 -44q0 -48 -26.5 -88t-85.5 -82z" />
    <glyph glyph-name="Lcaron" unicode="&#x13d;" horiz-adv-x="530" 
d="M384 545h-69v225h100v-10zM504 108v-108h-421v724h120v-616h301z" />
    <glyph glyph-name="lcaron" unicode="&#x13e;" horiz-adv-x="321" 
d="M76 130v640h118v-617q0 -29 12 -42t38 -13q17 0 36 4l8 -100q-36 -9 -75 -9q-137 0 -137 137zM261 770h100v-10l-31 -215h-69v225z" />
    <glyph glyph-name="Ldot" unicode="&#x13f;" horiz-adv-x="530" 
d="M504 108v-108h-421v724h120v-616h301zM348.5 355q-19.5 19 -19.5 51q0 34 19 52.5t54 18.5q34 0 53.5 -19t19.5 -51q0 -34 -19 -52.5t-54 -18.5q-34 0 -53.5 19z" />
    <glyph glyph-name="ldot" unicode="&#x140;" horiz-adv-x="388" 
d="M76 130v640h118v-617q0 -29 12 -42t38 -13q17 0 36 4l8 -100q-36 -9 -75 -9q-137 0 -137 137zM274.5 346q-19.5 19 -19.5 51q0 34 19 52.5t54 18.5q34 0 53.5 -19t19.5 -51q0 -34 -19 -52.5t-54 -18.5q-34 0 -53.5 19z" />
    <glyph glyph-name="Lslash" unicode="&#x141;" horiz-adv-x="534" 
d="M508 108v-108h-421v241l-49 -30h-10v96l59 33v384h120v-316l193 114h10v-96l-203 -115v-203h301z" />
    <glyph glyph-name="lslash" unicode="&#x142;" horiz-adv-x="356" 
d="M218 388v-235q0 -29 12 -42t38 -13q17 0 36 4l8 -100q-36 -9 -75 -9q-137 0 -137 137v184l-69 -44h-10v94l79 48v358h118v-285l90 58h10v-94z" />
    <glyph glyph-name="Nacute" unicode="&#x143;" horiz-adv-x="725" 
d="M383 781h-100v12l147 133h135v-12zM641 724v-724h-115l-325 521v-521h-118v724h116l324 -520v520h118z" />
    <glyph glyph-name="nacute" unicode="&#x144;" horiz-adv-x="585" 
d="M469.5 509.5q42.5 -46.5 42.5 -130.5v-379h-118v363q0 83 -88 83q-30 0 -56.5 -10.5t-53.5 -32.5v-403h-118v543h107v-67q66 80 165 80q77 0 119.5 -46.5zM229 625l97 159h125v-10l-132 -159h-90v10z" />
    <glyph glyph-name="Ncommaaccent" unicode="&#x145;" horiz-adv-x="725" 
d="M641 724v-724h-115l-325 521v-521h-118v724h116l324 -520v520h118zM264 -239q25 28 35.5 55t10.5 68q0 21 -4 45h109q4 -24 4 -44q0 -48 -26.5 -88t-85.5 -82z" />
    <glyph glyph-name="ncommaaccent" unicode="&#x146;" horiz-adv-x="585" 
d="M469.5 509.5q42.5 -46.5 42.5 -130.5v-379h-118v363q0 83 -88 83q-30 0 -56.5 -10.5t-53.5 -32.5v-403h-118v543h107v-67q66 80 165 80q77 0 119.5 -46.5zM199 -239q25 28 35.5 55t10.5 68q0 21 -4 45h109q4 -24 4 -44q0 -48 -26.5 -88t-85.5 -82z" />
    <glyph glyph-name="Ncaron" unicode="&#x147;" horiz-adv-x="725" 
d="M304 781l-117 133v12h89l88 -81l87 81h86v-12l-117 -133h-116zM641 724v-724h-115l-325 521v-521h-118v724h116l324 -520v520h118z" />
    <glyph glyph-name="ncaron" unicode="&#x148;" horiz-adv-x="585" 
d="M469.5 509.5q42.5 -46.5 42.5 -130.5v-379h-118v363q0 83 -88 83q-30 0 -56.5 -10.5t-53.5 -32.5v-403h-118v543h107v-67q66 80 165 80q77 0 119.5 -46.5zM453 784v-10l-102 -159h-110l-102 159v10h83l75 -95l75 95h81z" />
    <glyph glyph-name="napostrophe" unicode="&#x149;" horiz-adv-x="585" 
d="M469.5 509.5q42.5 -46.5 42.5 -130.5v-379h-118v363q0 83 -88 83q-30 0 -56.5 -10.5t-53.5 -32.5v-403h-118v543h107v-67q66 80 165 80q77 0 119.5 -46.5zM-84 568q32 34 45 67t13 81q0 32 -2 54h107q2 -22 2 -53q0 -56 -29 -102t-94 -93z" />
    <glyph glyph-name="Eng" unicode="&#x14a;" horiz-adv-x="725" 
d="M641 724v-758q0 -89 -50 -137.5t-141 -48.5t-151 48l42 90q57 -33 104 -33q78 0 78 88v32l-322 516v-521h-118v724h116l324 -520v520h118z" />
    <glyph glyph-name="eng" unicode="&#x14b;" horiz-adv-x="585" 
d="M469.5 509.5q42.5 -46.5 42.5 -130.5v-432q0 -79 -43 -123t-120 -44q-72 0 -124 38l38 87q47 -21 78 -21q53 0 53 71v408q0 83 -88 83q-30 0 -56.5 -10.5t-53.5 -32.5v-403h-118v543h107v-67q66 80 165 80q77 0 119.5 -46.5z" />
    <glyph glyph-name="Omacron" unicode="&#x14c;" horiz-adv-x="715" 
d="M199 895h316v-87h-316v87zM130.5 81.5q-78.5 94.5 -78.5 280.5t78.5 280.5t226.5 94.5t226.5 -94.5t78.5 -280.5t-78.5 -280.5t-226.5 -94.5t-226.5 94.5zM538 362q0 268 -181 268t-181 -268t181 -268t181 268z" />
    <glyph glyph-name="omacron" unicode="&#x14d;" horiz-adv-x="560" 
d="M105 59q-61 72 -61 212t61.5 212.5t175.5 72.5t174.5 -72.5t60.5 -212.5t-61 -212t-175 -72t-175 72zM395 271q0 179 -114 179q-116 0 -116 -179t115 -179t115 179zM123 725h316v-87h-316v87z" />
    <glyph glyph-name="Obreve" unicode="&#x14e;" horiz-adv-x="715" 
d="M244.5 824q-40.5 42 -43.5 121h70q12 -76 87 -76q76 0 88 76h67q-3 -79 -43.5 -121t-112.5 -42t-112.5 42zM130.5 81.5q-78.5 94.5 -78.5 280.5t78.5 280.5t226.5 94.5t226.5 -94.5t78.5 -280.5t-78.5 -280.5t-226.5 -94.5t-226.5 94.5zM538 362q0 268 -181 268
t-181 -268t181 -268t181 268z" />
    <glyph glyph-name="obreve" unicode="&#x14f;" horiz-adv-x="560" 
d="M105 59q-61 72 -61 212t61.5 212.5t175.5 72.5t174.5 -72.5t60.5 -212.5t-61 -212t-175 -72t-175 72zM395 271q0 179 -114 179q-116 0 -116 -179t115 -179t115 179zM168.5 654q-40.5 42 -43.5 121h70q12 -76 87 -76q76 0 88 76h67q-3 -79 -43.5 -121t-112.5 -42
t-112.5 42z" />
    <glyph glyph-name="Ohungarumlaut" unicode="&#x150;" horiz-adv-x="715" 
d="M220 793l96 133h112v-12l-128 -133h-80v12zM371 793l97 133h113v-12l-128 -133h-82v12zM130.5 81.5q-78.5 94.5 -78.5 280.5t78.5 280.5t226.5 94.5t226.5 -94.5t78.5 -280.5t-78.5 -280.5t-226.5 -94.5t-226.5 94.5zM538 362q0 268 -181 268t-181 -268t181 -268t181 268
z" />
    <glyph glyph-name="ohungarumlaut" unicode="&#x151;" horiz-adv-x="560" 
d="M105 59q-61 72 -61 212t61.5 212.5t175.5 72.5t174.5 -72.5t60.5 -212.5t-61 -212t-175 -72t-175 72zM395 271q0 179 -114 179q-116 0 -116 -179t115 -179t115 179zM155 625l57 159h108v-10l-89 -159h-76v10zM307 625l58 159h108v-10l-91 -159h-75v10z" />
    <glyph glyph-name="OE" unicode="&#x152;" horiz-adv-x="963" 
d="M928 107v-107h-571q-148 0 -226.5 91.5t-78.5 270.5t78.5 270.5t226.5 91.5h558v-107h-312v-193h227v-108h-227v-209h325zM487 107v510h-130q-181 0 -181 -255q0 -127 45.5 -191t135.5 -64h130z" />
    <glyph glyph-name="oe" unicode="&#x153;" horiz-adv-x="881" 
d="M838 235h-332q14 -140 142 -140q65 0 130 34l42 -88q-37 -25 -85.5 -39t-98.5 -14q-61 0 -108.5 21t-79.5 61q-29 -41 -72.5 -62t-99.5 -21q-111 0 -171.5 72t-60.5 212t61 212.5t172 72.5q57 0 100.5 -22t72.5 -64q26 41 69.5 63.5t98.5 22.5q107 0 166 -68.5t59 -193.5
q0 -31 -5 -59zM506 317h219q-1 64 -29.5 99.5t-79.5 35.5q-96 0 -110 -135zM388 271q0 179 -111 179q-112 0 -112 -179t111 -179q112 0 112 179z" />
    <glyph glyph-name="Racute" unicode="&#x154;" horiz-adv-x="634" 
d="M338 781h-100v12l147 133h135v-12zM308 259h-105v-259h-120v724h254q112 0 173.5 -61t61.5 -171q0 -84 -36 -140t-105 -79l183 -273h-144zM203 362h134q111 0 111 128t-115 128h-130v-256z" />
    <glyph glyph-name="racute" unicode="&#x155;" horiz-adv-x="403" 
d="M389 541l-23 -111q-32 9 -65 9q-36 0 -61 -13t-44 -42v-384h-118v543h107v-84q50 95 142 95q35 0 62 -13zM167 625l97 159h125v-10l-132 -159h-90v10z" />
    <glyph glyph-name="Rcommaaccent" unicode="&#x156;" horiz-adv-x="634" 
d="M308 259h-105v-259h-120v724h254q112 0 173.5 -61t61.5 -171q0 -84 -36 -140t-105 -79l183 -273h-144zM203 362h134q111 0 111 128t-115 128h-130v-256zM238 -239q25 28 35.5 55t10.5 68q0 21 -4 45h109q4 -24 4 -44q0 -48 -26.5 -88t-85.5 -82z" />
    <glyph glyph-name="rcommaaccent" unicode="&#x157;" horiz-adv-x="403" 
d="M389 541l-23 -111q-32 9 -65 9q-36 0 -61 -13t-44 -42v-384h-118v543h107v-84q50 95 142 95q35 0 62 -13zM39 -239q25 28 35.5 55t10.5 68q0 21 -4 45h109q4 -24 4 -44q0 -48 -26.5 -88t-85.5 -82z" />
    <glyph glyph-name="Rcaron" unicode="&#x158;" horiz-adv-x="634" 
d="M259 781l-117 133v12h89l88 -81l87 81h86v-12l-117 -133h-116zM308 259h-105v-259h-120v724h254q112 0 173.5 -61t61.5 -171q0 -84 -36 -140t-105 -79l183 -273h-144zM203 362h134q111 0 111 128t-115 128h-130v-256z" />
    <glyph glyph-name="rcaron" unicode="&#x159;" horiz-adv-x="403" 
d="M389 541l-23 -111q-32 9 -65 9q-36 0 -61 -13t-44 -42v-384h-118v543h107v-84q50 95 142 95q35 0 62 -13zM391 784v-10l-102 -159h-110l-102 159v10h83l75 -95l75 95h81z" />
    <glyph glyph-name="Sacute" unicode="&#x15a;" horiz-adv-x="563" 
d="M190 793l147 133h135v-12l-182 -133h-100v12zM141.5 4.5q-61.5 16.5 -108.5 47.5l40 95q96 -55 195 -55q67 0 101.5 25.5t34.5 73.5q0 40 -25 65.5t-79 40.5l-82 23q-93 25 -134.5 73t-41.5 128q0 101 63 158t176 57q54 0 112 -12.5t108 -35.5l-40 -96q-105 40 -183 40
q-59 0 -89.5 -23.5t-30.5 -67.5q0 -41 24.5 -66t78.5 -40l82 -23q93 -25 134.5 -73t41.5 -129q0 -105 -66 -163.5t-185 -58.5q-65 0 -126.5 16.5z" />
    <glyph glyph-name="sacute" unicode="&#x15b;" horiz-adv-x="468" 
d="M116 2q-52 14 -90 39l41 96q74 -45 156 -45q96 0 96 60q0 25 -16.5 39.5t-53.5 23.5l-71 17q-75 18 -109.5 54.5t-34.5 98.5q0 80 53 125t148 45q48 0 96 -12t87 -33l-44 -95q-72 36 -141 36q-85 0 -85 -55q0 -22 16.5 -36.5t53.5 -23.5l71 -17q75 -18 109.5 -55
t34.5 -101q0 -83 -55 -129t-155 -46q-55 0 -107 14zM159 625l97 159h125v-10l-132 -159h-90v10z" />
    <glyph glyph-name="Scircumflex" unicode="&#x15c;" horiz-adv-x="563" 
d="M180 781h-86v12l117 133h116l117 -133v-12h-89l-88 81zM477.5 339q41.5 -48 41.5 -129q0 -105 -66 -163.5t-185 -58.5q-65 0 -126.5 16.5t-108.5 47.5l40 95q96 -55 195 -55q67 0 101.5 25.5t34.5 73.5q0 40 -25 65.5t-79 40.5l-82 23q-93 25 -134.5 73t-41.5 128
q0 101 63 158t176 57q54 0 112 -12.5t108 -35.5l-40 -96q-105 40 -183 40q-59 0 -89.5 -23.5t-30.5 -67.5q0 -41 24.5 -66t78.5 -40l82 -23q93 -25 134.5 -73z" />
    <glyph glyph-name="scircumflex" unicode="&#x15d;" horiz-adv-x="468" 
d="M116 2q-52 14 -90 39l41 96q74 -45 156 -45q96 0 96 60q0 25 -16.5 39.5t-53.5 23.5l-71 17q-75 18 -109.5 54.5t-34.5 98.5q0 80 53 125t148 45q48 0 96 -12t87 -33l-44 -95q-72 36 -141 36q-85 0 -85 -55q0 -22 16.5 -36.5t53.5 -23.5l71 -17q75 -18 109.5 -55
t34.5 -101q0 -83 -55 -129t-155 -46q-55 0 -107 14zM383 625v-10h-83l-75 95l-75 -95h-81v10l102 159h110z" />
    <glyph glyph-name="Scedilla" unicode="&#x15e;" horiz-adv-x="563" 
d="M462.5 55.5q-56.5 -57.5 -159.5 -66.5l-31 -43q14 2 21 2q52 0 81 -22t29 -62q0 -48 -34.5 -74.5t-97.5 -26.5t-115 25l19 57q51 -17 85 -17q51 0 51 33q0 32 -45 32q-21 0 -41 -7l-27 31l30 73q-114 9 -195 62l40 95q96 -55 195 -55q67 0 101.5 25.5t34.5 73.5
q0 40 -25 65.5t-79 40.5l-82 23q-93 25 -134.5 73t-41.5 128q0 101 63 158t176 57q54 0 112 -12.5t108 -35.5l-40 -96q-105 40 -183 40q-59 0 -89.5 -23.5t-30.5 -67.5q0 -41 24.5 -66t78.5 -40l82 -23q93 -25 134.5 -73t41.5 -129q0 -97 -56.5 -154.5z" />
    <glyph glyph-name="scedilla" unicode="&#x15f;" horiz-adv-x="468" 
d="M387 42q-46 -45 -131 -53l-31 -43q14 2 21 2q52 0 81 -22t29 -62q0 -48 -34.5 -74.5t-97.5 -26.5t-115 25l19 57q51 -17 85 -17q51 0 51 33q0 32 -45 32q-21 0 -41 -7l-27 31l30 73q-44 5 -84 18t-71 33l41 96q74 -45 156 -45q96 0 96 60q0 25 -16.5 39.5t-53.5 23.5
l-71 17q-75 18 -109.5 54.5t-34.5 98.5q0 80 53 125t148 45q48 0 96 -12t87 -33l-44 -95q-72 36 -141 36q-85 0 -85 -55q0 -22 16.5 -36.5t53.5 -23.5l71 -17q75 -18 109.5 -55t34.5 -101q0 -76 -46 -121z" />
    <glyph glyph-name="Scaron" unicode="&#x160;" horiz-adv-x="563" 
d="M211 781l-117 133v12h89l88 -81l87 81h86v-12l-117 -133h-116zM477.5 339q41.5 -48 41.5 -129q0 -105 -66 -163.5t-185 -58.5q-65 0 -126.5 16.5t-108.5 47.5l40 95q96 -55 195 -55q67 0 101.5 25.5t34.5 73.5q0 40 -25 65.5t-79 40.5l-82 23q-93 25 -134.5 73t-41.5 128
q0 101 63 158t176 57q54 0 112 -12.5t108 -35.5l-40 -96q-105 40 -183 40q-59 0 -89.5 -23.5t-30.5 -67.5q0 -41 24.5 -66t78.5 -40l82 -23q93 -25 134.5 -73z" />
    <glyph glyph-name="scaron" unicode="&#x161;" horiz-adv-x="468" 
d="M116 2q-52 14 -90 39l41 96q74 -45 156 -45q96 0 96 60q0 25 -16.5 39.5t-53.5 23.5l-71 17q-75 18 -109.5 54.5t-34.5 98.5q0 80 53 125t148 45q48 0 96 -12t87 -33l-44 -95q-72 36 -141 36q-85 0 -85 -55q0 -22 16.5 -36.5t53.5 -23.5l71 -17q75 -18 109.5 -55
t34.5 -101q0 -83 -55 -129t-155 -46q-55 0 -107 14zM383 784v-10l-102 -159h-110l-102 159v10h83l75 -95l75 95h81z" />
    <glyph glyph-name="uni0162" unicode="&#x162;" horiz-adv-x="529" 
d="M298 0l-39 -54q14 2 21 2q52 0 81 -22t29 -62q0 -48 -34.5 -74.5t-97.5 -26.5t-115 25l19 57q51 -17 85 -17q51 0 51 33q0 32 -45 32q-21 0 -41 -7l-27 31l35 83h-16v616h-184v108h488v-108h-184v-616h-26z" />
    <glyph glyph-name="uni0163" unicode="&#x163;" horiz-adv-x="397" 
d="M328 -74q29 -22 29 -62q0 -48 -34.5 -74.5t-97.5 -26.5t-115 25l19 57q51 -17 85 -17q51 0 51 33q0 32 -45 32q-21 0 -41 -7l-27 31l38 91q-91 36 -91 158v275h-85v102h86v150h117v-150h152v-102h-152v-254q0 -46 20 -67.5t63 -21.5q27 0 57 8l19 -100q-47 -14 -95 -14
l-21 1l-34 -47q14 2 21 2q52 0 81 -22z" />
    <glyph glyph-name="Tcaron" unicode="&#x164;" horiz-adv-x="529" 
d="M206 781l-117 133v12h89l88 -81l87 81h86v-12l-117 -133h-116zM508 616h-184v-616h-120v616h-184v108h488v-108z" />
    <glyph glyph-name="tcaron" unicode="&#x165;" horiz-adv-x="397" 
d="M270 770h100v-10l-24 -166h-76v176zM99 166v275h-85v102h86v150h117v-150h152v-102h-152v-254q0 -46 20 -67.5t63 -21.5q27 0 57 8l19 -100q-47 -14 -95 -14q-182 0 -182 174z" />
    <glyph glyph-name="Tbar" unicode="&#x166;" horiz-adv-x="529" 
d="M324 616v-223h121v-104h-121v-289h-120v289h-120v104h120v223h-184v108h488v-108h-184z" />
    <glyph glyph-name="tbar" unicode="&#x167;" horiz-adv-x="397" 
d="M376 6q-47 -14 -95 -14q-182 0 -182 174v93h-85v97h85v85h-85v102h86v150h117v-150h152v-102h-152v-85h152v-97h-152v-72q0 -46 20 -67.5t63 -21.5q27 0 57 8z" />
    <glyph glyph-name="Utilde" unicode="&#x168;" horiz-adv-x="687" 
d="M368.5 795.5q-19.5 9.5 -45.5 27.5q-17 13 -28 18.5t-23 5.5q-33 0 -41 -59h-67q1 68 29.5 106t78.5 38q26 0 45.5 -9.5t45.5 -27.5q17 -13 28 -18.5t23 -5.5q34 0 41 59h67q-1 -68 -29.5 -106t-78.5 -38q-26 0 -45.5 9.5zM147.5 56q-69.5 69 -69.5 195v473h120v-466
q0 -164 145 -164t145 164v466h120v-473q0 -126 -69.5 -195t-196.5 -69q-125 0 -194.5 69z" />
    <glyph glyph-name="utilde" unicode="&#x169;" horiz-adv-x="577" 
d="M499 543v-543h-107v74q-60 -87 -162 -87q-76 0 -117.5 46t-41.5 130v380h118v-364q0 -82 85 -82q31 0 56.5 12t50.5 38v396h118zM311.5 625.5q-19.5 9.5 -45.5 27.5q-17 13 -28 18.5t-23 5.5q-33 0 -41 -59h-67q1 68 29.5 106t78.5 38q26 0 45.5 -9.5t45.5 -27.5
q17 -13 28 -18.5t23 -5.5q34 0 41 59h67q-1 -68 -29.5 -106t-78.5 -38q-26 0 -45.5 9.5z" />
    <glyph glyph-name="Umacron" unicode="&#x16a;" horiz-adv-x="687" 
d="M185 895h316v-87h-316v87zM147.5 56q-69.5 69 -69.5 195v473h120v-466q0 -164 145 -164t145 164v466h120v-473q0 -126 -69.5 -195t-196.5 -69q-125 0 -194.5 69z" />
    <glyph glyph-name="umacron" unicode="&#x16b;" horiz-adv-x="577" 
d="M499 543v-543h-107v74q-60 -87 -162 -87q-76 0 -117.5 46t-41.5 130v380h118v-364q0 -82 85 -82q31 0 56.5 12t50.5 38v396h118zM128 725h316v-87h-316v87z" />
    <glyph glyph-name="Ubreve" unicode="&#x16c;" horiz-adv-x="687" 
d="M230.5 824q-40.5 42 -43.5 121h70q12 -76 87 -76q76 0 88 76h67q-3 -79 -43.5 -121t-112.5 -42t-112.5 42zM147.5 56q-69.5 69 -69.5 195v473h120v-466q0 -164 145 -164t145 164v466h120v-473q0 -126 -69.5 -195t-196.5 -69q-125 0 -194.5 69z" />
    <glyph glyph-name="ubreve" unicode="&#x16d;" horiz-adv-x="577" 
d="M499 543v-543h-107v74q-60 -87 -162 -87q-76 0 -117.5 46t-41.5 130v380h118v-364q0 -82 85 -82q31 0 56.5 12t50.5 38v396h118zM173.5 654q-40.5 42 -43.5 121h70q12 -76 87 -76q76 0 88 76h67q-3 -79 -43.5 -121t-112.5 -42t-112.5 42z" />
    <glyph glyph-name="Uring" unicode="&#x16e;" horiz-adv-x="687" 
d="M246.5 796.5q-34.5 30.5 -34.5 85.5t34.5 85.5t96.5 30.5t96.5 -30.5t34.5 -85.5t-34.5 -85.5t-96.5 -30.5t-96.5 30.5zM398 882q0 56 -55 56t-55 -56t55 -56t55 56zM147.5 56q-69.5 69 -69.5 195v473h120v-466q0 -164 145 -164t145 164v466h120v-473q0 -126 -69.5 -195
t-196.5 -69q-125 0 -194.5 69z" />
    <glyph glyph-name="uring" unicode="&#x16f;" horiz-adv-x="577" 
d="M499 543v-543h-107v74q-60 -87 -162 -87q-76 0 -117.5 46t-41.5 130v380h118v-364q0 -82 85 -82q31 0 56.5 12t50.5 38v396h118zM190.5 631.5q-34.5 30.5 -34.5 85.5t34.5 85.5t95.5 30.5t95.5 -30.5t34.5 -85.5t-34.5 -85.5t-95.5 -30.5t-95.5 30.5zM341 717
q0 57 -55 57t-55 -57t55 -57t55 57z" />
    <glyph glyph-name="Uhungarumlaut" unicode="&#x170;" horiz-adv-x="687" 
d="M206 793l96 133h112v-12l-128 -133h-80v12zM357 793l97 133h113v-12l-128 -133h-82v12zM147.5 56q-69.5 69 -69.5 195v473h120v-466q0 -164 145 -164t145 164v466h120v-473q0 -126 -69.5 -195t-196.5 -69q-125 0 -194.5 69z" />
    <glyph glyph-name="uhungarumlaut" unicode="&#x171;" horiz-adv-x="577" 
d="M499 543v-543h-107v74q-60 -87 -162 -87q-76 0 -117.5 46t-41.5 130v380h118v-364q0 -82 85 -82q31 0 56.5 12t50.5 38v396h118zM160 625l57 159h108v-10l-89 -159h-76v10zM312 625l58 159h108v-10l-91 -159h-75v10z" />
    <glyph glyph-name="Uogonek" unicode="&#x172;" horiz-adv-x="687" 
d="M427 -47.5q-19 -30.5 -19 -58.5q0 -42 47 -42q28 0 59 15l27 -63q-22 -15 -51.5 -23t-61.5 -8q-55 0 -86.5 26t-31.5 73q0 64 54 116q-7 -1 -22 -1q-125 0 -194.5 69t-69.5 195v473h120v-466q0 -164 144 -164q146 0 146 164v466h120v-473q0 -74 -23 -124t-78 -94l-27 -22
q-34 -28 -53 -58.5z" />
    <glyph glyph-name="uogonek" unicode="&#x173;" horiz-adv-x="577" 
d="M547 -196q-22 -15 -51.5 -23t-60.5 -8q-56 0 -87.5 26t-31.5 73q0 38 22 71t62 56h-6v79q-35 -48 -74 -69.5t-90 -21.5q-76 0 -117.5 46t-41.5 130v380h118v-364q0 -82 85 -82q31 0 56.5 12t50.5 38v396h118v-543h-2q-83 -50 -83 -106q0 -42 47 -42q27 0 59 15z" />
    <glyph glyph-name="Wcircumflex" unicode="&#x174;" horiz-adv-x="897" 
d="M358 781h-86v12l117 133h116l117 -133v-12h-89l-88 81zM871 724l-176 -724h-131l-117 560l-115 -560h-132l-174 724h124l117 -585l117 584h129l118 -584l117 585h123z" />
    <glyph glyph-name="wcircumflex" unicode="&#x175;" horiz-adv-x="787" 
d="M766 543l-151 -543h-127l-95 399l-93 -399h-128l-151 543h120l96 -421l97 421h120l99 -421l95 421h118zM552 625v-10h-83l-75 95l-75 -95h-81v10l102 159h110z" />
    <glyph glyph-name="Ycircumflex" unicode="&#x176;" horiz-adv-x="589" 
d="M204 781h-86v12l117 133h116l117 -133v-12h-89l-88 81zM573 724l-220 -479v-245h-120v245l-217 479h128l151 -349l150 349h128z" />
    <glyph glyph-name="ycircumflex" unicode="&#x177;" horiz-adv-x="520" 
d="M501 543l-171 -522q-29 -90 -93.5 -148t-174.5 -93l-40 100q70 25 111.5 52.5t66.5 66.5l-181 544h121l122 -417l120 417h119zM419 625v-10h-83l-75 95l-75 -95h-81v10l102 159h110z" />
    <glyph glyph-name="Ydieresis" unicode="&#x178;" horiz-adv-x="589" 
d="M143.5 797q-17.5 18 -17.5 48q0 32 17.5 49t48.5 17t48.5 -17.5t17.5 -47.5q0 -32 -17.5 -49.5t-48.5 -17.5t-48.5 18zM346.5 797q-17.5 18 -17.5 48q0 32 17.5 49t48.5 17t48.5 -17.5t17.5 -47.5q0 -32 -17.5 -49.5t-48.5 -17.5t-48.5 18zM573 724l-220 -479v-245h-120
v245l-217 479h128l151 -349l150 349h128z" />
    <glyph glyph-name="Zacute" unicode="&#x179;" horiz-adv-x="554" 
d="M296 781h-100v12l147 133h135v-12zM515 105v-105h-478v106l337 513h-324v105h459v-105l-337 -514h343z" />
    <glyph glyph-name="zacute" unicode="&#x17a;" horiz-adv-x="469" 
d="M435 100v-100h-402v100l264 343h-255v100h387v-100l-264 -343h270zM165 625l97 159h125v-10l-132 -159h-90v10z" />
    <glyph glyph-name="Zdotaccent" unicode="&#x17b;" horiz-adv-x="554" 
d="M221.5 802q-19.5 19 -19.5 51q0 34 19 52.5t54 18.5q34 0 53.5 -19t19.5 -51q0 -34 -19 -52.5t-54 -18.5q-34 0 -53.5 19zM515 105v-105h-478v106l337 513h-324v105h459v-105l-337 -514h343z" />
    <glyph glyph-name="zdotaccent" unicode="&#x17c;" horiz-adv-x="469" 
d="M435 100v-100h-402v100l264 343h-255v100h387v-100l-264 -343h270zM178.5 640q-19.5 19 -19.5 51q0 34 19 52.5t54 18.5q34 0 53.5 -19t19.5 -51q0 -34 -19 -52.5t-54 -18.5q-34 0 -53.5 19z" />
    <glyph glyph-name="Zcaron" unicode="&#x17d;" horiz-adv-x="554" 
d="M217 781l-117 133v12h89l88 -81l87 81h86v-12l-117 -133h-116zM515 105v-105h-478v106l337 513h-324v105h459v-105l-337 -514h343z" />
    <glyph glyph-name="zcaron" unicode="&#x17e;" horiz-adv-x="469" 
d="M435 100v-100h-402v100l264 343h-255v100h387v-100l-264 -343h270zM389 784v-10l-102 -159h-110l-102 159v10h83l75 -95l75 95h81z" />
    <glyph glyph-name="longs" unicode="&#x17f;" horiz-adv-x="294" 
d="M336 779v-103q-27 4 -58 4q-83 0 -83 -88v-592h-117v592q0 91 52.5 141.5t147.5 50.5q33 0 58 -5z" />
    <glyph glyph-name="uni0181" unicode="&#x181;" horiz-adv-x="720" 
d="M678 214q0 -102 -61 -158t-171 -56h-289v617q-66 0 -66 -66q0 -14 3 -46h-107q-4 20 -4 45q0 83 45.5 128.5t128.5 45.5h255q107 0 166 -53.5t59 -150.5q0 -103 -95 -138q136 -39 136 -168zM276 618v-196h136q103 0 103 96q0 100 -109 100h-130zM555 212q0 107 -109 107
h-170v-213h176q103 0 103 106z" />
    <glyph glyph-name="uni0186" unicode="&#x186;" horiz-adv-x="602" 
d="M473 641.5q87 -94.5 87 -264.5q0 -119 -39.5 -207t-113 -135.5t-173.5 -47.5q-53 0 -105 14.5t-92 40.5l41 92q80 -39 158 -39q95 0 147.5 71.5t52.5 201.5q0 128 -53.5 193t-159.5 65q-90 0 -151 -35l-41 91q32 25 84.5 39.5t113.5 14.5q157 0 244 -94.5z" />
    <glyph glyph-name="uni0187" unicode="&#x187;" horiz-adv-x="696" 
d="M685 856v-97q-30 3 -46 3q-74 0 -74 -76v-96h-41q-79 39 -158 39q-95 0 -147.5 -71.5t-52.5 -201.5q0 -128 53.5 -193t159.5 -65q90 0 151 35l41 -91q-32 -25 -84.5 -39.5t-113.5 -14.5q-157 0 -244 94.5t-87 264.5q0 119 39.5 207t113 135.5t173.5 47.5q49 0 101 -13
q11 66 55 101t116 35q26 0 45 -4z" />
    <glyph glyph-name="uni0188" unicode="&#x188;" horiz-adv-x="575" 
d="M571 679v-96q-30 3 -45 3q-75 0 -75 -77v-90l-41 -3v2l-1 -2q-68 32 -121 32q-60 0 -93.5 -46t-33.5 -129q0 -177 140 -177q57 0 116 31l40 -91q-63 -48 -162 -48q-121 0 -188 73t-67 205q0 87 31 152.5t87.5 101.5t131.5 36q32 0 66 -8q11 65 55 100t116 35q25 0 44 -4z
" />
    <glyph glyph-name="uni0189" unicode="&#x189;" horiz-adv-x="692" 
d="M555 633q84 -91 84 -270q0 -180 -84.5 -271.5t-244.5 -91.5h-227v320h-65v93h65v311h228q160 0 244 -91zM515 363q0 254 -207 254h-105v-204h164v-93h-164v-213h105q207 0 207 256z" />
    <glyph glyph-name="uni018A" unicode="&#x18a;" horiz-adv-x="765" 
d="M629 633q84 -91 84 -270q0 -180 -84.5 -271.5t-244.5 -91.5h-227v617q-66 0 -66 -66q0 -14 3 -46h-107q-4 20 -4 45q0 83 45.5 128.5t128.5 45.5h228q160 0 244 -91zM537 171.5q52 64.5 52 191.5q0 254 -208 254h-104v-510h105q103 0 155 64.5z" />
    <glyph glyph-name="uni018E" unicode="&#x18e;" horiz-adv-x="577" 
d="M494 724v-724h-459v107h339v209h-241v108h241v193h-326v107h446z" />
    <glyph glyph-name="uni018F" unicode="&#x18f;" horiz-adv-x="688" 
d="M552 641.5q83 -94.5 83 -280.5q0 -185 -76.5 -279t-221.5 -94q-142 0 -221 91.5t-79 259.5q0 43 7 69h469q-10 103 -63 158.5t-142 55.5q-88 0 -189 -46l-45 96q46 31 108 47.5t128 16.5q159 0 242 -94.5zM513 304h-353q5 -99 51.5 -152.5t127.5 -53.5q156 0 174 206z
" />
    <glyph glyph-name="uni0190" unicode="&#x190;" horiz-adv-x="571" 
d="M556 44q-46 -28 -111 -42t-131 -14q-127 0 -203 56t-76 168q0 131 136 172q-108 46 -108 159q0 96 68 144.5t184 48.5q117 0 214 -50l-40 -94q-83 40 -162 40q-65 0 -103.5 -26t-38.5 -79q0 -48 33 -76t95 -28h116v-100h-124q-147 0 -147 -106q0 -121 167 -121
q46 0 96 11.5t91 31.5z" />
    <glyph glyph-name="uni0191" unicode="&#x191;" horiz-adv-x="539" 
d="M203 617v-211h259v-108h-259v-359q0 -157 -158 -157q-41 0 -76 14l18 100q24 -7 51 -7q24 0 34.5 13.5t10.5 43.5v778h438v-107h-318z" />
    <glyph glyph-name="florin" unicode="&#x192;" horiz-adv-x="570" 
d="M342 528l-13 -112h154v-101h-165l-39 -339q-9 -89 -62 -138t-139 -49q-36 0 -69 9l18 115q23 -6 51 -6q73 0 84 86l36 322h-105v101h117l15 129q10 92 63 142t141 50q41 0 77 -11t60 -31l-60 -98q-38 22 -74 22q-80 0 -90 -91z" />
    <glyph glyph-name="uni0193" unicode="&#x193;" horiz-adv-x="758" 
d="M715 856v-97q-32 3 -46 3q-74 0 -74 -76v-99h-36q-92 43 -173 43q-210 0 -210 -268t212 -268q47 0 96 13v191h-123v107h243v-362q-40 -27 -97 -41.5t-119 -14.5q-160 0 -248 98.5t-88 276.5t88 276.5t248 98.5q56 0 111 -13q10 65 54 100.5t117 35.5q25 0 45 -4z" />
    <glyph glyph-name="uni0194" unicode="&#x194;" horiz-adv-x="633" 
d="M424 53q14 -36 20 -60t6 -46q0 -59 -35 -91.5t-98 -32.5q-62 0 -96.5 32.5t-34.5 91.5q0 43 26 106l52 129l-240 542h126l167 -410l166 410h126l-239 -539zM349 -44q0 35 -20 79l-13 30l-13 -30q-20 -46 -20 -79q0 -46 34 -46q32 0 32 46z" />
    <glyph glyph-name="uni0196" unicode="&#x196;" horiz-adv-x="309" 
d="M83 126v598h120v-575q0 -26 9.5 -37.5t30.5 -11.5q18 0 37 4l8 -103q-36 -9 -76 -9q-129 0 -129 134z" />
    <glyph glyph-name="uni0197" unicode="&#x197;" horiz-adv-x="325" 
d="M309 321h-87v-321h-120v321h-87v103h87v300h120v-300h87v-103z" />
    <glyph glyph-name="uni0198" unicode="&#x198;" horiz-adv-x="632" 
d="M361 409l278 -409h-143l-210 314l-83 -104v-210h-120v724h120v-359l203 274q40 55 76 78t83 23q37 0 65 -13.5t50 -42.5l-64 -79q-15 14 -27 20t-26 6q-15 0 -29.5 -11t-37.5 -39z" />
    <glyph glyph-name="uni0199" unicode="&#x199;" horiz-adv-x="557" 
d="M259 226l-63 -73v-153h-118v643q0 141 148 141q41 0 76 -13l-17 -94q-22 6 -47 6q-22 0 -32 -11.5t-10 -35.5v-335l199 242h136l-197 -229l211 -314h-136z" />
    <glyph glyph-name="uni019D" unicode="&#x19d;" horiz-adv-x="725" 
d="M641 724v-724h-115l-325 521v-582q0 -157 -157 -157q-42 0 -77 14l18 100q24 -7 52 -7q25 0 35.5 13.5t10.5 43.5v778h116l324 -520v520h118z" />
    <glyph glyph-name="uni019F" unicode="&#x19f;" horiz-adv-x="715" 
d="M583.5 642.5q78.5 -94.5 78.5 -280.5t-78.5 -280.5t-226.5 -94.5t-226.5 94.5t-78.5 280.5t78.5 280.5t226.5 94.5t226.5 -94.5zM230.5 576.5q-45.5 -53.5 -53.5 -159.5h361q-18 213 -181 213q-81 0 -126.5 -53.5zM484.5 149q45.5 55 53.5 164h-362q17 -219 181 -219
q82 0 127.5 55z" />
    <glyph glyph-name="Ohorn" unicode="&#x1a0;" horiz-adv-x="715" 
d="M677 695q-30 -36 -100 -45q85 -94 85 -288q0 -186 -78.5 -280.5t-226.5 -94.5t-226.5 94.5t-78.5 280.5t78.5 280.5t226.5 94.5q32 0 53.5 -3.5t46.5 -9.5q40 -10 64 -10q47 0 65 19t18 69q0 25 -5 61h103q5 -30 5 -59q0 -73 -30 -109zM538 362q0 268 -181 268t-181 -268
t181 -268t181 268z" />
    <glyph glyph-name="ohorn" unicode="&#x1a1;" horiz-adv-x="570" 
d="M556.5 522q-30.5 -33 -100.5 -40q60 -72 60 -211q0 -140 -61 -212t-175 -72t-175 72t-61 212t61.5 212.5t175.5 72.5q34 0 66 -7q32 -6 58 -6q47 0 65 16.5t18 61.5q0 25 -5 61h99q5 -30 5 -59q0 -68 -30.5 -101zM395 271q0 179 -114 179q-116 0 -116 -179t115 -179
t115 179z" />
    <glyph glyph-name="uni01A4" unicode="&#x1a4;" horiz-adv-x="671" 
d="M595 660.5q62 -63.5 62 -179.5q0 -117 -63.5 -181t-179.5 -64h-137v-236h-120v617q-66 0 -66 -66q0 -14 3 -46h-107q-4 20 -4 45q0 83 45.5 128.5t128.5 45.5h263q113 0 175 -63.5zM533 479q0 138 -119 138h-137v-274h143q113 0 113 136z" />
    <glyph glyph-name="uni01A5" unicode="&#x1a5;" horiz-adv-x="578" 
d="M483 481.5q52 -74.5 52 -210.5q0 -135 -53 -209.5t-148 -74.5q-42 0 -77.5 15.5t-60.5 44.5v-254h-118v849q0 142 148 142q42 0 76 -14l-17 -94q-22 6 -47 6q-22 0 -32 -11.5t-10 -35.5v-152q51 73 141 73q94 0 146 -74.5zM414 267q0 179 -114 179q-30 0 -55 -12.5
t-49 -39.5v-250q20 -24 49 -37.5t60 -13.5q109 0 109 174z" />
    <glyph glyph-name="uni01A9" unicode="&#x1a9;" horiz-adv-x="588" 
d="M46 106l219 261l-219 252v105h506v-105h-360l223 -252l-223 -262h360v-105h-506v106z" />
    <glyph glyph-name="uni01AE" unicode="&#x1ae;" horiz-adv-x="529" 
d="M335 -97.5q11 -13.5 35 -13.5q26 0 51 7l17 -100q-34 -14 -75 -14q-159 0 -159 157v677h-184v108h488v-108h-184v-670q0 -30 11 -43.5z" />
    <glyph glyph-name="Uhorn" unicode="&#x1af;" horiz-adv-x="687" 
d="M701 703q-28 -34 -93 -44v-408q0 -126 -69.5 -195t-196.5 -69q-125 0 -194.5 69t-69.5 195v473h120v-466q0 -164 145 -164t145 164v466h55q47 0 65 17t18 61q0 25 -5 61h103q5 -30 5 -59q0 -67 -28 -101z" />
    <glyph glyph-name="uhorn" unicode="&#x1b0;" horiz-adv-x="577" 
d="M589.5 522.5q-27.5 -33.5 -90.5 -43.5v-479h-107v74q-60 -87 -162 -87q-76 0 -117.5 46t-41.5 130v380h118v-364q0 -82 85 -82q31 0 56.5 12t50.5 38v396h54q47 0 65 16.5t18 61.5q0 25 -5 61h99q5 -30 5 -59q0 -67 -27.5 -100.5z" />
    <glyph glyph-name="uni01B1" unicode="&#x1b1;" horiz-adv-x="736" 
d="M144.5 77q-79.5 89 -79.5 246q0 187 125 304h-138v97h261v-106q-65 -56 -95 -124.5t-30 -162.5q0 -238 180 -238t180 238q0 94 -29.5 162.5t-94.5 124.5v106h260v-97h-138q126 -117 126 -303q0 -158 -80 -247t-224 -89t-223.5 89z" />
    <glyph glyph-name="uni01B2" unicode="&#x1b2;" horiz-adv-x="687" 
d="M608 580v-329q0 -126 -69.5 -195t-196.5 -69q-125 0 -194.5 69t-69.5 195v473h120v-466q0 -164 145 -164t145 164v315q0 30 -11 43.5t-34 13.5q-27 0 -51 -7l-18 100q35 14 75 14q159 0 159 -157z" />
    <glyph glyph-name="uni01B3" unicode="&#x1b3;" horiz-adv-x="652" 
d="M686 590l-97 -18q-4 31 -13 45t-23 14q-12 0 -22 -10t-20 -33l-158 -343v-245h-120v245l-217 479h128l151 -349l105 242q29 66 65 95.5t88 29.5q121 0 133 -152z" />
    <glyph glyph-name="uni01B4" unicode="&#x1b4;" horiz-adv-x="628" 
d="M620.5 623.5q32.5 -36.5 38.5 -110.5l-96 -18q-4 30 -12 43.5t-23 13.5q-13 0 -23 -13.5t-20 -46.5l-155 -471q-30 -90 -94 -148t-174 -93l-40 100q70 25 111.5 52.5t66.5 66.5l-181 544h121l122 -417l115 398q37 136 151 136q60 0 92.5 -36.5z" />
    <glyph glyph-name="uni01B7" unicode="&#x1b7;" horiz-adv-x="588" 
d="M547 225q0 -78 -39.5 -131.5t-106 -80t-149.5 -26.5q-139 0 -240 56l44 96q98 -43 193 -43q83 0 128.5 34t45.5 97q0 68 -55 94.5t-160 26.5h-43v89l190 181h-307v106h454v-108l-190 -180q235 -24 235 -211z" />
    <glyph glyph-name="uni01C0" unicode="&#x1c0;" horiz-adv-x="274" 
d="M85 770h104v-770h-104v770z" />
    <glyph glyph-name="uni01C1" unicode="&#x1c1;" horiz-adv-x="436" 
d="M85 770h104v-770h-104v770zM247 770h104v-770h-104v770z" />
    <glyph glyph-name="uni01C2" unicode="&#x1c2;" horiz-adv-x="352" 
d="M225 451v-131h111v-100h-111v-220h-103v220h-107v100h107v131h-107v100h107v219h103v-219h111v-100h-111z" />
    <glyph glyph-name="uni01C3" unicode="&#x1c3;" horiz-adv-x="358" 
d="M112 770h132l-18 -569h-94zM123 6.5q-20 19.5 -20 53.5q0 35 20 54t56 19t56 -19.5t20 -52.5q0 -35 -20 -54.5t-56 -19.5t-56 19.5z" />
    <glyph glyph-name="uni01CD" unicode="&#x1cd;" horiz-adv-x="669" 
d="M276 781l-117 133v12h89l88 -81l87 81h86v-12l-117 -133h-116zM470 167h-273l-52 -167h-125l249 724h131l249 -724h-127zM437 272l-104 336l-104 -336h208z" />
    <glyph glyph-name="uni01CE" unicode="&#x1ce;" horiz-adv-x="533" 
d="M408 510q54 -46 54 -131v-379h-105v76q-52 -87 -162 -87q-78 0 -121 42.5t-43 119.5q0 98 75.5 143.5t239.5 46.5v25q0 84 -109 84q-64 0 -127 -28l-30 92q89 42 177 42q97 0 151 -46zM346 146v114q-105 -1 -153.5 -25t-48.5 -74q0 -72 80 -72q70 0 122 57zM412 784v-10
l-102 -159h-110l-102 159v10h83l75 -95l75 95h81z" />
    <glyph glyph-name="uni01CF" unicode="&#x1cf;" horiz-adv-x="291" 
d="M320 926v-12l-117 -133h-116l-117 133v12h89l88 -81l87 81h86zM85 724h120v-724h-120v724z" />
    <glyph glyph-name="uni01D0" unicode="&#x1d0;" horiz-adv-x="278" 
d="M80 543h118v-543h-118v543zM296 784v-10l-102 -159h-110l-102 159v10h83l75 -95l75 95h81z" />
    <glyph glyph-name="uni01D1" unicode="&#x1d1;" horiz-adv-x="715" 
d="M299 781l-117 133v12h89l88 -81l87 81h86v-12l-117 -133h-116zM583.5 642.5q78.5 -94.5 78.5 -280.5t-78.5 -280.5t-226.5 -94.5t-226.5 94.5t-78.5 280.5t78.5 280.5t226.5 94.5t226.5 -94.5zM538 362q0 268 -181 268t-181 -268t181 -268t181 268z" />
    <glyph glyph-name="uni01D2" unicode="&#x1d2;" horiz-adv-x="560" 
d="M105 59q-61 72 -61 212t61.5 212.5t175.5 72.5t174.5 -72.5t60.5 -212.5t-61 -212t-175 -72t-175 72zM395 271q0 179 -114 179q-116 0 -116 -179t115 -179t115 179zM438 784v-10l-102 -159h-110l-102 159v10h83l75 -95l75 95h81z" />
    <glyph glyph-name="uni01D3" unicode="&#x1d3;" horiz-adv-x="687" 
d="M285 781l-117 133v12h89l88 -81l87 81h86v-12l-117 -133h-116zM608 724v-473q0 -126 -69.5 -195t-196.5 -69q-125 0 -194.5 69t-69.5 195v473h120v-466q0 -164 145 -164t145 164v466h120z" />
    <glyph glyph-name="uni01D4" unicode="&#x1d4;" horiz-adv-x="577" 
d="M499 543v-543h-107v74q-60 -87 -162 -87q-76 0 -117.5 46t-41.5 130v380h118v-364q0 -82 85 -82q31 0 56.5 12t50.5 38v396h118zM443 784v-10l-102 -159h-110l-102 159v10h83l75 -95l75 95h81z" />
    <glyph glyph-name="uni01D5" unicode="&#x1d5;" horiz-adv-x="687" 
d="M186 1003h316v-81h-316v81zM202.5 779q-16.5 17 -16.5 46q0 31 16.5 47.5t46.5 16.5t47 -17t17 -46q0 -31 -17 -47.5t-47 -16.5t-46.5 17zM390.5 779q-16.5 17 -16.5 46q0 31 16.5 47.5t46.5 16.5t47 -17t17 -46q0 -31 -17 -47.5t-47 -16.5t-46.5 17zM147.5 56
q-69.5 69 -69.5 195v473h120v-466q0 -164 145 -164t145 164v466h120v-473q0 -126 -69.5 -195t-196.5 -69q-125 0 -194.5 69z" />
    <glyph glyph-name="uni01D6" unicode="&#x1d6;" horiz-adv-x="577" 
d="M445 752h-316v81h316v-81zM145.5 609q-16.5 17 -16.5 46q0 31 16.5 47.5t46.5 16.5t47 -17t17 -46q0 -31 -17 -47.5t-47 -16.5t-46.5 17zM333.5 702.5q16.5 16.5 46.5 16.5t47 -17t17 -46q0 -31 -17 -47.5t-47 -16.5t-46.5 17t-16.5 46q0 31 16.5 47.5zM499 543v-543
h-107v74q-60 -87 -162 -87q-76 0 -117.5 46t-41.5 130v380h118v-364q0 -82 85 -82q31 0 56.5 12t50.5 38v396h118z" />
    <glyph glyph-name="uni01D7" unicode="&#x1d7;" horiz-adv-x="687" 
d="M301 918l75 127h105v-10l-102 -127h-78v10zM202.5 779q-16.5 17 -16.5 46q0 31 16.5 47.5t46.5 16.5t47 -17t17 -46q0 -31 -17 -47.5t-47 -16.5t-46.5 17zM390.5 779q-16.5 17 -16.5 46q0 31 16.5 47.5t46.5 16.5t47 -17t17 -46q0 -31 -17 -47.5t-47 -16.5t-46.5 17z
M147.5 56q-69.5 69 -69.5 195v473h120v-466q0 -164 145 -164t145 164v466h120v-473q0 -126 -69.5 -195t-196.5 -69q-125 0 -194.5 69z" />
    <glyph glyph-name="uni01D8" unicode="&#x1d8;" horiz-adv-x="577" 
d="M322 738h-78v10l75 127h105v-10zM145.5 609q-16.5 17 -16.5 46q0 31 16.5 47.5t46.5 16.5t47 -17t17 -46q0 -31 -17 -47.5t-47 -16.5t-46.5 17zM333.5 702.5q16.5 16.5 46.5 16.5t47 -17t17 -46q0 -31 -17 -47.5t-47 -16.5t-46.5 17t-16.5 46q0 31 16.5 47.5zM499 543
v-543h-107v74q-60 -87 -162 -87q-76 0 -117.5 46t-41.5 130v380h118v-364q0 -82 85 -82q31 0 56.5 12t50.5 38v396h118z" />
    <glyph glyph-name="uni01D9" unicode="&#x1d9;" horiz-adv-x="687" 
d="M291 912l-106 124v9h79l82 -74l81 74h76v-9l-106 -124h-106zM202.5 872.5q16.5 16.5 46.5 16.5t47 -17t17 -46q0 -31 -17 -47.5t-47 -16.5t-46.5 17t-16.5 46q0 31 16.5 47.5zM390.5 872.5q16.5 16.5 46.5 16.5t47 -17t17 -46q0 -31 -17 -47.5t-47 -16.5t-46.5 17
t-16.5 46q0 31 16.5 47.5zM608 724v-473q0 -126 -69.5 -195t-196.5 -69q-125 0 -194.5 69t-69.5 195v473h120v-466q0 -164 145 -164t145 164v466h120z" />
    <glyph glyph-name="uni01DA" unicode="&#x1da;" horiz-adv-x="577" 
d="M232 731l-104 139v10h83l78 -83l76 83h81v-10l-104 -139h-110zM145.5 702.5q16.5 16.5 46.5 16.5t47 -17t17 -46q0 -31 -17 -47.5t-47 -16.5t-46.5 17t-16.5 46q0 31 16.5 47.5zM333.5 702.5q16.5 16.5 46.5 16.5t47 -17t17 -46q0 -31 -17 -47.5t-47 -16.5t-46.5 17
t-16.5 46q0 31 16.5 47.5zM499 543v-543h-107v74q-60 -87 -162 -87q-76 0 -117.5 46t-41.5 130v380h118v-364q0 -82 85 -82q31 0 56.5 12t50.5 38v396h118z" />
    <glyph glyph-name="uni01DB" unicode="&#x1db;" horiz-adv-x="687" 
d="M213 1035v10h105l69 -127v-10h-78zM202.5 779q-16.5 17 -16.5 46q0 31 16.5 47.5t46.5 16.5t47 -17t17 -46q0 -31 -17 -47.5t-47 -16.5t-46.5 17zM390.5 779q-16.5 17 -16.5 46q0 31 16.5 47.5t46.5 16.5t47 -17t17 -46q0 -31 -17 -47.5t-47 -16.5t-46.5 17zM147.5 56
q-69.5 69 -69.5 195v473h120v-466q0 -164 145 -164t145 164v466h120v-473q0 -126 -69.5 -195t-196.5 -69q-125 0 -194.5 69z" />
    <glyph glyph-name="uni01DC" unicode="&#x1dc;" horiz-adv-x="577" 
d="M252 738l-96 127v10h105l69 -127v-10h-78zM145.5 609q-16.5 17 -16.5 46q0 31 16.5 47.5t46.5 16.5t47 -17t17 -46q0 -31 -17 -47.5t-47 -16.5t-46.5 17zM333.5 609q-16.5 17 -16.5 46q0 31 16.5 47.5t46.5 16.5t47 -17t17 -46q0 -31 -17 -47.5t-47 -16.5t-46.5 17z
M499 543v-543h-107v74q-60 -87 -162 -87q-76 0 -117.5 46t-41.5 130v380h118v-364q0 -82 85 -82q31 0 56.5 12t50.5 38v396h118z" />
    <glyph glyph-name="uni01DD" unicode="&#x1dd;" horiz-adv-x="543" 
d="M435 480.5q66 -74.5 66 -208.5q0 -136 -61.5 -210.5t-173.5 -74.5q-109 0 -168.5 68.5t-59.5 193.5q0 38 5 59h339q-7 70 -44 105t-102 35q-70 0 -133 -34l-43 88q37 25 86.5 39t101.5 14q121 0 187 -74.5zM382 226h-227q1 -64 31 -99.5t82 -35.5q101 0 114 135z" />
    <glyph glyph-name="Gcaron" unicode="&#x1e6;" horiz-adv-x="668" 
d="M302 781l-117 133v12h89l88 -81l87 81h86v-12l-117 -133h-116zM604 405v-362q-40 -27 -97 -41.5t-119 -14.5q-160 0 -248 98.5t-88 276.5t88 276.5t248 98.5q61 0 115 -14t92 -40l-36 -96q-92 43 -173 43q-210 0 -210 -268t212 -268q47 0 96 13v191h-123v107h243z" />
    <glyph glyph-name="gcaron" unicode="&#x1e7;" horiz-adv-x="581" 
d="M503 543v-527q0 -112 -64.5 -174t-180.5 -62q-47 0 -92 10t-80 29l33 94q65 -28 127 -28q139 0 139 130v74q-51 -72 -142 -72q-95 0 -147 70.5t-52 198.5t53 199t150 71q47 0 85.5 -20t63.5 -56v63h107zM335 139q25 12 50 39v220q-21 25 -49.5 38t-59.5 13
q-111 0 -111 -159q0 -163 115 -163q30 0 55 12zM444 784v-10l-102 -159h-110l-102 159v10h83l75 -95l75 95h81z" />
    <glyph glyph-name="uni01F4" unicode="&#x1f4;" horiz-adv-x="668" 
d="M381 781h-100v12l147 133h135v-12zM604 405v-362q-40 -27 -97 -41.5t-119 -14.5q-160 0 -248 98.5t-88 276.5t88 276.5t248 98.5q61 0 115 -14t92 -40l-36 -96q-92 43 -173 43q-210 0 -210 -268t212 -268q47 0 96 13v191h-123v107h243z" />
    <glyph glyph-name="uni01F5" unicode="&#x1f5;" horiz-adv-x="581" 
d="M503 543v-527q0 -112 -64.5 -174t-180.5 -62q-47 0 -92 10t-80 29l33 94q65 -28 127 -28q139 0 139 130v74q-51 -72 -142 -72q-95 0 -147 70.5t-52 198.5t53 199t150 71q47 0 85.5 -20t63.5 -56v63h107zM335 139q25 12 50 39v220q-21 25 -49.5 38t-59.5 13
q-111 0 -111 -159q0 -163 115 -163q30 0 55 12zM220 625l97 159h125v-10l-132 -159h-90v10z" />
    <glyph glyph-name="uni01F9" unicode="&#x1f9;" horiz-adv-x="585" 
d="M469.5 509.5q42.5 -46.5 42.5 -130.5v-379h-118v363q0 83 -88 83q-30 0 -56.5 -10.5t-53.5 -32.5v-403h-118v543h107v-67q66 80 165 80q77 0 119.5 -46.5zM153 774v10h125l89 -159v-10h-90z" />
    <glyph glyph-name="Aringacute" unicode="&#x1fa;" horiz-adv-x="669" 
d="M361 909h-100v12l138 125h134v-12zM470 167h-273l-52 -167h-125l229 668q-46 29 -46 94q0 55 34.5 85.5t96.5 30.5t96.5 -30.5t34.5 -85.5q0 -65 -46 -94l230 -668h-127zM279 762q0 -56 55 -56t55 56t-55 56t-55 -56zM437 272l-104 336l-104 -336h208z" />
    <glyph glyph-name="aringacute" unicode="&#x1fb;" horiz-adv-x="533" 
d="M290 869h-78v10l75 127h105v-10zM159.5 631.5q-34.5 30.5 -34.5 85.5t34.5 85.5t95.5 30.5t95.5 -30.5t34.5 -85.5t-34.5 -85.5t-95.5 -30.5t-95.5 30.5zM200 717q0 -57 55 -57t55 57t-55 57t-55 -57zM408 510q54 -46 54 -131v-379h-105v76q-52 -87 -162 -87
q-78 0 -121 42.5t-43 119.5q0 98 75.5 143.5t239.5 46.5v25q0 84 -109 84q-64 0 -127 -28l-30 92q89 42 177 42q97 0 151 -46zM346 146v114q-105 -1 -153.5 -25t-48.5 -74q0 -72 80 -72q70 0 122 57z" />
    <glyph glyph-name="AEacute" unicode="&#x1fc;" horiz-adv-x="923" 
d="M519 781h-100v12l147 133h135v-12zM889 107v-107h-442v159h-243l-81 -159h-128l377 724h503v-107h-311v-193h227v-108h-227v-209h325zM447 263v372l-189 -372h189z" />
    <glyph glyph-name="aeacute" unicode="&#x1fd;" horiz-adv-x="828" 
d="M785 235h-333q15 -140 142 -140q66 0 131 34l42 -88q-37 -25 -85.5 -39t-98.5 -14q-69 0 -120 26t-82 76q-42 -52 -88 -76.5t-102 -24.5q-76 0 -118 42t-42 118q0 95 73.5 139.5t234.5 45.5v32q0 84 -105 84q-62 0 -124 -28l-30 92q89 42 174 42q108 0 154 -71
q26 35 66.5 53t90.5 18q107 0 166 -68.5t59 -193.5q0 -31 -5 -59zM453 317h219q-1 64 -30 99.5t-79 35.5q-96 0 -110 -135zM351 160q-13 44 -14 93q-100 -1 -146.5 -24t-46.5 -72q0 -68 77 -68q72 0 130 71zM359 625l97 159h125v-10l-132 -159h-90v10z" />
    <glyph glyph-name="Oslashacute" unicode="&#x1fe;" horiz-adv-x="715" 
d="M378 781h-100v12l147 133h135v-12zM692 724l-90 -112q60 -93 60 -250q0 -186 -78.5 -280.5t-226.5 -94.5q-117 0 -192 64l-46 -61h-97v10l90 112q-60 95 -60 250q0 186 78.5 280.5t226.5 94.5q118 0 193 -64l46 61h96v-10zM173 362q0 -91 18 -150l293 374q-44 47 -127 47
q-184 0 -184 -271zM542 362q0 92 -18 150l-293 -374q44 -47 126 -47q185 0 185 271z" />
    <glyph glyph-name="oslashacute" unicode="&#x1ff;" horiz-adv-x="560" 
d="M546 543l-73 -88q43 -71 43 -184q0 -140 -61 -212t-175 -72q-86 0 -144 44l-30 -41h-92v10l73 87q-43 72 -43 184q0 140 61.5 212.5t175.5 72.5q84 0 143 -45l31 42h91v-10zM160 271q0 -50 7 -84l192 240q-28 28 -78 28q-121 0 -121 -184zM400 271q0 51 -7 85l-192 -240
q28 -29 79 -29q120 0 120 184zM216 625l97 159h125v-10l-132 -159h-90v10z" />
    <glyph glyph-name="Scommaaccent" unicode="&#x218;" horiz-adv-x="563" 
d="M141.5 4.5q-61.5 16.5 -108.5 47.5l40 95q96 -55 195 -55q67 0 101.5 25.5t34.5 73.5q0 40 -25 65.5t-79 40.5l-82 23q-93 25 -134.5 73t-41.5 128q0 101 63 158t176 57q54 0 112 -12.5t108 -35.5l-40 -96q-105 40 -183 40q-59 0 -89.5 -23.5t-30.5 -67.5q0 -41 24.5 -66
t78.5 -40l82 -23q93 -25 134.5 -73t41.5 -129q0 -105 -66 -163.5t-185 -58.5q-65 0 -126.5 16.5zM179 -239q25 28 35.5 55t10.5 68q0 21 -4 45h109q4 -24 4 -44q0 -48 -26.5 -88t-85.5 -82z" />
    <glyph glyph-name="scommaaccent" unicode="&#x219;" horiz-adv-x="468" 
d="M116 2q-52 14 -90 39l41 96q74 -45 156 -45q96 0 96 60q0 25 -16.5 39.5t-53.5 23.5l-71 17q-75 18 -109.5 54.5t-34.5 98.5q0 80 53 125t148 45q48 0 96 -12t87 -33l-44 -95q-72 36 -141 36q-85 0 -85 -55q0 -22 16.5 -36.5t53.5 -23.5l71 -17q75 -18 109.5 -55
t34.5 -101q0 -83 -55 -129t-155 -46q-55 0 -107 14zM132 -239q25 28 35.5 55t10.5 68q0 21 -4 45h109q4 -24 4 -44q0 -48 -26.5 -88t-85.5 -82z" />
    <glyph glyph-name="uni021A" unicode="&#x21a;" horiz-adv-x="529" 
d="M508 616h-184v-616h-120v616h-184v108h488v-108zM166 -239q25 28 35.5 55t10.5 68q0 21 -4 45h109q4 -24 4 -44q0 -48 -26.5 -88t-85.5 -82z" />
    <glyph glyph-name="uni021B" unicode="&#x21b;" horiz-adv-x="397" 
d="M99 166v275h-85v102h86v150h117v-150h152v-102h-152v-254q0 -46 20 -67.5t63 -21.5q27 0 57 8l19 -100q-47 -14 -95 -14q-182 0 -182 174zM133 -239q25 28 35.5 55t10.5 68q0 21 -4 45h109q4 -24 4 -44q0 -48 -26.5 -88t-85.5 -82z" />
    <glyph glyph-name="uni0237" unicode="&#x237;" horiz-adv-x="278" 
d="M-61 -125q58 20 87.5 40.5t41.5 50.5t12 80v497h118v-500q0 -76 -19.5 -124t-66.5 -80.5t-134 -60.5z" />
    <glyph glyph-name="uni0244" unicode="&#x244;" horiz-adv-x="710" 
d="M701 321h-80v-70q0 -126 -69.5 -195t-196.5 -69q-126 0 -195 69t-69 195v70h-83v104h83v299h120v-299h290v299h120v-299h80v-104zM501 321h-290v-63q0 -164 144 -164q146 0 146 164v63z" />
    <glyph glyph-name="uni0245" unicode="&#x245;" horiz-adv-x="633" 
d="M483 0l-167 599l-166 -599h-126l227 724h131l227 -724h-126z" />
    <glyph glyph-name="uni0250" unicode="&#x250;" horiz-adv-x="533" 
d="M426.5 248.5q-75.5 -45.5 -239.5 -46.5v-25q0 -84 109 -84q64 0 127 28l30 -92q-88 -42 -177 -42q-97 0 -151 46t-54 131v379h105v-78q50 89 162 89q78 0 121 -42.5t43 -119.5q0 -98 -75.5 -143.5zM187 397v-114q106 1 154 24.5t48 74.5q0 72 -80 72q-69 0 -122 -57z" />
    <glyph glyph-name="uni0251" unicode="&#x251;" horiz-adv-x="577" 
d="M499 543v-543h-108v76q-52 -89 -151 -89q-94 0 -145 74.5t-51 209.5t52 210t147 75q43 0 78 -16t60 -46v49h118zM331 109.5q25 12.5 50 39.5v250q-21 24 -49.5 37t-59.5 13q-107 0 -107 -174q0 -178 111 -178q30 0 55 12.5z" />
    <glyph glyph-name="uni0252" unicode="&#x252;" horiz-adv-x="577" 
d="M482 481.5q51 -74.5 51 -209.5t-52 -210t-147 -75q-43 0 -78 16t-60 46v-49h-118v543h108v-75q53 88 151 88q94 0 145 -74.5zM412 268q0 178 -111 178q-30 0 -55 -12.5t-50 -39.5v-248q20 -25 48.5 -38.5t60.5 -13.5q107 0 107 174z" />
    <glyph glyph-name="uni0253" unicode="&#x253;" horiz-adv-x="578" 
d="M483 481.5q52 -74.5 52 -210.5q0 -135 -53 -209.5t-148 -74.5q-48 0 -86.5 19.5t-62.5 55.5v-62h-107v642q0 142 148 142q42 0 76 -14l-17 -94q-22 6 -47 6q-22 0 -32 -11.5t-10 -35.5v-152q51 73 141 73q94 0 146 -74.5zM414 267q0 179 -114 179q-30 0 -55 -12.5
t-49 -39.5v-250q20 -24 49 -37.5t60 -13.5q109 0 109 174z" />
    <glyph glyph-name="uni0254" unicode="&#x254;" horiz-adv-x="481" 
d="M374 482q67 -73 67 -205q0 -87 -31 -152.5t-87.5 -101.5t-131.5 -36q-44 0 -86.5 12.5t-74.5 35.5l42 92q68 -32 121 -32q60 0 93.5 46t33.5 129q0 177 -140 177q-57 0 -116 -31l-40 91q63 48 162 48q121 0 188 -73z" />
    <glyph glyph-name="uni0255" unicode="&#x255;" horiz-adv-x="504" 
d="M455.5 266q34.5 -37 34.5 -105q0 -82 -52 -127.5t-146 -45.5q-70 0 -123 29l-62 -95l-64 43l65 100q-33 36 -50.5 87.5t-17.5 113.5q0 87 31 152.5t87.5 101.5t131.5 36q44 0 86.5 -12.5t74.5 -35.5l-42 -92q-68 32 -121 32q-60 0 -93.5 -46t-33.5 -129q0 -63 16 -102
l6 9q43 65 84.5 94t90.5 29q63 0 97.5 -37zM361.5 112q22.5 18 22.5 51q0 23 -11 35.5t-31 12.5q-24 0 -46.5 -17.5t-47.5 -55.5l-18 -28q28 -16 68 -16q41 0 63.5 18z" />
    <glyph glyph-name="uni0256" unicode="&#x256;" horiz-adv-x="578" 
d="M607 -201q-35 -14 -77 -14q-147 0 -147 142v132q-52 -72 -142 -72q-94 0 -145.5 74.5t-51.5 209.5t52.5 210t148.5 75q42 0 77.5 -16t60.5 -45v275h118v-836q0 -24 10 -35.5t32 -11.5q25 0 47 6zM333 109.5q25 12.5 50 39.5v250q-21 24 -49.5 37t-59.5 13
q-109 0 -109 -174q0 -178 113 -178q30 0 55 12.5z" />
    <glyph glyph-name="uni0257" unicode="&#x257;" horiz-adv-x="594" 
d="M607 770l-17 -94q-22 6 -47 6q-22 0 -32 -11.5t-10 -35.5v-635h-108v77q-52 -90 -152 -90q-94 0 -145.5 74.5t-51.5 210.5q0 135 52.5 209.5t148.5 74.5q42 0 77.5 -15.5t60.5 -44.5v146q0 142 147 142q42 0 77 -14zM333 109.5q25 12.5 50 39.5v250q-21 24 -49.5 37.5
t-59.5 13.5q-109 0 -109 -174q0 -179 113 -179q30 0 55 12.5z" />
    <glyph glyph-name="uni0258" unicode="&#x258;" horiz-adv-x="543" 
d="M439.5 481.5q61.5 -74.5 61.5 -210.5q0 -134 -66 -208.5t-186 -74.5q-53 0 -102 14t-86 39l42 88q63 -34 134 -34q65 0 101.5 35.5t43.5 104.5h-339q-5 28 -5 59q0 125 59.5 193.5t168.5 68.5q112 0 173.5 -74.5zM187 416.5q-30 -35.5 -32 -99.5h227q-13 135 -113 135
q-52 0 -82 -35.5z" />
    <glyph glyph-name="uni0259" unicode="&#x259;" horiz-adv-x="543" 
d="M435 480.5q66 -74.5 66 -208.5q0 -136 -61.5 -210.5t-173.5 -74.5q-109 0 -168.5 68.5t-59.5 193.5q0 38 5 59h339q-7 70 -44 105t-102 35q-70 0 -133 -34l-43 88q37 25 86.5 39t101.5 14q121 0 187 -74.5zM382 226h-227q1 -64 31 -99.5t82 -35.5q101 0 114 135z" />
    <glyph glyph-name="uni025A" unicode="&#x25a;" horiz-adv-x="716" 
d="M716 234l-18 -96q-73 0 -117 36t-53 102l-27 -4v-1q0 -135 -61.5 -209.5t-173.5 -74.5q-109 0 -168.5 66t-59.5 185q0 22 4 46l335 54q-24 110 -140 110q-69 0 -134 -35l-42 89q37 25 86 39t102 14q99 0 161.5 -51t82.5 -146l142 22l-4 -44q-1 -10 -1 -25q0 -77 68 -77
h18zM384 254l-229 -37q2 -60 31.5 -93t82.5 -33q109 0 115 163z" />
    <glyph glyph-name="uni025B" unicode="&#x25b;" horiz-adv-x="478" 
d="M460 29q-34 -20 -89 -30.5t-107 -10.5q-109 0 -168.5 44.5t-59.5 127.5q0 51 28.5 82.5t74.5 45.5q-39 17 -60.5 46.5t-21.5 69.5q0 76 59.5 114t144.5 38q46 0 91 -10t83 -28l-32 -91q-64 31 -126 31q-99 0 -99 -72q0 -66 96 -66h88v-86h-93q-56 0 -84 -14.5t-28 -52.5
q0 -79 118 -79q38 0 76 9t68 24z" />
    <glyph glyph-name="uni025C" unicode="&#x25c;" horiz-adv-x="478" 
d="M413.5 242.5q28.5 -31.5 28.5 -82.5q0 -83 -64 -127.5t-174 -44.5q-51 0 -101 10t-85 31l41 91q66 -32 137 -32q58 0 91.5 19.5t33.5 59.5q0 38 -28 52.5t-84 14.5h-93v86h88q96 0 96 66q0 36 -28 54t-77 18q-56 0 -120 -31l-32 91q79 38 172 38q90 0 148 -36t58 -116
q0 -40 -21.5 -69.5t-60.5 -46.5q46 -14 74.5 -45.5z" />
    <glyph glyph-name="uni025D" unicode="&#x25d;" horiz-adv-x="642" 
d="M642 346l-19 -96q-73 0 -117 35.5t-54 101.5l-33 -5q-5 -32 -26 -55.5t-54 -38.5q46 -14 74.5 -45.5t28.5 -82.5q0 -83 -64 -127.5t-174 -44.5q-51 0 -101 10t-85 31l41 91q66 -32 137 -32q58 0 91.5 19.5t33.5 59.5q0 38 -28 52.5t-84 14.5h-93v86h88q96 0 96 66
q0 36 -28 54t-77 18q-56 0 -120 -31l-32 91q79 38 172 38q68 0 119.5 -21t72.5 -67l153 24l-2 -24q-3 -30 -3 -46q0 -76 68 -76h19z" />
    <glyph glyph-name="uni025E" unicode="&#x25e;" horiz-adv-x="562" 
d="M497.5 242.5q28.5 -31.5 28.5 -82.5q0 -82 -63.5 -127t-167.5 -45q-251 0 -251 283q0 285 255 285q90 0 148 -36t58 -116q0 -40 -21.5 -69.5t-60.5 -46.5q46 -14 74.5 -45.5zM372 108q33 20 33 59q0 38 -28 52.5t-84 14.5h-58v86h53q96 0 96 66q0 35 -27.5 53.5
t-70.5 18.5q-63 0 -92 -44.5t-29 -142.5q0 -96 30 -139.5t95 -43.5q49 0 82 20z" />
    <glyph glyph-name="uni025F" unicode="&#x25f;" horiz-adv-x="311" 
d="M297 232h-83v-189q0 -76 -19.5 -124t-66.5 -80.5t-134 -60.5l-39 97q58 20 87.5 40.5t41.5 50.5t12 80v186h-83v98h83v213h118v-213h83v-98z" />
    <glyph glyph-name="uni0260" unicode="&#x260;" horiz-adv-x="581" 
d="M609 770l-17 -94q-22 6 -47 6q-22 0 -32 -11.5t-10 -35.5v-619q0 -112 -64.5 -174t-180.5 -62q-47 0 -92 10t-80 29l33 94q65 -28 127 -28q139 0 139 130v74q-51 -72 -142 -72q-95 0 -147 70.5t-52 198.5t53 199t150 71q42 0 77.5 -16t60.5 -45v147q0 142 147 142
q42 0 77 -14zM335 139q25 12 50 39v221q-21 24 -49.5 37t-59.5 13q-111 0 -111 -159q0 -163 115 -163q30 0 55 12z" />
    <glyph glyph-name="uni0261" unicode="&#x261;" horiz-adv-x="581" 
d="M503 543v-527q0 -112 -64.5 -174t-180.5 -62q-47 0 -92 10t-80 29l33 94q65 -28 127 -28q139 0 139 130v74q-51 -72 -142 -72q-95 0 -147 70.5t-52 198.5t53 199t150 71q47 0 85.5 -20t63.5 -56v63h107zM335 139q25 12 50 39v220q-21 25 -49.5 38t-59.5 13
q-111 0 -111 -159q0 -163 115 -163q30 0 55 12z" />
    <glyph glyph-name="uni0262" unicode="&#x262;" horiz-adv-x="572" 
d="M514 319v-283q-34 -22 -83 -34t-102 -12q-136 0 -210.5 73.5t-74.5 207.5t74.5 207.5t210.5 73.5q53 0 100 -12t80 -33l-34 -94q-79 35 -148 35q-162 0 -162 -177q0 -176 164 -176q30 0 67 7v113h-99v104h217z" />
    <glyph glyph-name="uni0263" unicode="&#x263;" horiz-adv-x="524" 
d="M361 10q16 -38 22.5 -64t6.5 -49q0 -56 -33 -86.5t-94 -30.5q-60 0 -93.5 31t-33.5 86q0 23 6.5 49t22.5 64l46 110l-192 423h121l123 -297l123 297h119l-191 -420zM294 -94q0 32 -25 86l-7 16l-7 -16q-25 -51 -25 -86q0 -43 33 -43q31 0 31 43z" />
    <glyph glyph-name="uni0264" unicode="&#x264;" horiz-adv-x="531" 
d="M561 495l-65 -74q-33 30 -55 30q-13 0 -25 -10t-27 -34l-69 -105l44 -74q20 -33 29 -59.5t9 -55.5q0 -60 -35.5 -93t-100.5 -33q-63 0 -98.5 33t-35.5 92q0 29 9 56t29 60l42 72l-71 107q-15 24 -27 34t-26 10q-22 0 -55 -29l-62 73q52 64 122 64q41 0 71 -21.5t59 -70.5
l44 -74l43 74q28 49 58.5 70.5t70.5 21.5q70 0 122 -64zM265 218l-12 -19q-27 -40 -27 -81q0 -48 40 -48q39 0 39 48q0 39 -28 81z" />
    <glyph glyph-name="uni0265" unicode="&#x265;" horiz-adv-x="577" 
d="M499 543v-750h-118v266q-57 -72 -151 -72q-76 0 -117.5 46t-41.5 130v380h118v-364q0 -82 85 -82q31 0 56.5 12t50.5 38v396h118z" />
    <glyph glyph-name="uni0266" unicode="&#x266;" horiz-adv-x="587" 
d="M471.5 509.5q42.5 -46.5 42.5 -130.5v-379h-118v363q0 83 -89 83q-31 0 -57.5 -10.5t-53.5 -32.5v-403h-118v642q0 142 148 142q42 0 76 -14l-17 -94q-22 6 -47 6q-22 0 -32 -11.5t-10 -35.5v-147q63 68 155 68q78 0 120.5 -46.5z" />
    <glyph glyph-name="uni0267" unicode="&#x267;" horiz-adv-x="587" 
d="M471.5 509.5q42.5 -46.5 42.5 -130.5v-432q0 -79 -43 -123t-120 -44q-72 0 -124 38l38 87q47 -21 78 -21q53 0 53 71v408q0 83 -89 83q-31 0 -57.5 -10.5t-53.5 -32.5v-403h-118v642q0 142 148 142q42 0 76 -14l-17 -94q-22 6 -47 6q-22 0 -32 -11.5t-10 -35.5v-147
q63 68 155 68q78 0 120.5 -46.5z" />
    <glyph glyph-name="uni0268" unicode="&#x268;" horiz-adv-x="311" 
d="M102.5 640q-19.5 19 -19.5 51q0 34 19 52.5t54 18.5q34 0 53.5 -19t19.5 -51q0 -34 -19 -52.5t-54 -18.5q-34 0 -53.5 19zM297 232h-82v-232h-118v232h-83v98h83v213h118v-213h82v-98z" />
    <glyph glyph-name="uni0269" unicode="&#x269;" horiz-adv-x="384" 
d="M76 168v375h118v-355q0 -47 20 -69t63 -22q23 0 57 9l19 -100q-47 -14 -95 -14q-182 0 -182 176z" />
    <glyph glyph-name="uni026A" unicode="&#x26a;" horiz-adv-x="278" 
d="M80 543h118v-543h-118v543z" />
    <glyph glyph-name="uni026B" unicode="&#x26b;" horiz-adv-x="377" 
d="M318 102l9 -100q-37 -9 -76 -9q-137 0 -137 137v268h-5q-33 0 -41 -59h-67q1 68 29.5 106t78.5 38h5v287h118v-344q12 -4 19 -4q34 0 41 59h67q-1 -68 -29.5 -106t-78.5 -38q-7 0 -19 2v-186q0 -29 12 -42t38 -13q17 0 36 4z" />
    <glyph glyph-name="uni026C" unicode="&#x26c;" horiz-adv-x="440" 
d="M368 102l9 -100q-38 -9 -76 -9q-137 0 -137 137v127q-18 -2 -24 -2q-65 0 -100.5 34.5t-35.5 97.5q0 62 35 96.5t98 34.5q14 0 27 -3v255h118v-398l111 41l27 -75l-118 -43l-20 -7v-135q0 -29 12 -42t38 -13q17 0 36 4zM164 342v87q-13 3 -25 3q-45 0 -45 -46t46 -46
q6 0 24 2z" />
    <glyph glyph-name="uni026D" unicode="&#x26d;" horiz-adv-x="274" 
d="M290 -209q-36 -9 -75 -9q-137 0 -137 137v850h118v-827q0 -29 12 -42t38 -13q15 0 36 3z" />
    <glyph glyph-name="uni026E" unicode="&#x26e;" horiz-adv-x="666" 
d="M577.5 164.5q58.5 -49.5 58.5 -151.5q0 -76 -36 -128.5t-96 -78.5t-134 -26q-116 0 -196 42l42 91q69 -33 144 -33q72 0 113.5 34.5t41.5 100.5q0 128 -180 128h-48v85l175 215h-240h-24v5l-2 1v-449h-118v770h118v-231h2v4h399v-101l-180 -217q102 -11 160.5 -60.5z" />
    <glyph glyph-name="uni026F" unicode="&#x26f;" horiz-adv-x="883" 
d="M805 543v-543h-107v66q-64 -79 -161 -79q-52 0 -88.5 22t-53.5 63q-70 -85 -166 -85q-75 0 -116.5 46t-41.5 130v380h118v-364q0 -82 83 -82q29 0 54 10t53 33q-1 7 -1 23v380h118v-364q0 -82 85 -82q28 0 53.5 10t52.5 32v404h118z" />
    <glyph glyph-name="uni0270" unicode="&#x270;" horiz-adv-x="883" 
d="M805 -207h-118v264q-64 -70 -153 -70q-51 0 -87.5 22.5t-54.5 64.5q-69 -87 -166 -87q-74 0 -115.5 46.5t-41.5 130.5v379h118v-363q0 -83 83 -83q28 0 54 10.5t53 33.5q-1 7 -1 23v379h118v-363q0 -83 84 -83q28 0 54 10.5t53 32.5v403h120v-750z" />
    <glyph glyph-name="uni0271" unicode="&#x271;" horiz-adv-x="885" 
d="M770.5 509.5q41.5 -46.5 41.5 -130.5v-445q0 -152 -157 -152q-42 0 -77 14l17 95q25 -7 53 -7q24 0 35 13.5t11 43.5v422q0 83 -83 83q-28 0 -53.5 -10.5t-53.5 -33.5q1 -7 1 -23v-379h-118v363q0 83 -84 83q-29 0 -54 -10.5t-53 -32.5v-403h-118v543h107v-67
q66 80 162 80q51 0 87.5 -22t54.5 -64q69 86 166 86q74 0 115.5 -46.5z" />
    <glyph glyph-name="uni0272" unicode="&#x272;" horiz-adv-x="585" 
d="M469.5 509.5q42.5 -46.5 42.5 -130.5v-379h-118v363q0 83 -88 83q-30 0 -56.5 -10.5t-53.5 -32.5v-469q0 -152 -158 -152q-42 0 -76 14l17 95q25 -7 52 -7q25 0 36 14t11 43v602h107v-67q66 80 165 80q77 0 119.5 -46.5z" />
    <glyph glyph-name="uni0273" unicode="&#x273;" horiz-adv-x="585" 
d="M628 -204q-34 -14 -76 -14q-158 0 -158 152v429q0 83 -88 83q-30 0 -56.5 -10.5t-53.5 -32.5v-403h-118v543h107v-67q66 80 165 80q77 0 119.5 -46.5t42.5 -130.5v-438q0 -29 11 -43t36 -14q26 0 53 7z" />
    <glyph glyph-name="uni0274" unicode="&#x274;" horiz-adv-x="633" 
d="M555 543v-543h-114l-247 345v-345h-116v543h114l247 -344v344h116z" />
    <glyph glyph-name="uni0275" unicode="&#x275;" horiz-adv-x="560" 
d="M455.5 483.5q60.5 -72.5 60.5 -212.5t-61 -212t-175 -72t-175 72t-61 212t61.5 212.5t175.5 72.5t174.5 -72.5zM163 325h234q-15 130 -116 130q-102 0 -118 -130zM399 230h-237q12 -143 118 -143q105 0 119 143z" />
    <glyph glyph-name="uni0276" unicode="&#x276;" horiz-adv-x="818" 
d="M784 105v-105h-481q-126 0 -192.5 68t-66.5 203t66.5 203.5t192.5 68.5h469v-106h-252v-107h183v-106h-183v-119h264zM405 105v332h-102q-69 0 -103.5 -41t-34.5 -125q0 -166 138 -166h102z" />
    <glyph glyph-name="uni0277" unicode="&#x277;" horiz-adv-x="777" 
d="M102.5 51.5q-48.5 63.5 -48.5 178.5q0 155 87.5 240.5t246.5 85.5q160 0 247.5 -85t87.5 -240q0 -116 -49 -179.5t-137 -63.5q-51 0 -92 22.5t-57 76.5q-16 -53 -57 -76t-91 -23q-89 0 -137.5 63.5zM308.5 121.5q20.5 32.5 20.5 89.5v51h118v-51q0 -59 21.5 -90.5
t57.5 -31.5q77 0 77 135q0 226 -215 226q-214 0 -214 -226q0 -135 76 -135q38 0 58.5 32.5z" />
    <glyph glyph-name="uni0278" unicode="&#x278;" horiz-adv-x="596" 
d="M500 76q-52 -71 -150 -85v-198h-104v197q-98 14 -150 85t-52 196t52 196t150 85v189h104v-189q99 -14 150.5 -85t51.5 -196q0 -124 -52 -195zM415 152.5q21 43.5 21 118.5q0 76 -21 119.5t-65 57.5v-353q44 14 65 57.5zM181 151.5q21 -43.5 65 -57.5v354
q-44 -14 -65 -57.5t-21 -119.5t21 -119.5z" />
    <glyph glyph-name="uni0279" unicode="&#x279;" horiz-adv-x="403" 
d="M325 543v-543h-107v85q-49 -96 -142 -96q-35 0 -62 13l23 111q32 -9 65 -9q36 0 60.5 13.5t44.5 42.5v383h118z" />
    <glyph glyph-name="uni027A" unicode="&#x27a;" horiz-adv-x="403" 
d="M325 0h-107v85q-49 -96 -142 -96q-35 0 -62 13l23 111q32 -9 65 -9q36 0 60.5 13.5t44.5 42.5v608h118v-768z" />
    <glyph glyph-name="uni027B" unicode="&#x27b;" horiz-adv-x="403" 
d="M441 -204q-34 -14 -76 -14q-158 0 -158 152v131q-48 -76 -131 -76q-35 0 -62 13l23 111q35 -10 65 -10q36 0 61 13.5t44 42.5v384h118v-602q0 -29 11 -43t36 -14q26 0 53 7z" />
    <glyph glyph-name="uni027C" unicode="&#x27c;" horiz-adv-x="403" 
d="M389 541l-23 -111q-32 9 -65 9q-36 0 -61 -13t-44 -42v-591h-118v750h107v-84q50 95 142 95q35 0 62 -13z" />
    <glyph glyph-name="uni027D" unicode="&#x27d;" horiz-adv-x="403" 
d="M207 -102q11 -14 35 -14q28 0 53 7l17 -95q-34 -14 -76 -14q-158 0 -158 152v609h107v-84q50 95 142 95q35 0 62 -13l-23 -111q-32 9 -65 9q-36 0 -61 -13t-44 -42v-443q0 -29 11 -43z" />
    <glyph glyph-name="uni027E" unicode="&#x27e;" horiz-adv-x="335" 
d="M312 525l-17 -95q-29 8 -53 8t-35 -14t-11 -43v-381h-118v388q0 151 158 151q42 0 76 -14z" />
    <glyph glyph-name="uni027F" unicode="&#x27f;" horiz-adv-x="336" 
d="M257 388v-388h-118v381q0 29 -11 43t-35 14t-53 -8l-17 95q35 14 77 14q157 0 157 -151z" />
    <glyph glyph-name="uni0280" unicode="&#x280;" horiz-adv-x="544" 
d="M268 180h-72v-180h-118v543h218q96 0 148 -47.5t52 -133.5q0 -63 -28.5 -105.5t-81.5 -61.5l149 -195h-141zM196 280h100q79 0 79 79q0 81 -82 81h-97v-160z" />
    <glyph glyph-name="uni0281" unicode="&#x281;" horiz-adv-x="544" 
d="M467.5 286.5q28.5 -42.5 28.5 -105.5q0 -86 -52 -133.5t-148 -47.5h-218v543h118v-180h72l126 180h141l-149 -195q53 -19 81.5 -61.5zM375 184q0 79 -79 79h-100v-160h97q82 0 82 81z" />
    <glyph glyph-name="uni0282" unicode="&#x282;" horiz-adv-x="468" 
d="M138 -3v-57q0 -57 49 -57q26 0 56 8l17 -95q-35 -14 -79 -14q-155 0 -155 151v108l41 96q74 -45 156 -45q96 0 96 60q0 25 -16.5 39.5t-53.5 23.5l-71 17q-75 18 -109.5 54.5t-34.5 98.5q0 80 53 125t148 45q48 0 96 -12t87 -33l-44 -95q-72 36 -141 36q-85 0 -85 -55
q0 -22 16.5 -36.5t53.5 -23.5l71 -17q75 -18 109.5 -55t34.5 -101q0 -83 -55 -129t-155 -46q-44 0 -85 9z" />
    <glyph glyph-name="uni0283" unicode="&#x283;" horiz-adv-x="294" 
d="M336 779v-103q-27 4 -58 4q-83 0 -83 -88v-626q0 -91 -52 -141.5t-147 -50.5q-34 0 -59 5v103q27 -4 59 -4q82 0 82 88v626q0 91 52.5 141.5t147.5 50.5q33 0 58 -5z" />
    <glyph glyph-name="uni0284" unicode="&#x284;" horiz-adv-x="315" 
d="M300 330v-98h-83v-189q0 -76 -19.5 -124t-66.5 -80.5t-134 -60.5l-39 97q58 20 87.5 40.5t41.5 50.5t12 80v186h-83v98h83v262q0 91 52.5 141.5t147.5 50.5q33 0 58 -5v-103q-27 4 -58 4q-82 0 -82 -88v-262h83z" />
    <glyph glyph-name="uni0285" unicode="&#x285;" horiz-adv-x="334" 
d="M397 -118v-103q-25 -5 -58 -5q-95 0 -147.5 50.5t-52.5 141.5v397q0 88 -82 88q-32 0 -59 -4v103q25 5 59 5q95 0 147 -50.5t52 -141.5v-397q0 -88 83 -88q31 0 58 4z" />
    <glyph glyph-name="uni0286" unicode="&#x286;" horiz-adv-x="353" 
d="M254 556v-588v-1l124 -81l-44 -61l-92 60q-17 -51 -57 -77.5t-100 -26.5q-69 0 -107.5 35t-38.5 98q0 62 38 100t102 38q28 0 58 -13v553q0 91 52.5 141.5t147.5 50.5q33 0 58 -5v-103q-27 4 -58 4q-82 0 -82 -88v-36h-1zM121 -107.5q14 18.5 16 58.5q-32 16 -58 16
q-44 0 -44 -46q0 -47 44 -47q28 0 42 18.5z" />
    <glyph glyph-name="uni0287" unicode="&#x287;" horiz-adv-x="397" 
d="M298 527v-275h85v-101h-86v-151h-117v151h-152v101h152v254q0 46 -20 68t-63 22q-26 0 -58 -8l-18 100q49 13 95 13q182 0 182 -174z" />
    <glyph glyph-name="uni0288" unicode="&#x288;" horiz-adv-x="390" 
d="M228 -102q11 -14 36 -14q28 0 53 7l16 -95q-34 -14 -76 -14q-158 0 -158 152v507h-85v102h86v150h117v-150h152v-102h-152v-500q0 -29 11 -43z" />
    <glyph glyph-name="uni0289" unicode="&#x289;" horiz-adv-x="602" 
d="M590 229h-79v-229h-107v74q-60 -87 -161 -87q-76 0 -118 46t-42 130v66h-78v98h78v216h118v-216h192v216h118v-216h79v-98zM393 229h-192v-50q0 -82 85 -82q32 0 57.5 12t49.5 38v82z" />
    <glyph glyph-name="uni028A" unicode="&#x28a;" horiz-adv-x="572" 
d="M528 452h-89q40 -47 59.5 -99t19.5 -115q0 -117 -61 -183.5t-171 -66.5t-171 66.5t-61 183.5q0 63 19.5 115t59.5 99h-89v91h196v-106q-34 -36 -49.5 -79.5t-15.5 -101.5q0 -164 113 -164q55 0 82.5 41.5t27.5 122.5q0 58 -15.5 101.5t-49.5 79.5v106h195v-91z" />
    <glyph glyph-name="uni028B" unicode="&#x28b;" horiz-adv-x="559" 
d="M505 346v-74q0 -137 -58.5 -211t-166.5 -74q-99 0 -154 54t-55 151v351h118v-337q0 -114 92 -114q53 0 79.5 44t26.5 134v72q0 103 -62 103q-16 0 -44 -6l-11 101q26 10 64 10q171 0 171 -204z" />
    <glyph glyph-name="uni028C" unicode="&#x28c;" horiz-adv-x="524" 
d="M384 0l-124 424l-122 -424h-119l179 543h127l180 -543h-121z" />
    <glyph glyph-name="uni028D" unicode="&#x28d;" horiz-adv-x="787" 
d="M646 0l-96 420l-97 -420h-120l-99 422l-95 -422h-118l151 543h127l95 -399l93 399h128l151 -543h-120z" />
    <glyph glyph-name="uni028E" unicode="&#x28e;" horiz-adv-x="520" 
d="M380 0l-122 416l-120 -416h-119l171 522q29 90 93.5 148t174.5 93l40 -100q-70 -25 -111.5 -52.5t-66.5 -66.5l181 -544h-121z" />
    <glyph glyph-name="uni028F" unicode="&#x28f;" horiz-adv-x="492" 
d="M484 543l-180 -369v-174h-118v174l-178 369h126l113 -249l112 249h125z" />
    <glyph glyph-name="uni0290" unicode="&#x290;" horiz-adv-x="469" 
d="M542 -204q-35 -14 -78 -14q-146 0 -146 142v76h-285v100l264 343h-255v100h387v-100l-264 -343h270v-169q0 -24 10 -35.5t32 -11.5q26 0 48 6z" />
    <glyph glyph-name="uni0291" unicode="&#x291;" horiz-adv-x="562" 
d="M532 247q31 -32 31 -90q0 -74 -51 -115.5t-144 -41.5h-79l-61 -109l-73 39l39 70h-161v100l264 343h-255v100h387v-100l-266 -345h85l34 62q35 62 74 90.5t89 28.5q56 0 87 -32zM462 153q0 34 -33 34q-20 0 -37 -15.5t-37 -50.5l-12 -23h33q86 0 86 55z" />
    <glyph glyph-name="uni0292" unicode="&#x292;" horiz-adv-x="502" 
d="M413 163.5q59 -49.5 59 -150.5q0 -76 -36 -128.5t-96 -78.5t-134 -26q-116 0 -195 42l41 91q69 -33 144 -33q72 0 113.5 34.5t41.5 100.5q0 128 -180 128h-48v85l175 215h-264v100h399v-101l-181 -217q102 -12 161 -61.5z" />
    <glyph glyph-name="uni0293" unicode="&#x293;" horiz-adv-x="520" 
d="M469 -87q-21 -45 -60 -75l62 -94l-65 -43l-65 99q-55 -20 -124 -20q-98 0 -152 42t-54 118q0 65 38 103t102 38q52 0 94 -29t85 -93l18 -28q21 31 21 84q0 128 -179 128h-48v85l175 215h-265v100h399v-101l-180 -217q102 -12 160.5 -61.5t58.5 -150.5q0 -55 -21 -100z
M284 -112l-19 28q-26 40 -49.5 57t-51.5 17q-25 0 -38.5 -12t-13.5 -34q0 -31 27.5 -47.5t77.5 -16.5q37 0 67 8z" />
    <glyph glyph-name="uni0294" unicode="&#x294;" horiz-adv-x="561" 
d="M458.5 400q-50.5 -72 -143.5 -113v-287h-118v357q185 58 185 201q0 112 -109 112q-41 0 -81.5 -16t-88.5 -51l-61 87q47 44 110 68.5t132 24.5q107 0 166 -57t59 -160q0 -94 -50.5 -166z" />
    <glyph glyph-name="uni0295" unicode="&#x295;" horiz-adv-x="563" 
d="M179 558q0 -69 46.5 -119.5t138.5 -81.5v-357h-118v281q-93 36 -143.5 107t-50.5 167q0 108 63.5 168t178.5 60q141 0 227 -95l-65 -85q-39 35 -77.5 51t-81.5 16q-118 0 -118 -112z" />
    <glyph glyph-name="uni0296" unicode="&#x296;" horiz-adv-x="563" 
d="M460.5 382q50.5 -71 50.5 -167q0 -108 -63.5 -168t-178.5 -60q-141 0 -227 95l65 85q39 -35 77.5 -51t81.5 -16q118 0 118 112q0 69 -46.5 119.5t-138.5 81.5v357h118v-281q93 -36 143.5 -107z" />
    <glyph glyph-name="uni0297" unicode="&#x297;" horiz-adv-x="498" 
d="M40 162q0 188 68.5 291t191.5 103q45 0 89 -14t79 -39l-45 -92q-72 37 -125 37q-137 0 -137 -279q0 -147 36 -213.5t114 -66.5q64 0 119 36l44 -92q-32 -25 -76.5 -39t-92.5 -14q-265 0 -265 382z" />
    <glyph glyph-name="uni0298" unicode="&#x298;" horiz-adv-x="854" 
d="M227.5 33.5q-84.5 46.5 -130 135.5t-45.5 212t45.5 212t130 135.5t199.5 46.5t199.5 -46.5t130 -135.5t45.5 -212t-45.5 -212t-130 -135.5t-199.5 -46.5t-199.5 46.5zM612 169.5q66 75.5 66 211.5t-66 211.5t-185 75.5t-185 -75.5t-66 -211.5t66 -211.5t185 -75.5
t185 75.5zM371.5 329.5q-19.5 19.5 -19.5 53.5q0 35 19.5 54t55.5 19t56 -19.5t20 -52.5q0 -35 -20 -54.5t-56 -19.5t-55.5 19.5z" />
    <glyph glyph-name="uni0299" unicode="&#x299;" horiz-adv-x="557" 
d="M523 166q0 -79 -52 -122.5t-147 -43.5h-246v543h219q92 0 142 -41t50 -117q0 -71 -68 -98q102 -31 102 -121zM195 438v-112h102q72 0 72 56q0 29 -19.5 42.5t-58.5 13.5h-96zM403 164q0 63 -79 63h-129v-123h136q72 0 72 60z" />
    <glyph glyph-name="uni029A" unicode="&#x29a;" horiz-adv-x="562" 
d="M518 271q0 -283 -258 -283q-105 0 -164.5 44.5t-59.5 127.5q0 51 28.5 82.5t74.5 45.5q-39 17 -60.5 46.5t-21.5 69.5q0 76 59.5 114t150.5 38q251 0 251 -285zM366 131.5q31 43.5 31 139.5q0 98 -30.5 142.5t-95.5 44.5q-43 0 -68 -18t-25 -54q0 -66 96 -66h53v-86h-58
q-56 0 -84 -14.5t-28 -52.5q0 -40 30.5 -59.5t79.5 -19.5q68 0 99 43.5z" />
    <glyph glyph-name="uni029B" unicode="&#x29b;" horiz-adv-x="637" 
d="M629 679v-96q-31 3 -46 3q-74 0 -74 -77v-96h-34q-79 35 -148 35q-162 0 -162 -177q0 -176 164 -176q30 0 67 7v113h-99v104h217v-283q-34 -22 -83 -34t-102 -12q-136 0 -210.5 73.5t-74.5 207.5t74.5 207.5t210.5 73.5q42 0 84 -8q9 67 53.5 103t117.5 36q25 0 45 -4z
" />
    <glyph glyph-name="uni029C" unicode="&#x29c;" horiz-adv-x="615" 
d="M537 543v-543h-118v223h-223v-223h-118v543h118v-216h223v216h118z" />
    <glyph glyph-name="uni029D" unicode="&#x29d;" horiz-adv-x="335" 
d="M142.5 640q-19.5 19 -19.5 51q0 34 19 52.5t54 18.5q34 0 53.5 -19t19.5 -51q0 -34 -19 -52.5t-54 -18.5q-34 0 -53.5 19zM334 -175l-92 60q-17 -50 -57.5 -77t-100.5 -27q-69 0 -107 35t-38 98q0 62 38 100t102 38q28 0 58 -13v504h118v-543h-1v-32v-1l124 -81z
M121 -107.5q14 18.5 16 58.5q-32 16 -58 16q-44 0 -44 -46q0 -47 44 -47q28 0 42 18.5z" />
    <glyph glyph-name="uni029E" unicode="&#x29e;" horiz-adv-x="557" 
d="M479 -198h-118v439l-199 -241h-136l196 228l-210 315h136l149 -227l64 73v154h118v-741z" />
    <glyph glyph-name="uni029F" unicode="&#x29f;" horiz-adv-x="457" 
d="M437 105v-105h-359v543h118v-438h241z" />
    <glyph glyph-name="uni02A0" unicode="&#x2a0;" horiz-adv-x="578" 
d="M607 770l-17 -94q-26 7 -47 7q-22 0 -32 -11.5t-10 -35.5v-843h-118v266q-52 -72 -142 -72q-94 0 -145.5 74.5t-51.5 209.5t52.5 210t148.5 75q42 0 77.5 -16t60.5 -45v148q0 141 147 141q42 0 77 -14zM383 399q-21 24 -49.5 37t-59.5 13q-109 0 -109 -174
q0 -178 113 -178q30 0 55 12.5t50 39.5v250z" />
    <glyph glyph-name="uni02A1" unicode="&#x2a1;" horiz-adv-x="561" 
d="M458.5 400q-50.5 -72 -143.5 -113v-61h106v-100h-106v-126h-118v126h-102v100h102v131q185 58 185 201q0 112 -109 112q-41 0 -81.5 -16t-88.5 -51l-61 87q47 44 110 68.5t132 24.5q107 0 166 -57t59 -160q0 -94 -50.5 -166z" />
    <glyph glyph-name="uni02A2" unicode="&#x2a2;" horiz-adv-x="563" 
d="M364 226h102v-100h-102v-126h-118v126h-106v100h106v55q-93 36 -143.5 107t-50.5 167q0 108 63.5 168t178.5 60q141 0 227 -95l-65 -85q-39 35 -77.5 51t-81.5 16q-118 0 -118 -112q0 -69 46.5 -119.5t138.5 -81.5v-131z" />
    <glyph glyph-name="uni02A3" unicode="&#x2a3;" horiz-adv-x="936" 
d="M902 100v-100h-509v77q-52 -90 -152 -90q-94 0 -145.5 74.5t-51.5 209.5t52.5 210t148.5 75q42 0 77.5 -16t60.5 -45v275h118v-227h8h387v-100l-264 -343h270zM333 109.5q25 12.5 50 38.5v251q-21 24 -49.5 37t-59.5 13q-109 0 -109 -174q0 -178 113 -178q30 0 55 12.5z
M501 101l264 342h-218h-46v-342z" />
    <glyph glyph-name="uni02A4" unicode="&#x2a4;" horiz-adv-x="970" 
d="M881.5 163.5q58.5 -49.5 58.5 -150.5q0 -76 -36 -128.5t-96 -78.5t-134 -26q-116 0 -195 42l41 91q71 -33 145 -33q72 0 113 34.5t41 100.5q0 128 -179 128h-48v85l175 215h-220h-46v-443h-108v77q-52 -90 -152 -90q-94 0 -145.5 74.5t-51.5 209.5t52.5 210t148.5 75
q42 0 77.5 -16t60.5 -45v275h118v-227h1h399v-101l-180 -217q102 -12 160.5 -61.5zM333 109.5q25 12.5 50 38.5v251q-21 24 -49.5 37t-59.5 13q-109 0 -109 -174q0 -178 113 -178q30 0 55 12.5z" />
    <glyph glyph-name="uni02A5" unicode="&#x2a5;" horiz-adv-x="1029" 
d="M999 247q31 -32 31 -90q0 -74 -51 -115.5t-144 -41.5h-80l-60 -109l-73 39l39 70h-268v77q-52 -90 -152 -90q-94 0 -145.5 74.5t-51.5 209.5t52.5 210t148.5 75q42 0 77.5 -16t60.5 -45v275h118v-228h8v1h387v-100l-266 -345h85l34 62q35 62 74 90.5t89 28.5q56 0 87 -32
zM333 109.5q25 12.5 50 38.5v251q-21 24 -49.5 37t-59.5 13q-109 0 -109 -174q0 -178 113 -178q30 0 55 12.5zM509 443v1l-8 -1v-342l264 342h-256zM929 153q0 34 -33 34q-20 0 -37 -15.5t-37 -50.5l-13 -23h34q86 0 86 55z" />
    <glyph glyph-name="uni02A6" unicode="&#x2a6;" horiz-adv-x="775" 
d="M705 264.5q34 -36.5 34 -98.5q0 -179 -324 -179q-165 0 -240.5 48.5t-75.5 155.5v250h-85v102h86v150h117v-151h236q41 13 89 13t96 -12t87 -33l-44 -95q-72 36 -141 36q-85 0 -85 -55q0 -22 16.5 -36.5t53.5 -23.5l71 -17q75 -18 109 -54.5zM582.5 106q43.5 16 43.5 50
q0 23 -16.5 36.5t-54.5 22.5l-71 17q-75 18 -109 54.5t-34 98.5q0 30 8 57h-132v-228q0 -46 22.5 -73t72 -39t132.5 -12q95 0 138.5 16z" />
    <glyph glyph-name="uni02A7" unicode="&#x2a7;" horiz-adv-x="637" 
d="M679 779v-103q-27 4 -59 4q-82 0 -82 -88v-626q0 -91 -52.5 -141.5t-147.5 -50.5q-33 0 -58 5v103q27 -4 58 -4q83 0 83 88v475h-204v-254q0 -46 20 -67.5t63 -21.5q27 0 57 8l19 -100q-47 -14 -95 -14q-182 0 -182 174v275h-85v102h86v150h117v-150h204v49
q0 91 52 141.5t147 50.5q34 0 59 -5z" />
    <glyph glyph-name="uni02A8" unicode="&#x2a8;" horiz-adv-x="777" 
d="M728.5 266q34.5 -37 34.5 -105q0 -82 -52 -127.5t-145 -45.5q-86 0 -146 43q-64 -39 -145 -39q-87 0 -131.5 44t-44.5 130v275h-85v102h86v150h117v-152h259q41 15 87 15q45 0 87.5 -12.5t74.5 -35.5l-43 -92q-68 32 -121 32q-60 0 -93.5 -46t-33.5 -129q0 -63 16 -102
l7 9q43 62 80.5 92.5t93.5 30.5q63 0 97.5 -37zM238.5 116q21.5 -21 66.5 -21q28 0 50 6q-42 68 -42 165q0 103 44 177h-140v-256q0 -50 21.5 -71zM634.5 112q22.5 18 22.5 51q0 23 -11 35.5t-31 12.5q-28 0 -49 -19.5t-45 -53.5l-20 -28q32 -16 70 -16q41 0 63.5 18z" />
    <glyph glyph-name="uni02A9" unicode="&#x2a9;" horiz-adv-x="894" 
d="M778.5 509.5q42.5 -46.5 42.5 -130.5v-432q0 -79 -43 -123t-120 -44q-72 0 -124 38l38 87q47 -21 78 -21q53 0 53 71v408q0 83 -88 83q-30 0 -56.5 -10.5t-53.5 -32.5v-403h-118v441h-174v-441h-118v441h-86v102h86v49q0 92 55 142t155 50q32 0 57 -5v-103q-27 4 -57 4
q-92 0 -92 -88v-49h174h107v-67q66 80 165 80q77 0 119.5 -46.5z" />
    <glyph glyph-name="uni02AA" unicode="&#x2aa;" horiz-adv-x="693" 
d="M144.5 35.5q-68.5 48.5 -68.5 155.5v579h118v-556q0 -68 44.5 -96t149.5 -28q81 0 118.5 16t37.5 50q0 23 -16.5 36.5t-53.5 22.5l-71 17q-76 18 -110 54.5t-34 98.5q0 80 53 125t148 45q48 0 96 -12t87 -33l-44 -95q-72 36 -141 36q-85 0 -85 -55q0 -22 16.5 -36.5
t53.5 -23.5l71 -17q75 -18 109 -54.5t34 -98.5q0 -179 -295 -179q-149 0 -217.5 48.5z" />
    <glyph glyph-name="uni02AB" unicode="&#x2ab;" horiz-adv-x="631" 
d="M597 100v-100h-519v770h118v-231l8 -2v6h388v-100l-264 -343h269zM196 101l264 342h-240h-16v3l-8 2v-347z" />
    <glyph glyph-name="uni02AC" unicode="&#x2ac;" horiz-adv-x="568" 
d="M126 408l-100 316h95l58 -230l57 230h97l59 -230l56 230h94l-99 -316h-102l-57 219l-55 -219h-103zM448 316h94l-99 -316h-102l-57 220l-55 -220h-103l-100 316h95l58 -230l57 230h97l59 -230z" />
    <glyph glyph-name="uni02AD" unicode="&#x2ad;" horiz-adv-x="539" 
d="M63 724v-315h94v209h225v-209h93v315h-412zM63 315v-315h94v209h225v-209h93v315h-412z" />
    <glyph glyph-name="uni02AE" unicode="&#x2ae;" horiz-adv-x="607" 
d="M529 543v-750h-118v266q-58 -72 -151 -72q-76 0 -118 46t-42 130v229q0 30 -11 43.5t-35 13.5q-28 0 -53 -7l-17 96q34 14 76 14q158 0 158 -152v-221q0 -82 85 -82q32 0 57.5 12t50.5 38v396h118z" />
    <glyph glyph-name="uni02AF" unicode="&#x2af;" horiz-adv-x="606" 
d="M635 -204q-35 -14 -77 -14q-147 0 -147 142v135q-58 -72 -151 -72q-75 0 -116.5 45t-43.5 127v225q0 29 -11 43t-35 14q-28 0 -53 -7l-17 95q34 14 76 14q158 0 158 -152v-212q0 -82 85 -82q32 0 57.5 12t50.5 38v396h118v-612q0 -24 10 -35.5t32 -11.5q25 0 47 6z" />
    <glyph glyph-name="uni02B0" unicode="&#x2b0;" horiz-adv-x="527" 
d="M410 699q34 -35 34 -100v-284h-101v269q0 56 -68 56q-47 0 -86 -29v-296h-101v577h101v-210q52 52 124 52q63 0 97 -35z" />
    <glyph glyph-name="uni02B1" unicode="&#x2b1;" horiz-adv-x="527" 
d="M410 699q34 -35 34 -100v-284h-101v269q0 56 -68 56q-47 0 -86 -29v-296h-101v483q0 107 121 107q35 0 64 -11l-14 -81q-17 4 -38 4q-17 0 -24.5 -6.5t-7.5 -20.5v-108q52 52 124 52q63 0 97 -35z" />
    <glyph glyph-name="uni02B2" unicode="&#x2b2;" horiz-adv-x="275" 
d="M92.5 793.5q-16.5 15.5 -16.5 41.5q0 27 16.5 42.5t45.5 15.5q28 0 44.5 -15.5t16.5 -41.5q0 -28 -16 -43t-45 -15t-45.5 15.5zM-27 230q47 15 71 30t33.5 36.5t9.5 57.5v370h101v-373q0 -58 -16 -94.5t-55 -62t-110 -47.5z" />
    <glyph glyph-name="uni02B4" unicode="&#x2b4;" horiz-adv-x="367" 
d="M279 724v-409h-92v65q-37 -73 -114 -73q-28 0 -49 9l20 95q26 -8 52 -8q27 0 46.5 9t35.5 29v283h101z" />
    <glyph glyph-name="uni02B7" unicode="&#x2b7;" horiz-adv-x="667" 
d="M635 724l-120 -409h-108l-74 295l-72 -295h-109l-121 409h102l75 -312l74 312h103l77 -313l73 313h100z" />
    <glyph glyph-name="uni02BB" unicode="&#x2bb;" horiz-adv-x="206" 
d="M202 733q-32 -34 -45.5 -67.5t-13.5 -80.5q0 -32 2 -54h-107q-2 22 -2 53q0 55 29.5 101.5t94.5 93.5z" />
    <glyph glyph-name="uni02BC" unicode="&#x2bc;" horiz-adv-x="206" 
d="M4 568q32 34 45 67t13 81q0 32 -2 54h107q2 -22 2 -53q0 -56 -29 -102t-94 -93z" />
    <glyph glyph-name="uni02BD" unicode="&#x2bd;" horiz-adv-x="206" 
d="M65.5 615.5q-29.5 46.5 -29.5 101.5q0 31 2 53h107q-2 -22 -2 -54q0 -47 13.5 -80.5t45.5 -67.5l-42 -46q-65 47 -94.5 93.5z" />
    <glyph glyph-name="uni02BE" unicode="&#x2be;" horiz-adv-x="194" 
d="M148.5 717.5q45.5 -38.5 45.5 -108.5t-45.5 -109t-128.5 -39v74q80 0 80 74q0 73 -80 73v74q83 0 128.5 -38.5z" />
    <glyph glyph-name="uni02BF" unicode="&#x2bf;" horiz-adv-x="194" 
d="M45.5 500q-45.5 39 -45.5 109t45.5 108.5t128.5 38.5v-74q-80 0 -80 -73q0 -74 80 -74v-74q-83 0 -128.5 39z" />
    <glyph glyph-name="circumflex" unicode="&#x2c6;" horiz-adv-x="500" 
d="M407 625v-10h-83l-75 95l-75 -95h-81v10l102 159h110z" />
    <glyph glyph-name="caron" unicode="&#x2c7;" horiz-adv-x="500" 
d="M407 784v-10l-102 -159h-110l-102 159v10h83l75 -95l75 95h81z" />
    <glyph glyph-name="uni02C8" unicode="&#x2c8;" horiz-adv-x="199" 
d="M54 770h91v-224h-91v224z" />
    <glyph glyph-name="uni02C9" unicode="&#x2c9;" horiz-adv-x="500" 
d="M92 725h316v-87h-316v87z" />
    <glyph glyph-name="uni02CA" unicode="&#x2ca;" horiz-adv-x="500" 
d="M183 625l97 159h125v-10l-132 -159h-90v10z" />
    <glyph glyph-name="uni02CB" unicode="&#x2cb;" horiz-adv-x="500" 
d="M107 774v10h125l89 -159v-10h-90z" />
    <glyph glyph-name="uni02CC" unicode="&#x2cc;" horiz-adv-x="199" 
d="M54 -13h91v-224h-91v224z" />
    <glyph glyph-name="uni02CD" unicode="&#x2cd;" horiz-adv-x="500" 
d="M92 -82h316v-87h-316v87z" />
    <glyph glyph-name="uni02D0" unicode="&#x2d0;" horiz-adv-x="300" 
d="M44 543h213l-97 -189h-20zM140 188h20l97 -188h-213z" />
    <glyph glyph-name="uni02D1" unicode="&#x2d1;" horiz-adv-x="300" 
d="M44 543h213l-97 -189h-20z" />
    <glyph glyph-name="breve" unicode="&#x2d8;" horiz-adv-x="500" 
d="M137.5 654q-40.5 42 -43.5 121h70q12 -76 87 -76q76 0 88 76h67q-3 -79 -43.5 -121t-112.5 -42t-112.5 42z" />
    <glyph glyph-name="dotaccent" unicode="&#x2d9;" horiz-adv-x="500" 
d="M196.5 632q-19.5 19 -19.5 51q0 34 19 52.5t54 18.5q34 0 53.5 -19t19.5 -51q0 -34 -19 -52.5t-54 -18.5q-34 0 -53.5 19z" />
    <glyph glyph-name="ring" unicode="&#x2da;" horiz-adv-x="500" 
d="M154.5 631.5q-34.5 30.5 -34.5 85.5t34.5 85.5t95.5 30.5t95.5 -30.5t34.5 -85.5t-34.5 -85.5t-95.5 -30.5t-95.5 30.5zM305 717q0 57 -55 57t-55 -57t55 -57t55 57z" />
    <glyph glyph-name="ogonek" unicode="&#x2db;" horiz-adv-x="500" 
d="M92.5 -201q-31.5 26 -31.5 73q0 44 28 80t77 57l76 -9q-83 -50 -83 -106q0 -42 47 -42q28 0 59 15l27 -63q-22 -15 -51.5 -23t-60.5 -8q-56 0 -87.5 26z" />
    <glyph glyph-name="tilde" unicode="&#x2dc;" horiz-adv-x="500" 
d="M275.5 625.5q-19.5 9.5 -45.5 27.5q-17 13 -28 18.5t-23 5.5q-33 0 -41 -59h-67q1 68 29.5 106t78.5 38q26 0 45.5 -9.5t45.5 -27.5q17 -13 28 -18.5t23 -5.5q34 0 41 59h67q-1 -68 -29.5 -106t-78.5 -38q-26 0 -45.5 9.5z" />
    <glyph glyph-name="hungarumlaut" unicode="&#x2dd;" horiz-adv-x="500" 
d="M124 625l57 159h108v-10l-89 -159h-76v10zM276 625l58 159h108v-10l-91 -159h-75v10z" />
    <glyph glyph-name="uni02DE" unicode="&#x2de;" horiz-adv-x="200" 
d="M200 347l-19 -95q-73 0 -116.5 35.5t-53.5 101.5l-80 -12l-5 87l193 29l-5 -43q-1 -11 -1 -26q0 -77 68 -77h19z" />
    <glyph glyph-name="uni02E0" unicode="&#x2e0;" horiz-adv-x="455" 
d="M309 327q13 -30 18.5 -49t5.5 -37q0 -44 -27.5 -67.5t-77.5 -23.5t-77.5 23.5t-27.5 67.5q0 18 5 37t19 49l37 84l-155 313h104l95 -214l95 214h102l-154 -311zM245.5 225.5q6.5 8.5 6.5 24.5q0 25 -20 62l-5 11l-5 -11q-20 -40 -20 -62q0 -33 26 -33q11 0 17.5 8.5z" />
    <glyph glyph-name="uni02E4" unicode="&#x2e4;" horiz-adv-x="496" 
d="M171 732q0 -95 148 -147v-270h-101v208q-75 29 -115.5 82.5t-40.5 124.5q0 82 51.5 127t145.5 45q116 0 186 -74l-55 -71q-32 25 -62.5 37t-64.5 12q-92 0 -92 -74z" />
    <glyph glyph-name="uni02F3" unicode="&#x2f3;" horiz-adv-x="500" 
d="M154 -258.5q-34 30.5 -34 85.5t34 85t96 30t96 -30t34 -85t-34 -85.5t-96 -30.5t-96 30.5zM305 -173q0 56 -55 56t-55 -56q0 -57 55 -57t55 57z" />
    <glyph glyph-name="gravecomb" unicode="&#x300;" 
d="M-143 774v10h125l89 -159v-10h-90z" />
    <glyph glyph-name="acutecomb" unicode="&#x301;" 
d="M-67 625l97 159h125v-10l-132 -159h-90v10z" />
    <glyph glyph-name="uni0302" unicode="&#x302;" 
d="M157 625v-10h-83l-75 95l-75 -95h-81v10l102 159h110z" />
    <glyph glyph-name="tildecomb" unicode="&#x303;" 
d="M25.5 625.5q-19.5 9.5 -45.5 27.5q-17 13 -28 18.5t-23 5.5q-33 0 -41 -59h-67q1 68 29.5 106t78.5 38q26 0 45.5 -9.5t45.5 -27.5q17 -13 28 -18.5t23 -5.5q34 0 41 59h67q-1 -68 -29.5 -106t-78.5 -38q-26 0 -45.5 9.5z" />
    <glyph glyph-name="uni0304" unicode="&#x304;" 
d="M-158 725h316v-87h-316v87z" />
    <glyph glyph-name="uni0306" unicode="&#x306;" 
d="M-112.5 654q-40.5 42 -43.5 121h70q12 -76 87 -76q76 0 88 76h67q-3 -79 -43.5 -121t-112.5 -42t-112.5 42z" />
    <glyph glyph-name="uni0307" unicode="&#x307;" 
d="M-53.5 632q-19.5 19 -19.5 51q0 34 19 52.5t54 18.5q34 0 53.5 -19t19.5 -51q0 -34 -19 -52.5t-54 -18.5q-34 0 -53.5 19z" />
    <glyph glyph-name="uni0308" unicode="&#x308;" 
d="M-144.5 636q-17.5 18 -17.5 48q0 32 17 49t49 17q30 0 48 -17.5t18 -47.5q0 -32 -17.5 -49.5t-48.5 -17.5t-48.5 18zM47.5 636q-17.5 18 -17.5 48q0 32 17.5 49t48.5 17t48.5 -17.5t17.5 -47.5q0 -32 -17.5 -49.5t-48.5 -17.5t-48.5 18z" />
    <glyph glyph-name="hookabovecomb" unicode="&#x309;" 
d="M-43 638q0 24 8.5 36t24.5 24q10 6 15 12t5 15q0 18 -25 18q-29 0 -60 -18l-26 57q22 14 51 22t58 8q47 0 73 -20t26 -57q0 -24 -10 -36.5t-29 -25.5q-14 -9 -21.5 -17t-7.5 -21q0 -8 2 -20h-82q-2 12 -2 23z" />
    <glyph glyph-name="uni030A" unicode="&#x30a;" 
d="M-95.5 631.5q-34.5 30.5 -34.5 85.5t34.5 85.5t95.5 30.5t95.5 -30.5t34.5 -85.5t-34.5 -85.5t-95.5 -30.5t-95.5 30.5zM55 717q0 57 -55 57t-55 -57t55 -57t55 57z" />
    <glyph glyph-name="uni030B" unicode="&#x30b;" 
d="M-126 625l57 159h108v-10l-89 -159h-76v10zM26 625l58 159h108v-10l-91 -159h-75v10z" />
    <glyph glyph-name="uni030C" unicode="&#x30c;" 
d="M157 784v-10l-102 -159h-110l-102 159v10h83l75 -95l75 95h81z" />
    <glyph glyph-name="uni030F" unicode="&#x30f;" 
d="M-110 615l-82 159v10h107l51 -159v-10h-76zM42 615l-81 159v10h107l49 -159v-10h-75z" />
    <glyph glyph-name="uni0310" unicode="&#x310;" 
d="M-45.5 756q-16.5 16 -16.5 44t16.5 44t45.5 16t45.5 -16t16.5 -43q0 -29 -16.5 -45t-45.5 -16t-45.5 16zM-120 655q-44 43 -47 120h68q12 -83 100 -83q89 0 101 83h65q-3 -77 -47 -120t-120 -43t-120 43z" />
    <glyph glyph-name="uni0311" unicode="&#x311;" 
d="M112.5 742q40.5 -42 43.5 -121h-70q-12 76 -87 76q-76 0 -88 -76h-67q3 79 43.5 121t112.5 42t112.5 -42z" />
    <glyph glyph-name="uni0312" unicode="&#x312;" 
d="M96 776q-25 -28 -35.5 -55t-10.5 -68q0 -21 4 -45h-109q-4 24 -4 44q0 48 26.5 88t85.5 82z" />
    <glyph glyph-name="uni0313" unicode="&#x313;" 
d="M-100 635q25 28 35.5 55t10.5 68q0 21 -4 45h109q4 -24 4 -44q0 -48 -26.5 -88t-85.5 -82z" />
    <glyph glyph-name="uni0314" unicode="&#x314;" 
d="M-28.5 671q-26.5 40 -26.5 88q0 20 4 44h109q-4 -24 -4 -45q0 -41 10.5 -68t35.5 -55l-43 -46q-59 42 -85.5 82z" />
    <glyph glyph-name="uni0315" unicode="&#x315;" 
d="M-152 613q19 27 26 51t7 66q0 36 -4 61h109q4 -23 4 -49q0 -51 -20 -87.5t-74 -82.5z" />
    <glyph glyph-name="uni0316" unicode="&#x316;" 
d="M-141 -96v12h135l138 -133v-12h-100z" />
    <glyph glyph-name="uni0317" unicode="&#x317;" 
d="M-139 -217l147 133h135v-12l-182 -133h-100v12z" />
    <glyph glyph-name="uni0318" unicode="&#x318;" 
d="M114 -51v-246h-75v87h-170v72h170v87h75z" />
    <glyph glyph-name="uni0319" unicode="&#x319;" 
d="M131 -210h-170v-87h-75v246h75v-87h170v-72z" />
    <glyph glyph-name="uni031A" unicode="&#x31a;" 
d="M38 748h-76v114h-168v72h244v-186z" />
    <glyph glyph-name="uni031B" unicode="&#x31b;" 
d="M-48 543q47 0 65 16.5t18 61.5q0 25 -5 61h99q5 -30 5 -59q0 -55 -18 -87t-58 -46.5t-107 -14.5z" />
    <glyph glyph-name="uni031C" unicode="&#x31c;" 
d="M-56 -258.5q-34 30.5 -34 85.5t34 85t96 30v-59q-55 0 -55 -56q0 -57 55 -57v-59q-62 0 -96 30.5z" />
    <glyph glyph-name="uni031D" unicode="&#x31d;" 
d="M142 -172v-72h-284v72h104v121h76v-121h104z" />
    <glyph glyph-name="uni031E" unicode="&#x31e;" 
d="M142 -176h-104v-121h-76v121h-104v72h284v-72z" />
    <glyph glyph-name="uni031F" unicode="&#x31f;" 
d="M117 -214l-75 3v-81h-84v85l-76 3l1 70l75 -3v81h84v-85l76 -3z" />
    <glyph glyph-name="uni0320" unicode="&#x320;" 
d="M-118 -137h236v-74h-236v74z" />
    <glyph glyph-name="uni0321" unicode="&#x321;" 
d="M-92 -218q-41 0 -75 14l17 100q25 -7 51 -7q24 0 35 13.5t11 43.5v88h120v-95q0 -157 -159 -157z" />
    <glyph glyph-name="uni0322" unicode="&#x322;" 
d="M-67 34h120v-93q0 -28 10.5 -40t33.5 -12q24 0 48 6l17 -99q-34 -14 -75 -14q-154 0 -154 152v100z" />
    <glyph glyph-name="dotbelowcomb" unicode="&#x323;" 
d="M-53.5 -202q-19.5 19 -19.5 51q0 34 19 52.5t54 18.5q34 0 53.5 -19t19.5 -51q0 -34 -19 -52.5t-54 -18.5q-34 0 -53.5 19z" />
    <glyph glyph-name="uni0324" unicode="&#x324;" 
d="M-144.5 -202q-17.5 18 -17.5 48q0 31 17 48.5t49 17.5q30 0 48 -18t18 -47q0 -32 -17.5 -49.5t-48.5 -17.5t-48.5 18zM47.5 -202q-17.5 18 -17.5 48q0 31 17.5 48.5t48.5 17.5t48.5 -18t17.5 -47q0 -32 -17.5 -49.5t-48.5 -17.5t-48.5 18z" />
    <glyph glyph-name="uni0325" unicode="&#x325;" 
d="M-96 -258.5q-34 30.5 -34 85.5t34 85t96 30t96 -30t34 -85t-34 -85.5t-96 -30.5t-96 30.5zM55 -173q0 56 -55 56t-55 -56q0 -57 55 -57t55 57z" />
    <glyph glyph-name="uni0326" unicode="&#x326;" 
d="M-98 -239q25 28 35.5 55t10.5 68q0 21 -4 45h109q4 -24 4 -44q0 -48 -26.5 -88t-85.5 -82z" />
    <glyph glyph-name="uni0327" unicode="&#x327;" 
d="M97 -74q29 -22 29 -62q0 -48 -34.5 -74.5t-97.5 -26.5t-115 25l19 57q51 -17 85 -17q51 0 51 33q0 32 -45 32q-21 0 -41 -7l-27 31l43 103l79 -7l-48 -67q14 2 21 2q52 0 81 -22z" />
    <glyph glyph-name="uni0328" unicode="&#x328;" 
d="M-157.5 -201q-31.5 26 -31.5 73q0 44 28 80t77 57l76 -9q-83 -50 -83 -106q0 -42 47 -42q27 0 59 15l27 -63q-22 -15 -51.5 -23t-60.5 -8q-56 0 -87.5 26z" />
    <glyph glyph-name="uni0329" unicode="&#x329;" 
d="M-45 -13h91v-224h-91v224z" />
    <glyph glyph-name="uni032A" unicode="&#x32a;" 
d="M142 -86v-211h-75v139h-134v-139h-75v211h284z" />
    <glyph glyph-name="uni032B" unicode="&#x32b;" 
d="M180 -94q0 -59 -27 -91.5t-77 -32.5q-26 0 -46 12.5t-31 35.5q-10 -23 -30 -35.5t-46 -12.5q-50 0 -77 32.5t-27 91.5h59q5 -52 46 -52t46 52h62q5 -52 45 -52q42 0 47 52h56z" />
    <glyph glyph-name="uni032C" unicode="&#x32c;" 
d="M175 -84v-12l-117 -133h-116l-117 133v12h89l88 -81l87 81h86z" />
    <glyph glyph-name="uni032D" unicode="&#x32d;" 
d="M175 -217v-12h-89l-88 81l-87 -81h-86v12l117 133h116z" />
    <glyph glyph-name="uni032E" unicode="&#x32e;" 
d="M-112.5 -183q-40.5 42 -43.5 121h70q12 -76 87 -76q76 0 88 76h67q-3 -79 -43.5 -121t-112.5 -42t-112.5 42z" />
    <glyph glyph-name="uni032F" unicode="&#x32f;" 
d="M112.5 -107q40.5 -42 43.5 -121h-70q-12 76 -87 76q-76 0 -88 -76h-67q3 79 43.5 121t112.5 42t112.5 -42z" />
    <glyph glyph-name="uni0330" unicode="&#x330;" 
d="M25.5 -220.5q-19.5 9.5 -45.5 27.5q-17 13 -28 18.5t-23 5.5q-33 0 -41 -59h-67q1 68 29.5 106t78.5 38q26 0 45.5 -9.5t45.5 -27.5q17 -13 28 -18.5t23 -5.5q34 0 41 59h67q-1 -68 -29.5 -106t-78.5 -38q-26 0 -45.5 9.5z" />
    <glyph glyph-name="uni0331" unicode="&#x331;" 
d="M-158 -95h316v-87h-316v87z" />
    <glyph glyph-name="uni0332" unicode="&#x332;" 
d="M-216 -109h433v-98h-433v98z" />
    <glyph glyph-name="uni0333" unicode="&#x333;" 
d="M-216 -109h432v-81h-432v81zM-216 -257h432v-81h-432v81z" />
    <glyph glyph-name="uni0334" unicode="&#x334;" 
d="M25.5 346.5q-19.5 9.5 -45.5 27.5q-17 13 -28 18.5t-23 5.5q-33 0 -41 -59h-67q1 68 29.5 106t78.5 38q26 0 45.5 -9.5t45.5 -27.5q17 -13 28 -18.5t23 -5.5q34 0 41 59h67q-1 -68 -29.5 -106t-78.5 -38q-26 0 -45.5 9.5z" />
    <glyph glyph-name="uni0339" unicode="&#x339;" 
d="M-40 -230q55 0 55 57q0 56 -55 56v59q62 0 96 -30t34 -85t-34 -85.5t-96 -30.5v59z" />
    <glyph glyph-name="uni033A" unicode="&#x33a;" 
d="M142 -51v-211h-284v211h75v-139h134v139h75z" />
    <glyph glyph-name="uni033B" unicode="&#x33b;" 
d="M112 -285h-224v222h224v-222zM39 -133h-78v-82h78v82z" />
    <glyph glyph-name="uni033C" unicode="&#x33c;" 
d="M152.5 -121q27.5 -33 27.5 -92h-59q-5 53 -46 53t-46 -53h-62q-5 53 -45 53q-42 0 -47 -53h-56q0 59 27.5 92t76.5 33q26 0 45.5 -13t30.5 -36q11 23 31 36t46 13q49 0 76.5 -33z" />
    <glyph glyph-name="uni033D" unicode="&#x33d;" 
d="M331 746l72 -64l-53 -55l-75 68l-76 -68l-52 55l71 64l-71 65l52 54l76 -68l75 68l53 -54z" />
    <glyph glyph-name="uni0344" unicode="&#x344;" 
d="M-44 625l36 159h123v-10l-70 -159h-89v10zM-184.5 636q-17.5 17 -17.5 47q0 31 17.5 48.5t47.5 17.5q32 0 49.5 -17t17.5 -48t-17.5 -48t-49.5 -17q-30 0 -47.5 17zM141 636q-17 17 -17 47q0 31 17 48.5t48 17.5t48.5 -17t17.5 -48t-17 -48t-49 -17q-31 0 -48 17z" />
    <glyph glyph-name="uni035C" unicode="&#x35c;" 
d="M297 -96q-42 -64 -119.5 -99.5t-177.5 -35.5t-177.5 35.5t-119.5 99.5l52 43q81 -90 246 -90q164 0 247 90z" />
    <glyph glyph-name="uni0361" unicode="&#x361;" 
d="M-297 655q42 64 119.5 99.5t177.5 35.5t177.5 -35.5t119.5 -99.5l-52 -43q-81 90 -246 90q-164 0 -247 -90z" />
    <glyph glyph-name="pi" unicode="&#x3c0;" horiz-adv-x="650" 
d="M504 441v-286q0 -30 12.5 -43t40.5 -13q16 0 32 3l11 -100q-36 -9 -74 -9q-140 0 -140 138v310h-112q-2 -149 -19 -252t-54 -189h-129q43 93 61 192.5t20 248.5h-126v102h601v-102h-124z" />
    <glyph glyph-name="uni0460" unicode="&#x460;" horiz-adv-x="848" 
d="M110.5 74q-58.5 86 -58.5 243q0 105 26.5 212.5t74.5 194.5h129q-107 -175 -107 -406q0 -227 106 -227q83 0 83 143v172h120v-172q0 -70 21 -106.5t62 -36.5q105 0 105 227q0 233 -106 406h129q48 -87 74.5 -194.5t26.5 -212.5q0 -157 -58.5 -243t-165.5 -86
q-58 0 -96.5 26t-51.5 74q-13 -48 -51.5 -74t-97.5 -26q-106 0 -164.5 86z" />
    <glyph glyph-name="uni0461" unicode="&#x461;" horiz-adv-x="722" 
d="M700 543q-1 -130 -38.5 -269.5t-109.5 -273.5h-128l-63 243l-61 -243h-127l-152 543h120l98 -429l81 288l-37 141h118l95 -423q88 203 86 423h118z" />
    <glyph glyph-name="uni0462" unicode="&#x462;" horiz-adv-x="622" 
d="M520 405.5q63 -60.5 63 -174.5q0 -110 -64.5 -170.5t-178.5 -60.5h-257v580h-115v90h115v100h120v-100h283v-90h-283v-114h132q122 0 185 -60.5zM426.5 138.5q32.5 31.5 32.5 94.5q0 125 -118 125h-138v-251h130q61 0 93.5 31.5z" />
    <glyph glyph-name="uni0463" unicode="&#x463;" horiz-adv-x="549" 
d="M455.5 328.5q57.5 -43.5 57.5 -137.5t-62 -142.5t-155 -48.5h-201v463h-67v75h67v186h118v-186h226v-75h-226v-91h84q101 0 158.5 -43.5zM365.5 122.5q26.5 23.5 26.5 71.5q0 44 -25 65t-70 21h-84v-181h78q48 0 74.5 23.5z" />
    <glyph glyph-name="uni0464" unicode="&#x464;" horiz-adv-x="881" 
d="M850 42q-33 -26 -84.5 -40t-112.5 -14q-148 0 -234 85.5t-95 240.5h-121v-314h-120v724h120v-303h124q17 148 102.5 232t219.5 84q54 0 105 -14t90 -40l-42 -92q-76 38 -155 38q-82 0 -133.5 -54t-63.5 -154h287v-107h-289q10 -107 62.5 -161.5t147.5 -54.5q91 0 150 35z
" />
    <glyph glyph-name="uni0465" unicode="&#x465;" horiz-adv-x="722" 
d="M692 34q-30 -22 -75 -34t-91 -12q-108 0 -174 62t-76 176h-80v-226h-118v543h118v-216h82q16 106 81.5 167.5t164.5 61.5q44 0 87 -12t75 -34l-40 -83q-61 31 -117 31t-89.5 -36t-41.5 -103h203v-86h-204q7 -72 43 -108t98 -36q64 0 116 29z" />
    <glyph glyph-name="uni0466" unicode="&#x466;" horiz-adv-x="647" 
d="M442 201h-64v-201h-110v201h-64l-59 -201h-125l238 724h131l238 -724h-126zM412 302l-90 308l-89 -308h179z" />
    <glyph glyph-name="uni0467" unicode="&#x467;" horiz-adv-x="537" 
d="M359 141h-41v-141h-101v141h-42l-45 -141h-117l191 543h127l193 -543h-119zM329 234l-63 196l-61 -196h124z" />
    <glyph glyph-name="uni0468" unicode="&#x468;" horiz-adv-x="878" 
d="M673 201h-64v-201h-110v201h-64l-58 -201h-126l65 199h-113v-199h-120v724h120v-419h148l138 419h132l237 -724h-126zM644 302l-90 307l-89 -307h179z" />
    <glyph glyph-name="uni0469" unicode="&#x469;" horiz-adv-x="756" 
d="M578 141h-42v-141h-100v141h-43l-44 -141h-118l49 140h-84v-140h-118v543h118v-303h119l107 303h128l192 -543h-119zM548 234l-63 197l-62 -197h125z" />
    <glyph glyph-name="uni046A" unicode="&#x46a;" horiz-adv-x="919" 
d="M743 341.5q55 -39.5 82.5 -118t40.5 -223.5h-120q-7 107 -25 165.5t-57 89.5t-111 49l-33 9v-313h-118v313l-34 -9q-73 -18 -112.5 -49.5t-58 -90t-25.5 -164.5h-120q13 145 41 223.5t83.5 118t158.5 58.5l14 3l-206 321h637l-207 -321l14 -3q101 -19 156 -58.5zM336 621
l127 -200l126 200h-253z" />
    <glyph glyph-name="uni046B" unicode="&#x46b;" horiz-adv-x="727" 
d="M590.5 265.5q42.5 -29.5 64 -91.5t29.5 -174h-117q-1 79 -13.5 123t-41 66t-80.5 30l-12 2v-221h-113v221l-11 -2q-53 -7 -81.5 -29t-41 -66.5t-13.5 -123.5h-116q8 112 29 174t63.5 91.5t117.5 37.5l2 1l-158 239h533l-159 -239l1 -1q75 -8 117.5 -37.5zM280 448
l86 -135l84 135h-170z" />
    <glyph glyph-name="uni046C" unicode="&#x46c;" horiz-adv-x="1136" 
d="M960 341.5q55 -39.5 82.5 -118t40.5 -223.5h-120q-7 107 -25 165.5t-57 89.5t-111 49l-33 9v-313h-118v313l-34 -9q-73 -18 -112.5 -49.5t-58 -90t-25.5 -164.5h-120q12 125 33 198.5t62 116.5h-161v-315h-120v724h120v-305h353l-196 305h637l-207 -321l14 -3
q101 -19 156 -58.5zM553 621l127 -199l126 199h-253z" />
    <glyph glyph-name="uni046D" unicode="&#x46d;" horiz-adv-x="932" 
d="M795.5 265.5q42.5 -29.5 63.5 -91.5t29 -174h-116q-1 79 -13.5 123t-41 66t-80.5 30l-12 2v-221h-113v221l-12 -2q-52 -7 -80.5 -29t-41 -66.5t-13.5 -123.5h-116q5 83 18 138t37 89h-108v-227h-118v543h118v-219h251l-144 219h533l-160 -240h2q75 -8 117.5 -37.5z
M485 448l85 -135l85 135h-170z" />
    <glyph glyph-name="uni046E" unicode="&#x46e;" horiz-adv-x="568" 
d="M513 -202l-78 -26q-9 22 -21 31.5t-29 9.5q-11 0 -23.5 -4t-26.5 -9q-35 -13 -63.5 -19.5t-71.5 -6.5q-181 0 -181 154q0 71 34 107.5t80 47.5t107 14q44 1 79 8.5t62.5 34t27.5 77.5q0 58 -39.5 82t-107.5 24h-124v100h116q62 0 95 28t33 76q0 53 -39 79t-106 26
q-42 0 -79.5 -10.5t-78.5 -29.5l-40 94q74 38 155 47l-92 174h88l65 -134l36 77q31 67 98 67q28 0 47 -11t34 -34l-40 -38q-16 19 -34 19q-10 0 -17 -5.5t-15 -19.5l-51 -96q90 -12 141 -60t51 -129q0 -113 -108 -160q136 -39 136 -171q0 -93 -50.5 -142t-112 -63.5
t-129.5 -17.5q-50 -2 -77 -13t-27 -46q0 -53 73 -53q25 0 47 5.5t55 15.5q28 9 45 13.5t35 4.5q86 0 121 -118z" />
    <glyph glyph-name="uni046F" unicode="&#x46f;" horiz-adv-x="479" 
d="M446 -189l-75 -25q-8 22 -19.5 31.5t-28.5 9.5q-11 0 -19 -3t-21 -10q-21 -12 -43.5 -19t-60.5 -7q-164 0 -164 145q0 90 52.5 121.5t136.5 34.5q49 1 83 16t34 62q0 38 -28 52.5t-83 14.5h-93v86h88q46 0 70.5 16.5t24.5 49.5q0 35 -27.5 53.5t-76.5 18.5
q-56 0 -120 -31l-33 91q55 25 115 34l-90 168h86l62 -129l33 73q32 66 96 66q26 0 45.5 -11t35.5 -34l-38 -37q-18 19 -35 19q-11 0 -18.5 -5.5t-14.5 -18.5l-47 -91q67 -11 107 -47t40 -101q0 -40 -21.5 -69.5t-60.5 -46.5q47 -14 75.5 -45.5t28.5 -82.5q0 -100 -72 -133.5
t-165 -37.5q-37 -2 -56 -12t-19 -41q0 -51 61 -51q18 0 32.5 4.5t37.5 14.5q19 10 34.5 15t34.5 5q83 0 116 -113z" />
    <glyph glyph-name="uni0470" unicode="&#x470;" horiz-adv-x="706" 
d="M662 724v-285q0 -237 -249 -261v-178h-120v178q-249 24 -249 261v285h120v-283q0 -69 31 -106.5t98 -47.5v437h120v-437q67 10 98 47.5t31 106.5v283h120z" />
    <glyph glyph-name="uni0471" unicode="&#x471;" horiz-adv-x="717" 
d="M304 -12q-233 12 -233 220v335h118v-322q0 -58 26.5 -89.5t88.5 -36.5v593h112v-594q63 6 96 51t33 126q0 88 -9.5 145.5t-28.5 126.5h120q36 -135 36 -270q0 -133 -63.5 -205.5t-183.5 -78.5v-196h-112v195z" />
    <glyph glyph-name="uni0472" unicode="&#x472;" horiz-adv-x="715" 
d="M583.5 642.5q78.5 -94.5 78.5 -280.5t-78.5 -280.5t-226.5 -94.5t-226.5 94.5t-78.5 280.5t78.5 280.5t226.5 94.5t226.5 -94.5zM175 410q43 17 86 17q22 0 48.5 -5.5t51.5 -11.5q33 -9 57 -13.5t49 -4.5q34 0 73 12q-14 226 -183 226q-167 0 -182 -220zM540 314
q-43 -17 -86 -17q-22 0 -48.5 5.5t-51.5 11.5q-33 9 -57 13.5t-49 4.5q-37 0 -74 -13q15 -225 183 -225q166 0 183 220z" />
    <glyph glyph-name="uni0473" unicode="&#x473;" horiz-adv-x="560" 
d="M455.5 483.5q60.5 -72.5 60.5 -212.5t-61 -212t-175 -72t-175 72t-61 212t61.5 212.5t175.5 72.5t174.5 -72.5zM162 316q26 10 55 10q21 0 41.5 -5t24.5 -6q42 -12 68 -12q24 0 48 6q-12 143 -118 143t-119 -136zM398 226q-30 -10 -56 -10q-20 0 -40.5 5t-24.5 6
q-44 12 -69 12q-23 0 -47 -6q12 -142 119 -142q105 0 118 135z" />
    <glyph glyph-name="uni0474" unicode="&#x474;" horiz-adv-x="701" 
d="M671.5 724.5q29.5 -15.5 55.5 -49.5l-65 -76q-20 17 -32.5 24.5t-23.5 7.5q-14 0 -24.5 -14t-21.5 -48l-178 -569h-131l-227 724h126l168 -599l132 478q37 137 154 137q38 0 67.5 -15.5z" />
    <glyph glyph-name="uni0475" unicode="&#x475;" horiz-adv-x="590" 
d="M565 543.5q29 -15.5 56 -48.5l-65 -74q-18 17 -30 23.5t-24 6.5q-15 0 -26 -13.5t-21 -45.5l-129 -392h-127l-180 543h121l124 -425l89 309q36 132 147 132q36 0 65 -15.5z" />
    <glyph glyph-name="uni0476" unicode="&#x476;" horiz-adv-x="701" 
d="M228 781l-119 133v12h113l88 -133v-12h-82zM381 781l-119 133v12h112l87 -133v-12h-80zM671.5 724.5q29.5 -15.5 55.5 -49.5l-65 -76q-20 17 -32.5 24.5t-23.5 7.5q-14 0 -24.5 -14t-21.5 -48l-178 -569h-131l-227 724h126l168 -599l132 478q37 137 154 137
q38 0 67.5 -15.5z" />
    <glyph glyph-name="uni0477" unicode="&#x477;" horiz-adv-x="590" 
d="M565 543.5q29 -15.5 56 -48.5l-65 -74q-18 17 -30 23.5t-24 6.5q-15 0 -26 -13.5t-21 -45.5l-129 -392h-127l-180 543h121l124 -425l89 309q36 132 147 132q36 0 65 -15.5zM166 615l-82 159v10h107l51 -159v-10h-76zM318 615l-81 159v10h107l49 -159v-10h-75z" />
    <glyph glyph-name="uni0478" unicode="&#x478;" horiz-adv-x="1200" 
d="M130.5 81.5q-78.5 94.5 -78.5 280.5t78.5 280.5t226.5 94.5t226.5 -94.5t78.5 -280.5t-78.5 -280.5t-226.5 -94.5t-226.5 94.5zM538 362q0 268 -181 268t-181 -268t181 -268t181 268zM1181 543l-171 -522q-29 -90 -93.5 -148t-174.5 -93l-40 100q70 25 111.5 52.5
t66.5 66.5l-181 544h121l122 -417l120 417h119z" />
    <glyph glyph-name="uni0479" unicode="&#x479;" horiz-adv-x="1041" 
d="M105 59q-61 72 -61 212t61.5 212.5t175.5 72.5t174.5 -72.5t60.5 -212.5t-61 -212t-175 -72t-175 72zM395 271q0 179 -114 179q-116 0 -116 -179t115 -179t115 179zM1022 543l-171 -522q-29 -90 -93.5 -148t-174.5 -93l-40 100q70 25 111.5 52.5t66.5 66.5l-181 544h121
l122 -417l120 417h119z" />
    <glyph glyph-name="uni047A" unicode="&#x47a;" horiz-adv-x="792" 
d="M676 110q-64 -90 -185 -106q-12 -25 -36.5 -38t-58.5 -13t-58.5 13t-36.5 38q-121 16 -185 106t-64 252t64 252t185 106q11 25 35.5 38t59.5 13q34 0 58.5 -13.5t36.5 -37.5q121 -16 185 -106t64 -252t-64 -252zM585 187.5q31 61.5 31 174.5t-31 174.5t-96 77.5
q-12 -23 -36 -35t-57 -12q-66 0 -93 47q-65 -16 -96 -77.5t-31 -174.5t31 -174t96 -78q24 47 93 47q33 0 57 -12t36 -35q65 16 96 77.5z" />
    <glyph glyph-name="uni047B" unicode="&#x47b;" horiz-adv-x="597" 
d="M510.5 93q-42.5 -66 -122.5 -85q-23 -49 -90 -49q-32 0 -55 13t-34 36q-80 18 -122.5 84t-42.5 179q0 112 42 178t123 86q21 49 89 49q33 0 56 -12.5t34 -36.5q81 -19 123 -85t42 -179q0 -112 -42.5 -178zM418.5 170q13.5 38 13.5 101t-13.5 101t-41.5 55
q-12 -16 -32.5 -24.5t-46.5 -8.5q-52 0 -79 33q-28 -17 -41 -55.5t-13 -100.5t13 -100t41 -55q24 32 79 32q26 0 46.5 -8.5t32.5 -23.5q28 16 41.5 54z" />
    <glyph glyph-name="uni047C" unicode="&#x47c;" horiz-adv-x="848" 
d="M262 790q0 67 30 104t84 37q22 0 38.5 -5t42.5 -17q25 -12 43 -17.5t41 -5.5h35v-95h-27q-37 0 -61 7.5t-52 20.5q-30 16 -49 16q-37 0 -40 -45h-85zM340 609q22 16 31.5 37.5t9.5 53.5q0 34 -6 61h110q5 -21 5 -57q0 -47 -26 -81.5t-85 -65.5zM110.5 74
q-58.5 86 -58.5 243q0 105 26.5 212.5t74.5 194.5h129q-107 -175 -107 -406q0 -227 106 -227q83 0 83 143h120q0 -143 83 -143q105 0 105 227q0 233 -106 406h129q48 -87 74.5 -194.5t26.5 -212.5q0 -157 -58.5 -243t-165.5 -86q-58 0 -96.5 26t-51.5 74q-13 -48 -51.5 -74
t-97.5 -26q-106 0 -164.5 86z" />
    <glyph glyph-name="uni047D" unicode="&#x47d;" horiz-adv-x="777" 
d="M222 600q0 67 30 104t84 37q22 0 38.5 -5t42.5 -17q25 -12 43 -17.5t41 -5.5h35v-95h-27q-37 0 -61 7.5t-52 20.5q-30 16 -49 16q-37 0 -40 -45h-85zM300 419q22 16 31.5 37.5t9.5 53.5q0 34 -6 61h110q5 -21 5 -57q0 -47 -26 -81.5t-85 -65.5zM100 52q-46 64 -46 182
q0 89 22.5 169.5t62.5 139.5h126q-43 -62 -67 -146.5t-24 -162.5q0 -74 17.5 -109.5t59.5 -35.5q37 0 57.5 32.5t20.5 90.5h118q0 -59 21.5 -91t57.5 -32q42 0 59.5 35.5t17.5 109.5q0 81 -25 165.5t-67 143.5h126q40 -58 63 -139t23 -170q0 -119 -46.5 -182.5t-139.5 -63.5
q-51 0 -91.5 22.5t-56.5 76.5q-16 -53 -57 -76t-92 -23q-94 0 -140 64z" />
    <glyph glyph-name="uni047E" unicode="&#x47e;" horiz-adv-x="848" 
d="M271 787l-17 128h340l-17 -128h-50l-8 63h-61l-8 -61h-52l-8 61h-61l-8 -63h-50zM769.5 529.5q26.5 -107.5 26.5 -212.5q0 -157 -58.5 -243t-165.5 -86q-58 0 -96.5 26t-51.5 74q-13 -48 -51.5 -74t-97.5 -26q-106 0 -164.5 86t-58.5 243q0 105 26.5 212.5t74.5 194.5
h129q-107 -175 -107 -406q0 -227 106 -227q83 0 83 143v172h120v-172q0 -70 21 -106.5t62 -36.5q105 0 105 227q0 233 -106 406h129q48 -87 74.5 -194.5z" />
    <glyph glyph-name="uni047F" unicode="&#x47f;" horiz-adv-x="722" 
d="M216 617l-17 128h340l-17 -128h-50l-9 63h-60l-8 -61h-52l-8 61h-61l-8 -63h-50zM700 543q-1 -130 -38.5 -269.5t-109.5 -273.5h-128l-63 243l-61 -243h-127l-152 543h120l98 -429l81 288l-37 141h118l95 -423q88 203 86 423h118z" />
    <glyph glyph-name="uni0480" unicode="&#x480;" horiz-adv-x="595" 
d="M218.5 557q-52.5 -72 -52.5 -201q0 -128 53.5 -193t158.5 -65q46 0 83 9v-294h-119v176q-143 10 -221.5 103t-78.5 255q0 119 39.5 207t113 135.5t172.5 47.5q54 0 106.5 -14.5t91.5 -40.5l-42 -92q-78 39 -158 39q-94 0 -146.5 -72z" />
    <glyph glyph-name="uni0481" unicode="&#x481;" horiz-adv-x="475" 
d="M194.5 402q-33.5 -46 -33.5 -129q0 -177 140 -177q30 0 67 10v-293h-117v178q-101 13 -156 84t-55 191q0 87 31 152.5t87.5 101.5t131.5 36q44 0 86.5 -12.5t74.5 -35.5l-42 -92q-68 32 -121 32q-60 0 -93.5 -46z" />
    <glyph glyph-name="uni0482" unicode="&#x482;" horiz-adv-x="612" 
d="M383 387l-76 -160l169 -84l-41 -83l-168 84l-84 -176l-78 36l85 179l-170 85l41 82l169 -84l75 159l-169 85l41 82l168 -84l84 177l78 -37l-85 -178l170 -85l-41 -83z" />
    <glyph glyph-name="uni0483" unicode="&#x483;" 
d="M206.5 752q17.5 -17 17.5 -46q0 -31 -17 -47.5t-49 -16.5h-250q-5 -23 -21.5 -36t-44.5 -13q-31 0 -48.5 17t-17.5 47q0 31 17 47.5t49 16.5h250q5 23 21.5 35.5t44.5 12.5q31 0 48.5 -17z" />
    <glyph glyph-name="uni0484" unicode="&#x484;" 
d="M-217 683q-13 0 -24 -4t-30 -13q-29 -15 -56.5 -23t-69.5 -8h-30v105h40q25 0 45 6t48 19q26 12 45.5 18.5t44.5 6.5q60 0 93 -41t33 -115h-94q-3 49 -45 49z" />
    <glyph glyph-name="uni0485" unicode="&#x485;" 
d="M-30 688.5q-26 34.5 -26 81.5q0 36 5 57h110q-6 -27 -6 -61q0 -32 9.5 -53.5t31.5 -37.5l-39 -52q-59 31 -85 65.5z" />
    <glyph glyph-name="uni0486" unicode="&#x486;" 
d="M-94 675q22 16 31.5 37.5t9.5 53.5q0 34 -6 61h110q5 -21 5 -57q0 -47 -26 -81.5t-85 -65.5z" />
    <glyph glyph-name="uni0488" unicode="&#x488;" 
d="M90.5 757.5q32.5 -33.5 34.5 -96.5h-56q-10 61 -70 61q-61 0 -70 -61h-54q2 63 34.5 96.5t90.5 33.5t90.5 -33.5zM-209.5 570.5q32.5 -33.5 34.5 -96.5h-56q-10 61 -70 61q-61 0 -70 -61h-54q2 63 34.5 96.5t90.5 33.5t90.5 -33.5zM390.5 570.5q32.5 -33.5 34.5 -96.5
h-56q-10 61 -70 61q-61 0 -70 -61h-54q2 63 34.5 96.5t90.5 33.5t90.5 -33.5zM-309.5 323.5q32.5 -33.5 34.5 -96.5h-56q-10 61 -70 61q-61 0 -70 -61h-54q2 63 34.5 96.5t90.5 33.5t90.5 -33.5zM490.5 323.5q32.5 -33.5 34.5 -96.5h-56q-10 61 -70 61q-61 0 -70 -61h-54
q2 63 34.5 96.5t90.5 33.5t90.5 -33.5zM-209.5 76.5q32.5 -33.5 34.5 -96.5h-56q-10 61 -70 61q-61 0 -70 -61h-54q2 63 34.5 96.5t90.5 33.5t90.5 -33.5zM390.5 76.5q32.5 -33.5 34.5 -96.5h-56q-10 61 -70 61q-61 0 -70 -61h-54q2 63 34.5 96.5t90.5 33.5t90.5 -33.5z
M90.5 -110.5q32.5 -33.5 34.5 -96.5h-56q-10 61 -70 61q-61 0 -70 -61h-54q2 63 34.5 96.5t90.5 33.5t90.5 -33.5z" />
    <glyph glyph-name="uni0489" unicode="&#x489;" 
d="M86 776q-22 -25 -31.5 -49.5t-9.5 -60.5q0 -19 4 -41h-98q-4 22 -4 40q0 42 24 78t77 75zM-286 694q2 -34 12.5 -58t35.5 -50q14 -14 32 -26l-70 -69q-15 10 -30 25q-22 22 -32.5 49.5t-10.5 65.5q0 28 6 64zM409 570q-34 -2 -58 -12.5t-50 -35.5q-14 -14 -26 -32l-69 70
q10 15 25 30q22 22 49.5 32.5t65.5 10.5q28 0 64 -6zM-492 372q25 -22 49.5 -31.5t60.5 -9.5q19 0 41 4v-98q-22 -4 -40 -4q-42 0 -78 24t-75 77zM488 198q-25 23 -49.5 32t-60.5 9q-11 0 -41 -3v98q30 3 40 3q43 0 79 -23.5t74 -76.5zM-408 2q33 1 57 11.5t50 36.5
q17 18 26 32l70 -70q-3 -4 -10.5 -13t-15.5 -17q-23 -23 -51 -33.5t-66 -10.5q-29 0 -63 6zM282 -122q-1 33 -11.5 57t-36.5 50q-18 17 -32 26l70 70q4 -3 13 -10.5t17 -15.5q23 -23 33.5 -51t10.5 -66q0 -29 -6 -63zM-88 -204q23 25 32 49.5t9 60.5q0 11 -3 41h98
q3 -30 3 -40q0 -43 -23.5 -79t-76.5 -74z" />
    <glyph glyph-name="uni1D52" unicode="&#x1d52;" horiz-adv-x="493" 
d="M103.5 359q-49.5 54 -49.5 161q0 106 50 160t143 54t142.5 -54t49.5 -160q0 -107 -50 -161t-143 -54t-142.5 54zM335 520q0 124 -88 124q-90 0 -90 -124q0 -125 89 -125t89 125z" />
    <glyph glyph-name="uni1D9C" unicode="&#x1d9c;" horiz-adv-x="424" 
d="M104.5 360q-54.5 54 -54.5 154q0 65 25.5 115t71.5 77.5t107 27.5q36 0 70 -10t61 -27l-35 -78q-58 24 -98 24q-47 0 -73 -33t-26 -92q0 -120 110 -120q48 0 92 22l35 -77q-50 -37 -132 -37q-99 0 -153.5 54z" />
    <glyph glyph-name="uni1E00" unicode="&#x1e00;" horiz-adv-x="669" 
d="M470 167h-273l-52 -167h-125l249 724h131l249 -724h-127zM437 272l-104 336l-104 -336h208zM239 -258.5q-34 30.5 -34 85.5t34 85t96 30t96 -30t34 -85t-34 -85.5t-96 -30.5t-96 30.5zM390 -173q0 56 -55 56t-55 -56q0 -57 55 -57t55 57z" />
    <glyph glyph-name="uni1E01" unicode="&#x1e01;" horiz-adv-x="533" 
d="M408 510q54 -46 54 -131v-379h-105v76q-52 -87 -162 -87q-78 0 -121 42.5t-43 119.5q0 98 75.5 143.5t239.5 46.5v25q0 84 -109 84q-64 0 -127 -28l-30 92q89 42 177 42q97 0 151 -46zM346 146v114q-105 -1 -153.5 -25t-48.5 -74q0 -72 80 -72q70 0 122 57zM149 -258.5
q-34 30.5 -34 85.5t34 85t96 30t96 -30t34 -85t-34 -85.5t-96 -30.5t-96 30.5zM300 -173q0 56 -55 56t-55 -56q0 -57 55 -57t55 57z" />
    <glyph glyph-name="uni1E0C" unicode="&#x1e0c;" horiz-adv-x="692" 
d="M555 633q84 -91 84 -270q0 -180 -84.5 -271.5t-244.5 -91.5h-227v724h228q160 0 244 -91zM515 363q0 254 -207 254h-105v-510h105q207 0 207 256zM281.5 -202q-19.5 19 -19.5 51q0 34 19 52.5t54 18.5q34 0 53.5 -19t19.5 -51q0 -34 -19 -52.5t-54 -18.5q-34 0 -53.5 19z
" />
    <glyph glyph-name="uni1E0D" unicode="&#x1e0d;" horiz-adv-x="578" 
d="M393 0v77q-52 -90 -152 -90q-94 0 -145.5 74.5t-51.5 209.5t52.5 210t148.5 75q42 0 77.5 -16t60.5 -45v275h118v-770h-108zM333 109.5q25 12.5 50 38.5v251q-21 24 -49.5 37t-59.5 13q-109 0 -109 -174q0 -178 113 -178q30 0 55 12.5zM237.5 -202q-19.5 19 -19.5 51
q0 34 19 52.5t54 18.5q34 0 53.5 -19t19.5 -51q0 -34 -19 -52.5t-54 -18.5q-34 0 -53.5 19z" />
    <glyph glyph-name="uni1E0E" unicode="&#x1e0e;" horiz-adv-x="692" 
d="M555 633q84 -91 84 -270q0 -180 -84.5 -271.5t-244.5 -91.5h-227v724h228q160 0 244 -91zM515 363q0 254 -207 254h-105v-510h105q207 0 207 256zM177 -95h316v-87h-316v87z" />
    <glyph glyph-name="uni1E0F" unicode="&#x1e0f;" horiz-adv-x="578" 
d="M393 0v77q-52 -90 -152 -90q-94 0 -145.5 74.5t-51.5 209.5t52.5 210t148.5 75q42 0 77.5 -16t60.5 -45v275h118v-770h-108zM333 109.5q25 12.5 50 38.5v251q-21 24 -49.5 37t-59.5 13q-109 0 -109 -174q0 -178 113 -178q30 0 55 12.5zM133 -95h316v-87h-316v87z" />
    <glyph glyph-name="uni1E10" unicode="&#x1e10;" horiz-adv-x="692" 
d="M555 633q84 -91 84 -270q0 -180 -84.5 -271.5t-244.5 -91.5h-227v724h228q160 0 244 -91zM515 363q0 254 -207 254h-105v-510h105q207 0 207 256zM237 -239q25 28 35.5 55t10.5 68q0 21 -4 45h109q4 -24 4 -44q0 -48 -26.5 -88t-85.5 -82z" />
    <glyph glyph-name="uni1E11" unicode="&#x1e11;" horiz-adv-x="578" 
d="M393 0v77q-52 -90 -152 -90q-94 0 -145.5 74.5t-51.5 209.5t52.5 210t148.5 75q42 0 77.5 -16t60.5 -45v275h118v-770h-108zM333 109.5q25 12.5 50 38.5v251q-21 24 -49.5 37t-59.5 13q-109 0 -109 -174q0 -178 113 -178q30 0 55 12.5zM193 -239q25 28 35.5 55t10.5 68
q0 21 -4 45h109q4 -24 4 -44q0 -48 -26.5 -88t-85.5 -82z" />
    <glyph glyph-name="uni1E20" unicode="&#x1e20;" horiz-adv-x="668" 
d="M518 808h-316v87h316v-87zM604 405v-362q-40 -27 -97 -41.5t-119 -14.5q-160 0 -248 98.5t-88 276.5t88 276.5t248 98.5q61 0 115 -14t92 -40l-36 -96q-92 43 -173 43q-210 0 -210 -268t212 -268q47 0 96 13v191h-123v107h243z" />
    <glyph glyph-name="uni1E21" unicode="&#x1e21;" horiz-adv-x="581" 
d="M503 543v-527q0 -112 -64.5 -174t-180.5 -62q-47 0 -92 10t-80 29l33 94q65 -28 127 -28q139 0 139 130v74q-51 -72 -142 -72q-95 0 -147 70.5t-52 198.5t53 199t150 71q47 0 85.5 -20t63.5 -56v63h107zM335 139q25 12 50 39v220q-21 25 -49.5 38t-59.5 13
q-111 0 -111 -159q0 -163 115 -163q30 0 55 12zM129 725h316v-87h-316v87z" />
    <glyph glyph-name="uni1E24" unicode="&#x1e24;" horiz-adv-x="703" 
d="M619 724v-724h-120v314h-296v-314h-120v724h120v-303h296v303h120zM297.5 -202q-19.5 19 -19.5 51q0 34 19 52.5t54 18.5q34 0 53.5 -19t19.5 -51q0 -34 -19 -52.5t-54 -18.5q-34 0 -53.5 19z" />
    <glyph glyph-name="uni1E25" unicode="&#x1e25;" horiz-adv-x="587" 
d="M471.5 509.5q42.5 -46.5 42.5 -130.5v-379h-118v363q0 83 -89 83q-31 0 -57.5 -10.5t-53.5 -32.5v-403h-118v770h118v-282q63 68 155 68q78 0 120.5 -46.5zM243.5 -202q-19.5 19 -19.5 51q0 34 19 52.5t54 18.5q34 0 53.5 -19t19.5 -51q0 -34 -19 -52.5t-54 -18.5
q-34 0 -53.5 19z" />
    <glyph glyph-name="uni1E28" unicode="&#x1e28;" horiz-adv-x="703" 
d="M619 724v-724h-120v314h-296v-314h-120v724h120v-303h296v303h120zM246 -74q29 -22 29 -62q0 -48 -34.5 -74.5t-97.5 -26.5t-115 25l19 57q51 -17 85 -17q51 0 51 33q0 32 -45 32q-21 0 -41 -7l-27 31l43 103l79 -7l-48 -67q14 2 21 2q52 0 81 -22z" />
    <glyph glyph-name="uni1E29" unicode="&#x1e29;" horiz-adv-x="587" 
d="M471.5 509.5q42.5 -46.5 42.5 -130.5v-379h-118v363q0 83 -89 83q-31 0 -57.5 -10.5t-53.5 -32.5v-403h-118v770h118v-282q63 68 155 68q78 0 120.5 -46.5zM240 -74q29 -22 29 -62q0 -48 -34.5 -74.5t-97.5 -26.5t-115 25l19 57q51 -17 85 -17q51 0 51 33q0 32 -45 32
q-21 0 -41 -7l-27 31l43 103l79 -7l-48 -67q14 2 21 2q52 0 81 -22z" />
    <glyph glyph-name="uni1E2A" unicode="&#x1e2a;" horiz-adv-x="703" 
d="M619 724v-724h-120v314h-296v-314h-120v724h120v-303h296v303h120zM238.5 -183q-40.5 42 -43.5 121h70q12 -76 87 -76q76 0 88 76h67q-3 -79 -43.5 -121t-112.5 -42t-112.5 42z" />
    <glyph glyph-name="uni1E2B" unicode="&#x1e2b;" horiz-adv-x="587" 
d="M471.5 509.5q42.5 -46.5 42.5 -130.5v-379h-118v363q0 83 -89 83q-31 0 -57.5 -10.5t-53.5 -32.5v-403h-118v770h118v-282q63 68 155 68q78 0 120.5 -46.5zM184.5 -183q-40.5 42 -43.5 121h70q12 -76 87 -76q76 0 88 76h67q-3 -79 -43.5 -121t-112.5 -42t-112.5 42z" />
    <glyph glyph-name="uni1E36" unicode="&#x1e36;" horiz-adv-x="530" 
d="M504 108v-108h-421v724h120v-616h301zM247.5 -202q-19.5 19 -19.5 51q0 34 19 52.5t54 18.5q34 0 53.5 -19t19.5 -51q0 -34 -19 -52.5t-54 -18.5q-34 0 -53.5 19z" />
    <glyph glyph-name="uni1E37" unicode="&#x1e37;" horiz-adv-x="319" 
d="M76 130v640h118v-617q0 -29 12 -42t38 -13q17 0 36 4l8 -100q-36 -9 -75 -9q-137 0 -137 137zM122.5 -202q-19.5 19 -19.5 51q0 34 19 52.5t54 18.5q34 0 53.5 -19t19.5 -51q0 -34 -19 -52.5t-54 -18.5q-34 0 -53.5 19z" />
    <glyph glyph-name="uni1E38" unicode="&#x1e38;" horiz-adv-x="530" 
d="M330 808h-316v87h316v-87zM504 108v-108h-421v724h120v-616h301zM354.5 -99q19.5 -19 19.5 -51q0 -34 -19 -52.5t-54 -18.5q-34 0 -53.5 19t-19.5 51q0 34 19 52.5t54 18.5q34 0 53.5 -19z" />
    <glyph glyph-name="uni1E39" unicode="&#x1e39;" horiz-adv-x="319" 
d="M10 941h250v-87h-250v87zM76 130v640h118v-617q0 -29 12 -42t38 -13q17 0 36 4l8 -100q-36 -9 -75 -9q-137 0 -137 137zM122.5 -202q-19.5 19 -19.5 51q0 34 19 52.5t54 18.5q34 0 53.5 -19t19.5 -51q0 -34 -19 -52.5t-54 -18.5q-34 0 -53.5 19z" />
    <glyph glyph-name="uni1E3A" unicode="&#x1e3a;" horiz-adv-x="530" 
d="M504 108v-108h-421v724h120v-616h301zM143 -95h316v-87h-316v87z" />
    <glyph glyph-name="uni1E3B" unicode="&#x1e3b;" horiz-adv-x="319" 
d="M76 130v640h118v-617q0 -29 12 -42t38 -13q17 0 36 4l8 -100q-36 -9 -75 -9q-137 0 -137 137zM51 -93h250v-87h-250v87z" />
    <glyph glyph-name="uni1E3E" unicode="&#x1e3e;" horiz-adv-x="851" 
d="M445 781h-100v12l147 133h135v-12zM768 724v-724h-117v533l-163 -389h-126l-164 390v-534h-115v724h145l198 -470l196 470h146z" />
    <glyph glyph-name="uni1E3F" unicode="&#x1e3f;" horiz-adv-x="885" 
d="M770.5 509.5q41.5 -46.5 41.5 -130.5v-379h-118v363q0 83 -83 83q-28 0 -53.5 -10.5t-53.5 -33.5q1 -7 1 -23v-379h-118v363q0 83 -84 83q-29 0 -54 -10.5t-53 -32.5v-403h-118v543h107v-67q66 80 162 80q51 0 87.5 -22t54.5 -64q69 86 166 86q74 0 115.5 -46.5zM379 625
l97 159h125v-10l-132 -159h-90v10z" />
    <glyph glyph-name="uni1E42" unicode="&#x1e42;" horiz-adv-x="851" 
d="M768 724v-724h-117v533l-163 -389h-126l-164 390v-534h-115v724h145l198 -470l196 470h146zM370.5 -202q-19.5 19 -19.5 51q0 34 19 52.5t54 18.5q34 0 53.5 -19t19.5 -51q0 -34 -19 -52.5t-54 -18.5q-34 0 -53.5 19z" />
    <glyph glyph-name="uni1E43" unicode="&#x1e43;" horiz-adv-x="885" 
d="M770.5 509.5q41.5 -46.5 41.5 -130.5v-379h-118v363q0 83 -83 83q-28 0 -53.5 -10.5t-53.5 -33.5q1 -7 1 -23v-379h-118v363q0 83 -84 83q-29 0 -54 -10.5t-53 -32.5v-403h-118v543h107v-67q66 80 162 80q51 0 87.5 -22t54.5 -64q69 86 166 86q74 0 115.5 -46.5z
M391.5 -202q-19.5 19 -19.5 51q0 34 19 52.5t54 18.5q34 0 53.5 -19t19.5 -51q0 -34 -19 -52.5t-54 -18.5q-34 0 -53.5 19z" />
    <glyph glyph-name="uni1E44" unicode="&#x1e44;" horiz-adv-x="725" 
d="M308.5 802q-19.5 19 -19.5 51q0 34 19 52.5t54 18.5q34 0 53.5 -19t19.5 -51q0 -34 -19 -52.5t-54 -18.5q-34 0 -53.5 19zM641 724v-724h-115l-325 521v-521h-118v724h116l324 -520v520h118z" />
    <glyph glyph-name="uni1E45" unicode="&#x1e45;" horiz-adv-x="585" 
d="M469.5 509.5q42.5 -46.5 42.5 -130.5v-379h-118v363q0 83 -88 83q-30 0 -56.5 -10.5t-53.5 -32.5v-403h-118v543h107v-67q66 80 165 80q77 0 119.5 -46.5zM242.5 640q-19.5 19 -19.5 51q0 34 19 52.5t54 18.5q34 0 53.5 -19t19.5 -51q0 -34 -19 -52.5t-54 -18.5
q-34 0 -53.5 19z" />
    <glyph glyph-name="uni1E46" unicode="&#x1e46;" horiz-adv-x="725" 
d="M641 724v-724h-115l-325 521v-521h-118v724h116l324 -520v520h118zM308.5 -202q-19.5 19 -19.5 51q0 34 19 52.5t54 18.5q34 0 53.5 -19t19.5 -51q0 -34 -19 -52.5t-54 -18.5q-34 0 -53.5 19z" />
    <glyph glyph-name="uni1E47" unicode="&#x1e47;" horiz-adv-x="585" 
d="M469.5 509.5q42.5 -46.5 42.5 -130.5v-379h-118v363q0 83 -88 83q-30 0 -56.5 -10.5t-53.5 -32.5v-403h-118v543h107v-67q66 80 165 80q77 0 119.5 -46.5zM243.5 -202q-19.5 19 -19.5 51q0 34 19 52.5t54 18.5q34 0 53.5 -19t19.5 -51q0 -34 -19 -52.5t-54 -18.5
q-34 0 -53.5 19z" />
    <glyph glyph-name="uni1E48" unicode="&#x1e48;" horiz-adv-x="725" 
d="M641 724v-724h-115l-325 521v-521h-118v724h116l324 -520v520h118zM204 -95h316v-87h-316v87z" />
    <glyph glyph-name="uni1E49" unicode="&#x1e49;" horiz-adv-x="585" 
d="M469.5 509.5q42.5 -46.5 42.5 -130.5v-379h-118v363q0 83 -88 83q-30 0 -56.5 -10.5t-53.5 -32.5v-403h-118v543h107v-67q66 80 165 80q77 0 119.5 -46.5zM139 -95h316v-87h-316v87z" />
    <glyph glyph-name="uni1E5A" unicode="&#x1e5a;" horiz-adv-x="634" 
d="M308 259h-105v-259h-120v724h254q112 0 173.5 -61t61.5 -171q0 -84 -36 -140t-105 -79l183 -273h-144zM203 362h134q111 0 111 128t-115 128h-130v-256zM282.5 -202q-19.5 19 -19.5 51q0 34 19 52.5t54 18.5q34 0 53.5 -19t19.5 -51q0 -34 -19 -52.5t-54 -18.5
q-34 0 -53.5 19z" />
    <glyph glyph-name="uni1E5B" unicode="&#x1e5b;" horiz-adv-x="403" 
d="M389 541l-23 -111q-32 9 -65 9q-36 0 -61 -13t-44 -42v-384h-118v543h107v-84q50 95 142 95q35 0 62 -13zM83.5 -202q-19.5 19 -19.5 51q0 34 19 52.5t54 18.5q34 0 53.5 -19t19.5 -51q0 -34 -19 -52.5t-54 -18.5q-34 0 -53.5 19z" />
    <glyph glyph-name="uni1E5C" unicode="&#x1e5c;" horiz-adv-x="634" 
d="M475 808h-316v87h316v-87zM614 0h-144l-162 259h-105v-259h-120v724h254q112 0 173.5 -61t61.5 -171q0 -84 -36 -140t-105 -79zM203 362h134q111 0 111 128t-115 128h-130v-256zM389.5 -99q19.5 -19 19.5 -51q0 -34 -19 -52.5t-54 -18.5q-34 0 -53.5 19t-19.5 51
q0 34 19 52.5t54 18.5q34 0 53.5 -19z" />
    <glyph glyph-name="uni1E5D" unicode="&#x1e5d;" horiz-adv-x="403" 
d="M359 638h-250v87h250v-87zM389 541l-23 -111q-32 9 -65 9q-36 0 -61 -13t-44 -42v-384h-118v543h107v-84q50 95 142 95q35 0 62 -13zM190.5 -99q19.5 -19 19.5 -51q0 -34 -19 -52.5t-54 -18.5q-34 0 -53.5 19t-19.5 51q0 34 19 52.5t54 18.5q34 0 53.5 -19z" />
    <glyph glyph-name="uni1E5E" unicode="&#x1e5e;" horiz-adv-x="634" 
d="M308 259h-105v-259h-120v724h254q112 0 173.5 -61t61.5 -171q0 -84 -36 -140t-105 -79l183 -273h-144zM203 362h134q111 0 111 128t-115 128h-130v-256zM178 -95h316v-87h-316v87z" />
    <glyph glyph-name="uni1E5F" unicode="&#x1e5f;" horiz-adv-x="403" 
d="M389 541l-23 -111q-32 9 -65 9q-36 0 -61 -13t-44 -42v-384h-118v543h107v-84q50 95 142 95q35 0 62 -13zM12 -93h250v-87h-250v87z" />
    <glyph glyph-name="uni1E60" unicode="&#x1e60;" horiz-adv-x="563" 
d="M215.5 802q-19.5 19 -19.5 51q0 34 19 52.5t54 18.5q34 0 53.5 -19t19.5 -51q0 -34 -19 -52.5t-54 -18.5q-34 0 -53.5 19zM141.5 4.5q-61.5 16.5 -108.5 47.5l40 95q96 -55 195 -55q67 0 101.5 25.5t34.5 73.5q0 40 -25 65.5t-79 40.5l-82 23q-93 25 -134.5 73t-41.5 128
q0 101 63 158t176 57q54 0 112 -12.5t108 -35.5l-40 -96q-105 40 -183 40q-59 0 -89.5 -23.5t-30.5 -67.5q0 -41 24.5 -66t78.5 -40l82 -23q93 -25 134.5 -73t41.5 -129q0 -105 -66 -163.5t-185 -58.5q-65 0 -126.5 16.5z" />
    <glyph glyph-name="uni1E61" unicode="&#x1e61;" horiz-adv-x="468" 
d="M116 2q-52 14 -90 39l41 96q74 -45 156 -45q96 0 96 60q0 25 -16.5 39.5t-53.5 23.5l-71 17q-75 18 -109.5 54.5t-34.5 98.5q0 80 53 125t148 45q48 0 96 -12t87 -33l-44 -95q-72 36 -141 36q-85 0 -85 -55q0 -22 16.5 -36.5t53.5 -23.5l71 -17q75 -18 109.5 -55
t34.5 -101q0 -83 -55 -129t-155 -46q-55 0 -107 14zM172.5 640q-19.5 19 -19.5 51q0 34 19 52.5t54 18.5q34 0 53.5 -19t19.5 -51q0 -34 -19 -52.5t-54 -18.5q-34 0 -53.5 19z" />
    <glyph glyph-name="uni1E62" unicode="&#x1e62;" horiz-adv-x="563" 
d="M141.5 4.5q-61.5 16.5 -108.5 47.5l40 95q96 -55 195 -55q67 0 101.5 25.5t34.5 73.5q0 40 -25 65.5t-79 40.5l-82 23q-93 25 -134.5 73t-41.5 128q0 101 63 158t176 57q54 0 112 -12.5t108 -35.5l-40 -96q-105 40 -183 40q-59 0 -89.5 -23.5t-30.5 -67.5q0 -41 24.5 -66
t78.5 -40l82 -23q93 -25 134.5 -73t41.5 -129q0 -105 -66 -163.5t-185 -58.5q-65 0 -126.5 16.5zM223.5 -202q-19.5 19 -19.5 51q0 34 19 52.5t54 18.5q34 0 53.5 -19t19.5 -51q0 -34 -19 -52.5t-54 -18.5q-34 0 -53.5 19z" />
    <glyph glyph-name="uni1E63" unicode="&#x1e63;" horiz-adv-x="468" 
d="M116 2q-52 14 -90 39l41 96q74 -45 156 -45q96 0 96 60q0 25 -16.5 39.5t-53.5 23.5l-71 17q-75 18 -109.5 54.5t-34.5 98.5q0 80 53 125t148 45q48 0 96 -12t87 -33l-44 -95q-72 36 -141 36q-85 0 -85 -55q0 -22 16.5 -36.5t53.5 -23.5l71 -17q75 -18 109.5 -55
t34.5 -101q0 -83 -55 -129t-155 -46q-55 0 -107 14zM176.5 -202q-19.5 19 -19.5 51q0 34 19 52.5t54 18.5q34 0 53.5 -19t19.5 -51q0 -34 -19 -52.5t-54 -18.5q-34 0 -53.5 19z" />
    <glyph glyph-name="uni1E6C" unicode="&#x1e6c;" horiz-adv-x="529" 
d="M508 616h-184v-616h-120v616h-184v108h488v-108zM210.5 -202q-19.5 19 -19.5 51q0 34 19 52.5t54 18.5q34 0 53.5 -19t19.5 -51q0 -34 -19 -52.5t-54 -18.5q-34 0 -53.5 19z" />
    <glyph glyph-name="uni1E6D" unicode="&#x1e6d;" horiz-adv-x="397" 
d="M99 166v275h-85v102h86v150h117v-150h152v-102h-152v-254q0 -46 20 -67.5t63 -21.5q27 0 57 8l19 -100q-47 -14 -95 -14q-182 0 -182 174zM177.5 -202q-19.5 19 -19.5 51q0 34 19 52.5t54 18.5q34 0 53.5 -19t19.5 -51q0 -34 -19 -52.5t-54 -18.5q-34 0 -53.5 19z" />
    <glyph glyph-name="uni1E6E" unicode="&#x1e6e;" horiz-adv-x="529" 
d="M508 616h-184v-616h-120v616h-184v108h488v-108zM106 -95h316v-87h-316v87z" />
    <glyph glyph-name="uni1E6F" unicode="&#x1e6f;" horiz-adv-x="397" 
d="M99 166v275h-85v102h86v150h117v-150h152v-102h-152v-254q0 -46 20 -67.5t63 -21.5q27 0 57 8l19 -100q-47 -14 -95 -14q-182 0 -182 174zM106 -93h250v-87h-250v87z" />
    <glyph glyph-name="Wgrave" unicode="&#x1e80;" horiz-adv-x="897" 
d="M425 781l-173 133v12h135l138 -133v-12h-100zM871 724l-176 -724h-131l-117 560l-115 -560h-132l-174 724h124l117 -585l117 584h129l118 -584l117 585h123z" />
    <glyph glyph-name="wgrave" unicode="&#x1e81;" horiz-adv-x="787" 
d="M766 543l-151 -543h-127l-95 399l-93 -399h-128l-151 543h120l96 -421l97 421h120l99 -421l95 421h118zM252 774v10h125l89 -159v-10h-90z" />
    <glyph glyph-name="Wacute" unicode="&#x1e82;" horiz-adv-x="897" 
d="M468 781h-100v12l147 133h135v-12zM871 724l-176 -724h-131l-117 560l-115 -560h-132l-174 724h124l117 -585l117 584h129l118 -584l117 585h123z" />
    <glyph glyph-name="wacute" unicode="&#x1e83;" horiz-adv-x="787" 
d="M766 543l-151 -543h-127l-95 399l-93 -399h-128l-151 543h120l96 -421l97 421h120l99 -421l95 421h118zM328 625l97 159h125v-10l-132 -159h-90v10z" />
    <glyph glyph-name="Wdieresis" unicode="&#x1e84;" horiz-adv-x="897" 
d="M297.5 797q-17.5 18 -17.5 48q0 32 17.5 49t48.5 17t48.5 -17.5t17.5 -47.5q0 -32 -17.5 -49.5t-48.5 -17.5t-48.5 18zM500.5 797q-17.5 18 -17.5 48q0 32 17.5 49t48.5 17t48.5 -17.5t17.5 -47.5q0 -32 -17.5 -49.5t-48.5 -17.5t-48.5 18zM871 724l-176 -724h-131
l-117 560l-115 -560h-132l-174 724h124l117 -585l117 584h129l118 -584l117 585h123z" />
    <glyph glyph-name="wdieresis" unicode="&#x1e85;" horiz-adv-x="787" 
d="M250.5 636q-17.5 18 -17.5 48q0 32 17.5 49t48.5 17t48.5 -17.5t17.5 -47.5q0 -32 -17.5 -49.5t-48.5 -17.5t-48.5 18zM442.5 636q-17.5 18 -17.5 48q0 32 17.5 49t48.5 17t48.5 -17.5t17.5 -47.5q0 -32 -17.5 -49.5t-48.5 -17.5t-48.5 18zM766 543l-151 -543h-127
l-95 399l-93 -399h-128l-151 543h120l96 -421l97 421h120l99 -421l95 421h118z" />
    <glyph glyph-name="uni1E8E" unicode="&#x1e8e;" horiz-adv-x="589" 
d="M239.5 802q-19.5 19 -19.5 51q0 34 19 52.5t54 18.5q34 0 53.5 -19t19.5 -51q0 -34 -19 -52.5t-54 -18.5q-34 0 -53.5 19zM573 724l-220 -479v-245h-120v245l-217 479h128l151 -349l150 349h128z" />
    <glyph glyph-name="uni1E8F" unicode="&#x1e8f;" horiz-adv-x="520" 
d="M501 543l-171 -522q-29 -90 -93.5 -148t-174.5 -93l-40 100q70 25 111.5 52.5t66.5 66.5l-181 544h121l122 -417l120 417h119zM208.5 640q-19.5 19 -19.5 51q0 34 19 52.5t54 18.5q34 0 53.5 -19t19.5 -51q0 -34 -19 -52.5t-54 -18.5q-34 0 -53.5 19z" />
    <glyph glyph-name="uni1E92" unicode="&#x1e92;" horiz-adv-x="554" 
d="M515 105v-105h-478v106l337 513h-324v105h459v-105l-337 -514h343zM225.5 -202q-19.5 19 -19.5 51q0 34 19 52.5t54 18.5q34 0 53.5 -19t19.5 -51q0 -34 -19 -52.5t-54 -18.5q-34 0 -53.5 19z" />
    <glyph glyph-name="uni1E93" unicode="&#x1e93;" horiz-adv-x="469" 
d="M435 100v-100h-402v100l264 343h-255v100h387v-100l-264 -343h270zM180.5 -202q-19.5 19 -19.5 51q0 34 19 52.5t54 18.5q34 0 53.5 -19t19.5 -51q0 -34 -19 -52.5t-54 -18.5q-34 0 -53.5 19z" />
    <glyph glyph-name="uni1E97" unicode="&#x1e97;" horiz-adv-x="397" 
d="M36.5 755q-17.5 18 -17.5 48q0 32 17.5 49t48.5 17t48.5 -17.5t17.5 -47.5q0 -32 -17.5 -49.5t-48.5 -17.5t-48.5 18zM228.5 755q-17.5 18 -17.5 48q0 32 17.5 49t48.5 17t48.5 -17.5t17.5 -47.5q0 -32 -17.5 -49.5t-48.5 -17.5t-48.5 18zM99 166v275h-85v102h86v150h117
v-150h152v-102h-152v-254q0 -46 20 -67.5t63 -21.5q27 0 57 8l19 -100q-47 -14 -95 -14q-182 0 -182 174z" />
    <glyph glyph-name="uni1E9E" unicode="&#x1e9e;" horiz-adv-x="674" 
d="M590.5 335.5q50.5 -50.5 50.5 -135.5q0 -98 -66 -152.5t-185 -54.5q-78 0 -136 20l20 98q68 -17 120 -17q132 0 132 96q0 123 -227 134v93q67 28 98 62t31 79q0 83 -103 83q-130 0 -130 -127v-514h-120v514q0 111 65.5 172t184.5 61q103 0 159 -46.5t56 -130.5
q0 -110 -99 -169q99 -15 149.5 -65.5z" />
    <glyph glyph-name="uni1EA0" unicode="&#x1ea0;" horiz-adv-x="669" 
d="M470 167h-273l-52 -167h-125l249 724h131l249 -724h-127zM437 272l-104 336l-104 -336h208zM281.5 -202q-19.5 19 -19.5 51q0 34 19 52.5t54 18.5q34 0 53.5 -19t19.5 -51q0 -34 -19 -52.5t-54 -18.5q-34 0 -53.5 19z" />
    <glyph glyph-name="uni1EA1" unicode="&#x1ea1;" horiz-adv-x="533" 
d="M408 510q54 -46 54 -131v-379h-105v76q-52 -87 -162 -87q-78 0 -121 42.5t-43 119.5q0 98 75.5 143.5t239.5 46.5v25q0 84 -109 84q-64 0 -127 -28l-30 92q89 42 177 42q97 0 151 -46zM346 146v114q-105 -1 -153.5 -25t-48.5 -74q0 -72 80 -72q70 0 122 57zM191.5 -202
q-19.5 19 -19.5 51q0 34 19 52.5t54 18.5q34 0 53.5 -19t19.5 -51q0 -34 -19 -52.5t-54 -18.5q-34 0 -53.5 19z" />
    <glyph glyph-name="uni1EA2" unicode="&#x1ea2;" horiz-adv-x="669" 
d="M254 863l-27 58q25 16 56 24.5t63 8.5q49 0 76 -19t27 -54q0 -27 -12.5 -38.5t-35.5 -21.5q-14 -6 -20.5 -10.5t-6.5 -12.5l2 -17h-84q-2 12 -2 22q0 19 9 28t27 18q12 6 17 10t5 11q0 14 -25 14q-30 0 -69 -21zM470 167h-273l-52 -167h-125l249 724h131l249 -724h-127z
M437 272l-104 336l-104 -336h208z" />
    <glyph glyph-name="uni1EA3" unicode="&#x1ea3;" horiz-adv-x="533" 
d="M408 510q54 -46 54 -131v-379h-105v76q-52 -87 -162 -87q-78 0 -121 42.5t-43 119.5q0 98 75.5 143.5t239.5 46.5v25q0 84 -109 84q-64 0 -127 -28l-30 92q89 42 177 42q97 0 151 -46zM346 146v114q-105 -1 -153.5 -25t-48.5 -74q0 -72 80 -72q70 0 122 57zM212 638
q0 24 8.5 36t24.5 24q10 6 15 12t5 15q0 18 -25 18q-29 0 -60 -18l-26 57q22 14 51 22t58 8q47 0 73 -20t26 -57q0 -24 -10 -36.5t-29 -25.5q-14 -9 -21.5 -17t-7.5 -21q0 -8 2 -20h-82q-2 12 -2 23z" />
    <glyph glyph-name="uni1EA4" unicode="&#x1ea4;" horiz-adv-x="669" 
d="M534 896h-78v10l75 127h105v-10zM256 785h-81v10l104 139h110l104 -139v-10h-83l-78 83zM470 167h-273l-52 -167h-125l249 724h131l249 -724h-127zM437 272l-104 336l-104 -336h208z" />
    <glyph glyph-name="uni1EA5" unicode="&#x1ea5;" horiz-adv-x="533" 
d="M557 863v-10l-102 -127h-78v10l75 127h105zM177 615h-81v10l104 139h110l104 -139v-10h-83l-78 83zM408 510q54 -46 54 -131v-379h-105v76q-52 -87 -162 -87q-78 0 -121 42.5t-43 119.5q0 98 75.5 143.5t239.5 46.5v25q0 84 -109 84q-64 0 -127 -28l-30 92q89 42 177 42
q97 0 151 -46zM346 146v114q-105 -1 -153.5 -25t-48.5 -74q0 -72 80 -72q70 0 122 57z" />
    <glyph glyph-name="uni1EA6" unicode="&#x1ea6;" horiz-adv-x="669" 
d="M135 896l-96 127v10h105l69 -127v-10h-78zM175 795l104 139h110l104 -139v-10h-83l-78 83l-76 -83h-81v10zM470 167h-273l-52 -167h-125l249 724h131l249 -724h-127zM437 272l-104 336l-104 -336h208z" />
    <glyph glyph-name="uni1EA7" unicode="&#x1ea7;" horiz-adv-x="533" 
d="M56 726l-96 127v10h105l69 -127v-10h-78zM96 625l104 139h110l104 -139v-10h-83l-78 83l-76 -83h-81v10zM408 510q54 -46 54 -131v-379h-105v76q-52 -87 -162 -87q-78 0 -121 42.5t-43 119.5q0 98 75.5 143.5t239.5 46.5v25q0 84 -109 84q-64 0 -127 -28l-30 92
q89 42 177 42q97 0 151 -46zM346 146v114q-105 -1 -153.5 -25t-48.5 -74q0 -72 80 -72q70 0 122 57z" />
    <glyph glyph-name="uni1EA8" unicode="&#x1ea8;" horiz-adv-x="669" 
d="M435 967l-23 50q20 12 45 19t50 7q42 0 65 -18t23 -50q0 -24 -10 -34t-29 -19q-11 -5 -16.5 -9.5t-5.5 -11.5q0 -8 1 -13h-72q-2 10 -2 16q0 19 8 27.5t22 15.5q9 5 14 9.5t5 11.5q0 15 -24 15q-21 0 -51 -16zM256 785h-81v10l104 139h110l104 -139v-10h-83l-78 83z
M470 167h-273l-52 -167h-125l249 724h131l249 -724h-127zM437 272l-104 336l-104 -336h208z" />
    <glyph glyph-name="uni1EA9" unicode="&#x1ea9;" horiz-adv-x="533" 
d="M500 881.5q26 -19.5 26 -54.5q0 -26 -11.5 -38t-31.5 -20q-14 -7 -19.5 -11.5t-5.5 -13.5q0 -6 2 -18h-80q-2 12 -2 21q0 21 8.5 31t24.5 18q10 6 15 10.5t5 12.5q0 16 -25 16q-24 0 -58 -17l-25 55q22 13 50 20.5t55 7.5q46 0 72 -19.5zM177 615h-81v10l104 139h110
l104 -139v-10h-83l-78 83zM408 510q54 -46 54 -131v-379h-105v76q-52 -87 -162 -87q-78 0 -121 42.5t-43 119.5q0 98 75.5 143.5t239.5 46.5v25q0 84 -109 84q-64 0 -127 -28l-30 92q89 42 177 42q97 0 151 -46zM346 146v114q-105 -1 -153.5 -25t-48.5 -74q0 -72 80 -72
q70 0 122 57z" />
    <glyph glyph-name="uni1EAA" unicode="&#x1eaa;" horiz-adv-x="669" 
d="M229 927h-58q0 56 27 87.5t76 31.5q27 0 43.5 -8t33.5 -22q14 -11 23.5 -16t22.5 -5q37 0 42 49h58q0 -57 -27 -88t-76 -31q-26 0 -42.5 7.5t-34.5 21.5q-14 11 -23.5 16t-22.5 5q-37 0 -42 -48zM387 901l106 -124v-9h-79l-81 74l-82 -74h-76v9l106 124h106zM470 167
h-273l-52 -167h-125l249 724h131l249 -724h-127zM437 272l-104 336l-104 -336h208z" />
    <glyph glyph-name="uni1EAB" unicode="&#x1eab;" horiz-adv-x="533" 
d="M153 799h-61q0 62 27.5 96t77.5 34q27 0 42.5 -8.5t32.5 -24.5q12 -12 20.5 -17.5t21.5 -5.5q37 0 43 54h61q0 -62 -27.5 -96t-77.5 -34q-27 0 -42.5 8.5t-32.5 24.5q-12 12 -20.5 17.5t-21.5 5.5q-37 0 -43 -54zM310 764l104 -139v-10h-83l-78 83l-76 -83h-81v10
l104 139h110zM408 510q54 -46 54 -131v-379h-105v76q-52 -87 -162 -87q-78 0 -121 42.5t-43 119.5q0 98 75.5 143.5t239.5 46.5v25q0 84 -109 84q-64 0 -127 -28l-30 92q89 42 177 42q97 0 151 -46zM346 146v114q-105 -1 -153.5 -25t-48.5 -74q0 -72 80 -72q70 0 122 57z
" />
    <glyph glyph-name="uni1EAC" unicode="&#x1eac;" horiz-adv-x="669" 
d="M245 781h-86v12l117 133h116l117 -133v-12h-89l-88 81zM522 0l-52 167h-273l-52 -167h-125l249 724h131l249 -724h-127zM437 272l-104 336l-104 -336h208zM388.5 -98q19.5 -19 19.5 -51q0 -34 -19 -52.5t-54 -18.5q-34 0 -53.5 19t-19.5 51q0 34 19 52.5t54 18.5
q34 0 53.5 -19z" />
    <glyph glyph-name="uni1EAD" unicode="&#x1ead;" horiz-adv-x="533" 
d="M408 510q54 -46 54 -131v-379h-105v76q-52 -87 -162 -87q-78 0 -121 42.5t-43 119.5q0 98 75.5 143.5t239.5 46.5v25q0 84 -109 84q-64 0 -127 -28l-30 92q89 42 177 42q97 0 151 -46zM346 146v114q-105 -1 -153.5 -25t-48.5 -74q0 -72 80 -72q70 0 122 57zM191.5 -202
q-19.5 19 -19.5 51q0 34 19 52.5t54 18.5q34 0 53.5 -19t19.5 -51q0 -34 -19 -52.5t-54 -18.5q-34 0 -53.5 19zM412 625v-10h-83l-75 95l-75 -95h-81v10l102 159h110z" />
    <glyph glyph-name="uni1EAE" unicode="&#x1eae;" horiz-adv-x="669" 
d="M369 899h-78v10l75 127h105v-10zM224 800.5q-40 35.5 -44 100.5h60q12 -67 95 -67q85 0 95 67h58q-4 -65 -44 -100.5t-110 -35.5t-110 35.5zM470 167h-273l-52 -167h-125l249 724h131l249 -724h-127zM437 272l-104 336l-104 -336h208z" />
    <glyph glyph-name="uni1EAF" unicode="&#x1eaf;" horiz-adv-x="533" 
d="M290 759h-78v10l75 127h105v-10zM144.5 652.5q-40.5 40.5 -43.5 114.5h66q11 -75 89 -75q80 0 89 75h64q-3 -74 -43.5 -114.5t-110.5 -40.5t-110.5 40.5zM408 510q54 -46 54 -131v-379h-105v76q-52 -87 -162 -87q-78 0 -121 42.5t-43 119.5q0 98 75.5 143.5t239.5 46.5
v25q0 84 -109 84q-64 0 -127 -28l-30 92q89 42 177 42q97 0 151 -46zM346 146v114q-105 -1 -153.5 -25t-48.5 -74q0 -72 80 -72q70 0 122 57z" />
    <glyph glyph-name="uni1EB0" unicode="&#x1eb0;" horiz-adv-x="669" 
d="M299 899l-96 127v10h105l69 -127v-10h-78zM224 800.5q-40 35.5 -44 100.5h60q12 -67 95 -67q85 0 95 67h58q-4 -65 -44 -100.5t-110 -35.5t-110 35.5zM470 167h-273l-52 -167h-125l249 724h131l249 -724h-127zM437 272l-104 336l-104 -336h208z" />
    <glyph glyph-name="uni1EB1" unicode="&#x1eb1;" horiz-adv-x="533" 
d="M220 759l-96 127v10h105l69 -127v-10h-78zM144.5 652.5q-40.5 40.5 -43.5 114.5h66q11 -75 89 -75q80 0 89 75h64q-3 -74 -43.5 -114.5t-110.5 -40.5t-110.5 40.5zM408 510q54 -46 54 -131v-379h-105v76q-52 -87 -162 -87q-78 0 -121 42.5t-43 119.5q0 98 75.5 143.5
t239.5 46.5v25q0 84 -109 84q-64 0 -127 -28l-30 92q89 42 177 42q97 0 151 -46zM346 146v114q-105 -1 -153.5 -25t-48.5 -74q0 -72 80 -72q70 0 122 57z" />
    <glyph glyph-name="uni1EB2" unicode="&#x1eb2;" horiz-adv-x="669" 
d="M270 970l-23 50q20 12 45 19t50 7q42 0 65 -18t23 -50q0 -24 -10 -34t-29 -19q-11 -5 -16.5 -9.5t-5.5 -11.5q0 -8 1 -13h-72q-2 10 -2 16q0 19 8 27.5t22 15.5q9 5 14 9.5t5 11.5q0 15 -24 15q-21 0 -51 -16zM224 800.5q-40 35.5 -44 100.5h60q12 -67 95 -67q85 0 95 67
h58q-4 -65 -44 -100.5t-110 -35.5t-110 35.5zM470 167h-273l-52 -167h-125l249 724h131l249 -724h-127zM437 272l-104 336l-104 -336h208z" />
    <glyph glyph-name="uni1EB3" unicode="&#x1eb3;" horiz-adv-x="533" 
d="M183 851l-25 55q22 13 50 20.5t55 7.5q46 0 72 -19.5t26 -54.5q0 -26 -11.5 -38t-31.5 -20q-14 -7 -19.5 -11.5t-5.5 -13.5q0 -6 2 -18h-80q-2 12 -2 21q0 21 8.5 31t24.5 18q10 6 15 10.5t5 12.5q0 16 -25 16q-24 0 -58 -17zM144.5 652.5q-40.5 40.5 -43.5 114.5h66
q11 -75 89 -75q80 0 89 75h64q-3 -74 -43.5 -114.5t-110.5 -40.5t-110.5 40.5zM408 510q54 -46 54 -131v-379h-105v76q-52 -87 -162 -87q-78 0 -121 42.5t-43 119.5q0 98 75.5 143.5t239.5 46.5v25q0 84 -109 84q-64 0 -127 -28l-30 92q89 42 177 42q97 0 151 -46zM346 146
v114q-105 -1 -153.5 -25t-48.5 -74q0 -72 80 -72q70 0 122 57z" />
    <glyph glyph-name="uni1EB4" unicode="&#x1eb4;" horiz-adv-x="669" 
d="M229 927h-58q0 56 27 87.5t76 31.5q27 0 43.5 -8t33.5 -22q14 -11 23.5 -16t22.5 -5q37 0 42 49h58q0 -57 -27 -88t-76 -31q-26 0 -42.5 7.5t-34.5 21.5q-14 11 -23.5 16t-22.5 5q-37 0 -42 -48zM430 901h58q-4 -65 -44 -100.5t-110 -35.5t-110 35.5t-44 100.5h60
q12 -67 95 -67q85 0 95 67zM470 167h-273l-52 -167h-125l249 724h131l249 -724h-127zM437 272l-104 336l-104 -336h208z" />
    <glyph glyph-name="uni1EB5" unicode="&#x1eb5;" horiz-adv-x="533" 
d="M153 812h-61q0 62 27.5 96t77.5 34q27 0 42.5 -8.5t32.5 -24.5q12 -12 20.5 -17.5t21.5 -5.5q37 0 43 54h61q0 -62 -27.5 -96t-77.5 -34q-27 0 -42.5 8.5t-32.5 24.5q-12 12 -20.5 17.5t-21.5 5.5q-37 0 -43 -54zM345 767h64q-3 -74 -43.5 -114.5t-110.5 -40.5
t-110.5 40.5t-43.5 114.5h66q11 -75 89 -75q80 0 89 75zM408 510q54 -46 54 -131v-379h-105v76q-52 -87 -162 -87q-78 0 -121 42.5t-43 119.5q0 98 75.5 143.5t239.5 46.5v25q0 84 -109 84q-64 0 -127 -28l-30 92q89 42 177 42q97 0 151 -46zM346 146v114
q-105 -1 -153.5 -25t-48.5 -74q0 -72 80 -72q70 0 122 57z" />
    <glyph glyph-name="uni1EB6" unicode="&#x1eb6;" horiz-adv-x="669" 
d="M221.5 824q-40.5 42 -43.5 121h70q12 -76 87 -76q76 0 88 76h67q-3 -79 -43.5 -121t-112.5 -42t-112.5 42zM522 0l-52 167h-273l-52 -167h-125l249 724h131l249 -724h-127zM437 272l-104 336l-104 -336h208zM388.5 -98q19.5 -19 19.5 -51q0 -34 -19 -52.5t-54 -18.5
q-34 0 -53.5 19t-19.5 51q0 34 19 52.5t54 18.5q34 0 53.5 -19z" />
    <glyph glyph-name="uni1EB7" unicode="&#x1eb7;" horiz-adv-x="533" 
d="M408 510q54 -46 54 -131v-379h-105v76q-52 -87 -162 -87q-78 0 -121 42.5t-43 119.5q0 98 75.5 143.5t239.5 46.5v25q0 84 -109 84q-64 0 -127 -28l-30 92q89 42 177 42q97 0 151 -46zM346 146v114q-105 -1 -153.5 -25t-48.5 -74q0 -72 80 -72q70 0 122 57zM191.5 -202
q-19.5 19 -19.5 51q0 34 19 52.5t54 18.5q34 0 53.5 -19t19.5 -51q0 -34 -19 -52.5t-54 -18.5q-34 0 -53.5 19zM142.5 654q-40.5 42 -43.5 121h70q12 -76 87 -76q76 0 88 76h67q-3 -79 -43.5 -121t-112.5 -42t-112.5 42z" />
    <glyph glyph-name="uni1EB8" unicode="&#x1eb8;" horiz-adv-x="577" 
d="M542 107v-107h-459v724h446v-107h-326v-193h241v-108h-241v-209h339zM263.5 -202q-19.5 19 -19.5 51q0 34 19 52.5t54 18.5q34 0 53.5 -19t19.5 -51q0 -34 -19 -52.5t-54 -18.5q-34 0 -53.5 19z" />
    <glyph glyph-name="uni1EB9" unicode="&#x1eb9;" horiz-adv-x="543" 
d="M500 235h-339q15 -140 146 -140q70 0 133 34l43 -88q-37 -25 -86.5 -39t-101.5 -14q-121 0 -187 74.5t-66 208.5q0 136 61.5 210.5t173.5 74.5q109 0 168.5 -68.5t59.5 -193.5q0 -38 -5 -59zM161 317h227q-2 65 -31.5 100t-81.5 35q-99 0 -114 -135zM225.5 -202
q-19.5 19 -19.5 51q0 34 19 52.5t54 18.5q34 0 53.5 -19t19.5 -51q0 -34 -19 -52.5t-54 -18.5q-34 0 -53.5 19z" />
    <glyph glyph-name="uni1EBA" unicode="&#x1eba;" horiz-adv-x="577" 
d="M234 863l-27 58q25 16 56 24.5t63 8.5q49 0 76 -19t27 -54q0 -27 -12.5 -38.5t-35.5 -21.5q-14 -6 -20.5 -10.5t-6.5 -12.5l2 -17h-84q-2 12 -2 22q0 19 9 28t27 18q12 6 17 10t5 11q0 14 -25 14q-30 0 -69 -21zM542 107v-107h-459v724h446v-107h-326v-193h241v-108h-241
v-209h339z" />
    <glyph glyph-name="uni1EBB" unicode="&#x1ebb;" horiz-adv-x="543" 
d="M500 235h-339q15 -140 146 -140q70 0 133 34l43 -88q-37 -25 -86.5 -39t-101.5 -14q-121 0 -187 74.5t-66 208.5q0 136 61.5 210.5t173.5 74.5q109 0 168.5 -68.5t59.5 -193.5q0 -38 -5 -59zM161 317h227q-2 65 -31.5 100t-81.5 35q-99 0 -114 -135zM234 638q0 24 8.5 36
t24.5 24q10 6 15 12t5 15q0 18 -25 18q-29 0 -60 -18l-26 57q22 14 51 22t58 8q47 0 73 -20t26 -57q0 -24 -10 -36.5t-29 -25.5q-14 -9 -21.5 -17t-7.5 -21q0 -8 2 -20h-82q-2 12 -2 23z" />
    <glyph glyph-name="uni1EBC" unicode="&#x1ebc;" horiz-adv-x="577" 
d="M202 788h-67q1 68 29.5 106t78.5 38q26 0 45.5 -9.5t45.5 -27.5q17 -13 28 -18.5t23 -5.5q34 0 41 59h67q-1 -68 -29.5 -106t-78.5 -38q-26 0 -45.5 9.5t-45.5 27.5q-17 13 -28 18.5t-23 5.5q-33 0 -41 -59zM542 107v-107h-459v724h446v-107h-326v-193h241v-108h-241
v-209h339z" />
    <glyph glyph-name="uni1EBD" unicode="&#x1ebd;" horiz-adv-x="543" 
d="M500 235h-339q15 -140 146 -140q70 0 133 34l43 -88q-37 -25 -86.5 -39t-101.5 -14q-121 0 -187 74.5t-66 208.5q0 136 61.5 210.5t173.5 74.5q109 0 168.5 -68.5t59.5 -193.5q0 -38 -5 -59zM161 317h227q-2 65 -31.5 100t-81.5 35q-99 0 -114 -135zM302.5 625.5
q-19.5 9.5 -45.5 27.5q-17 13 -28 18.5t-23 5.5q-33 0 -41 -59h-67q1 68 29.5 106t78.5 38q26 0 45.5 -9.5t45.5 -27.5q17 -13 28 -18.5t23 -5.5q34 0 41 59h67q-1 -68 -29.5 -106t-78.5 -38q-26 0 -45.5 9.5z" />
    <glyph glyph-name="uni1EBE" unicode="&#x1ebe;" horiz-adv-x="577" 
d="M616 1033v-10l-102 -127h-78v10l75 127h105zM236 785h-81v10l104 139h110l104 -139v-10h-83l-78 83zM203 107h339v-107h-459v724h446v-107h-326v-193h241v-108h-241v-209z" />
    <glyph glyph-name="uni1EBF" unicode="&#x1ebf;" horiz-adv-x="543" 
d="M578 863v-10l-102 -127h-78v10l75 127h105zM199 615h-81v10l104 139h110l104 -139v-10h-83l-78 83zM445.5 487.5q59.5 -68.5 59.5 -193.5q0 -38 -5 -59h-339q15 -140 146 -140q70 0 133 34l43 -88q-37 -25 -86.5 -39t-101.5 -14q-121 0 -187 74.5t-66 208.5
q0 136 61.5 210.5t173.5 74.5q109 0 168.5 -68.5zM161 317h227q-2 65 -31.5 100t-81.5 35q-99 0 -114 -135z" />
    <glyph glyph-name="uni1EC0" unicode="&#x1ec0;" horiz-adv-x="577" 
d="M115 896l-96 127v10h105l69 -127v-10h-78zM155 795l104 139h110l104 -139v-10h-83l-78 83l-76 -83h-81v10zM542 107v-107h-459v724h446v-107h-326v-193h241v-108h-241v-209h339z" />
    <glyph glyph-name="uni1EC1" unicode="&#x1ec1;" horiz-adv-x="543" 
d="M77 726l-96 127v10h105l69 -127v-10h-78zM118 625l104 139h110l104 -139v-10h-83l-78 83l-76 -83h-81v10zM500 235h-339q15 -140 146 -140q70 0 133 34l43 -88q-37 -25 -86.5 -39t-101.5 -14q-121 0 -187 74.5t-66 208.5q0 136 61.5 210.5t173.5 74.5q109 0 168.5 -68.5
t59.5 -193.5q0 -38 -5 -59zM161 317h227q-2 65 -31.5 100t-81.5 35q-99 0 -114 -135z" />
    <glyph glyph-name="uni1EC2" unicode="&#x1ec2;" horiz-adv-x="577" 
d="M552 1025q23 -18 23 -50q0 -24 -10 -34t-29 -19q-11 -5 -16.5 -9.5t-5.5 -11.5q0 -8 1 -13h-72q-2 10 -2 16q0 19 8 27.5t22 15.5q9 5 14 9.5t5 11.5q0 15 -24 15q-21 0 -51 -16l-23 50q20 12 45 19t50 7q42 0 65 -18zM236 785h-81v10l104 139h110l104 -139v-10h-83
l-78 83zM203 107h339v-107h-459v724h446v-107h-326v-193h241v-108h-241v-209z" />
    <glyph glyph-name="uni1EC3" unicode="&#x1ec3;" horiz-adv-x="543" 
d="M521 881.5q26 -19.5 26 -54.5q0 -26 -11.5 -38t-31.5 -20q-14 -7 -19.5 -11.5t-5.5 -13.5q0 -6 2 -18h-80q-2 12 -2 21q0 21 8.5 31t24.5 18q10 6 15 10.5t5 12.5q0 16 -25 16q-24 0 -58 -17l-25 55q22 13 50 20.5t55 7.5q46 0 72 -19.5zM199 615h-81v10l104 139h110
l104 -139v-10h-83l-78 83zM445.5 487.5q59.5 -68.5 59.5 -193.5q0 -38 -5 -59h-339q15 -140 146 -140q70 0 133 34l43 -88q-37 -25 -86.5 -39t-101.5 -14q-121 0 -187 74.5t-66 208.5q0 136 61.5 210.5t173.5 74.5q109 0 168.5 -68.5zM161 317h227q-2 65 -31.5 100t-81.5 35
q-99 0 -114 -135z" />
    </font>
</defs>
</svg>
